<svg width="233" height="208" viewBox="0 0 233 208" fill="none" xmlns="http://www.w3.org/2000/svg">
<g clip-path="url(#clip0_437_378)">
<path d="M129.385 105.93C136.082 103.371 139.312 95.5426 136.6 88.4436C133.887 81.3447 126.26 77.6639 119.563 80.2224C112.867 82.7809 109.637 90.6098 112.349 97.7088C115.061 104.808 122.689 108.488 129.385 105.93Z" fill="#275BA7"/>
<path d="M86.8099 115.38C96.8173 115.38 104.93 106.197 104.93 94.8699C104.93 83.5425 96.8173 74.3599 86.8099 74.3599C76.8025 74.3599 68.6899 83.5425 68.6899 94.8699C68.6899 106.197 76.8025 115.38 86.8099 115.38Z" fill="#275BA7"/>
<path d="M95.0799 25.5598C94.8399 25.4798 94.5799 25.3798 94.5899 25.3098C94.6899 24.7498 116.49 24.0198 134.13 32.0898C166.53 46.9098 173.35 86.0998 173.9 89.5398C175.55 97.6098 176.76 109.44 173.58 122.81C165.97 154.88 138.02 175.51 137.46 175.04C137.41 175 137.52 174.79 137.57 174.7C142.43 168.1 147.5 158.95 151.92 147.68C158.15 131.8 162.45 110.2 154.73 86.2898C154.73 86.2898 139.88 37.5598 95.0899 25.5498L95.0799 25.5598Z" fill="#F59E2D"/>
<path d="M69.82 87.3797C70.07 84.4797 70.67 80.3897 72.28 75.7597C77.47 60.9097 89.34 51.4897 88.26 50.3497C88.09 50.1697 87.59 50.1797 86.1 51.0097C86.13 51.0697 42.26 71.3597 62.19 135.82C62.24 135.9 62.47 136.46 62.89 137.39C73.79 161.48 95.02 172.93 97.44 174.2C114.31 183.08 131.36 183.72 131.49 183.24C131.52 183.13 130.73 182.82 130.04 182.57C122.13 179.67 111.86 174.25 101.19 165.66C86.54 153.87 71.45 135.39 69.66 108.66C69.71 107.75 69.87 107.5 70.02 107.46C70.92 107.27 73.34 114.5 73.34 114.5C74.98 121.46 78.13 131.16 84.62 141.19C100.59 165.85 129.71 181.46 133.3 177.73C133.53 177.49 133.73 177.09 133.72 176.4C133.85 176.4 136.47 142.56 123.87 124.89C131.79 122.58 142.84 117.7 150.6 107.21C161.89 91.9597 161.64 71.0397 160.99 70.8897C160.86 70.8597 160.58 71.5897 160.34 72.2997C160.31 72.4297 160.26 72.6197 160.2 72.8497C158.88 78.0397 147.62 117.94 103.85 108.87C103.75 108.85 103.59 108.82 103.4 108.83C101.8 108.9 100.76 111.17 100.3 111.97C98.31 115.43 92.98 116.3 90.64 116.68C85.44 117.53 81.68 115.75 80.66 114.81C80.51 114.67 79.76 113.97 79.88 113.8C79.96 113.68 80.38 113.98 80.58 113.9C81.77 113.46 80.14 98.4997 70.21 87.7797C70.03 87.5897 69.89 87.4297 69.82 87.3597V87.3797Z" fill="#275BA7"/>
<path d="M112.51 48.5698L109.15 47.7898C109.06 47.7698 108.96 47.7898 108.89 47.8598L106.34 50.1798C106.16 50.3398 105.88 50.2298 105.85 49.9898L105.56 46.5598C105.56 46.4598 105.5 46.3798 105.41 46.3298L102.42 44.6298C102.21 44.5098 102.23 44.1998 102.45 44.1098L105.62 42.7698C105.71 42.7298 105.77 42.6498 105.79 42.5598L106.49 39.1898C106.54 38.9498 106.84 38.8798 106.99 39.0598L109.25 41.6598C109.31 41.7298 109.41 41.7698 109.5 41.7598L112.92 41.3798C113.16 41.3498 113.33 41.6098 113.2 41.8198L111.42 44.7698C111.37 44.8498 111.36 44.9498 111.4 45.0398L112.82 48.1798C112.92 48.3998 112.72 48.6398 112.49 48.5798L112.51 48.5698Z" fill="#FCCB00"/>
<path d="M128.08 57.6596L124.72 56.8796C124.63 56.8596 124.53 56.8796 124.46 56.9496L121.91 59.2696C121.73 59.4296 121.45 59.3196 121.42 59.0796L121.13 55.6496C121.13 55.5496 121.07 55.4696 120.98 55.4196L117.99 53.7196C117.78 53.5996 117.8 53.2896 118.02 53.1996L121.19 51.8596C121.28 51.8196 121.34 51.7396 121.36 51.6496L122.06 48.2796C122.11 48.0396 122.41 47.9696 122.56 48.1496L124.82 50.7496C124.88 50.8196 124.98 50.8596 125.07 50.8496L128.49 50.4696C128.73 50.4396 128.9 50.6996 128.77 50.9096L126.99 53.8596C126.94 53.9396 126.93 54.0396 126.97 54.1296L128.39 57.2696C128.49 57.4896 128.29 57.7296 128.06 57.6696L128.08 57.6596Z" fill="#FCCB00"/>
<path d="M121.73 70.2899L118.98 69.6499C118.9 69.6299 118.82 69.6499 118.77 69.7099L116.69 71.6099C116.54 71.7399 116.31 71.6499 116.29 71.4499L116.05 68.6399C116.05 68.5599 116 68.4899 115.93 68.4499L113.48 67.0599C113.31 66.9599 113.32 66.7099 113.51 66.6299L116.11 65.5299C116.18 65.4999 116.23 65.4399 116.25 65.3599L116.82 62.5999C116.86 62.4099 117.1 62.3399 117.23 62.4899L119.08 64.6199C119.13 64.6799 119.21 64.7099 119.29 64.6999L122.09 64.3899C122.29 64.3699 122.42 64.5799 122.32 64.7499L120.86 67.1599C120.82 67.2299 120.81 67.3099 120.85 67.3799L122.01 69.9499C122.09 70.1299 121.93 70.3199 121.74 70.2799L121.73 70.2899Z" fill="#FCCB00"/>
<path d="M109.51 64.1398L107.26 63.6198C107.2 63.6098 107.13 63.6198 107.08 63.6698L105.37 65.2198C105.25 65.3298 105.06 65.2498 105.04 65.0898L104.84 62.7898C104.84 62.7298 104.8 62.6698 104.74 62.6398L102.73 61.4998C102.59 61.4198 102.6 61.2098 102.75 61.1498L104.88 60.2498C104.94 60.2298 104.98 60.1698 104.99 60.1098L105.46 57.8498C105.49 57.6898 105.69 57.6398 105.8 57.7598L107.31 59.4998C107.31 59.4998 107.42 59.5698 107.48 59.5698L109.77 59.3098C109.93 59.2898 110.04 59.4698 109.96 59.5998L108.77 61.5798C108.74 61.6298 108.73 61.6998 108.76 61.7598L109.71 63.8598C109.78 64.0098 109.65 64.1698 109.49 64.1298L109.51 64.1398Z" fill="#FCCB00"/>
<path d="M99.8699 57.5297L97.1199 56.8897C97.0399 56.8697 96.9599 56.8897 96.9099 56.9497L94.8299 58.8497C94.6799 58.9797 94.4499 58.8897 94.4299 58.6897L94.1899 55.8797C94.1899 55.7997 94.1399 55.7297 94.0699 55.6897L91.6199 54.2997C91.4499 54.1997 91.4599 53.9497 91.6499 53.8697L94.2499 52.7697C94.3199 52.7397 94.3699 52.6797 94.3899 52.5997L94.9599 49.8397C94.9999 49.6497 95.2399 49.5797 95.3699 49.7297L97.2199 51.8597C97.2699 51.9197 97.3499 51.9497 97.4299 51.9397L100.23 51.6297C100.43 51.6097 100.56 51.8197 100.46 51.9897L98.9999 54.3997C98.9599 54.4697 98.9499 54.5497 98.9899 54.6197L100.15 57.1897C100.23 57.3697 100.07 57.5597 99.8799 57.5197L99.8699 57.5297Z" fill="#FCCB00"/>
</g>
<defs>
<clipPath id="clip0_437_378">
<rect width="118.56" height="158.35" fill="white" transform="translate(57 25)"/>
</clipPath>
</defs>
</svg>
