<svg width="360" height="360" viewBox="0 0 360 360" fill="none" xmlns="http://www.w3.org/2000/svg">
<g clip-path="url(#clip0_437_467)">
<path d="M260.594 279.929H98.3682C92.8874 279.929 88.4189 275.006 88.4189 268.932V91.4155C88.4189 85.3412 92.8874 80.4189 98.3682 80.4189H260.594C266.11 80.4189 270.543 85.3412 270.543 91.4155V268.932C270.543 275.006 266.11 279.929 260.594 279.929Z" fill="#BC354F"/>
<path d="M131.567 178.69C131.567 178.69 130.345 183.089 127.273 186.545C124.795 189.303 121.094 191.467 115.858 190.175C116.242 190.175 107.375 183.333 126.61 162.597C126.61 162.597 127.727 143.466 144.065 144.304C143.925 143.745 154.189 129.258 167.524 140.185C167.524 140.464 180.511 122.59 192.974 138.823C193.253 139.242 206.973 131.876 205.96 146.189C206.449 147.027 201.352 174.326 237.17 166.123C237.17 165.983 236.925 180.331 226.417 180.61C225.789 180.75 226.801 195.621 215.7 194.26C216.084 194.958 213.955 209.027 195.487 201.626C194.998 201.765 183.374 213.111 170.771 202.743C171.399 203.127 157.68 217.894 146.055 202.743C145.811 203.546 122.735 217.3 124.481 191.188C124.376 191.153 131.567 178.69 131.567 178.69Z" fill="#F9F9F9"/>
<path d="M205.332 140.01C205.332 140.01 209.347 127.617 225.196 127.303C225.091 127.198 239.578 127.722 252.879 147.166C253.054 146.957 268.973 168.845 237.17 166.122C237.17 166.122 204.529 175.443 205.96 146.189C205.96 146.189 206.658 144.094 205.332 140.01Z" fill="#F9F9F9"/>
<path d="M234.901 130.165C234.901 130.165 238.077 138.055 229.49 138.963C229.49 138.963 217.969 136.205 216.747 144.094C215.526 151.984 216.503 160.851 237.17 166.123C237.17 166.123 204.145 175.443 205.96 146.189C205.96 146.189 206.274 143.047 205.332 140.01C205.332 140.01 211.685 126.674 225.196 127.303C225.196 127.303 230.676 127.792 234.901 130.165Z" fill="#F9F9F9"/>
<path d="M212.942 201.242C212.942 201.242 212.768 219.465 222.158 229.239C222.298 229.065 228.093 234.895 220.169 232.905C219.924 232.695 215.561 232.626 213.815 228.402C213.64 228.541 202.155 215.485 199.956 203.266C200.165 203.546 208.02 205.117 212.942 201.242Z" fill="#F9F9F9"/>
<path d="M201.597 210.458C201.597 210.458 198.49 224.911 176.322 233.813C176.357 233.813 171.12 235.768 179.289 225.295C179.254 225.4 189.099 223.061 193.428 203.092C193.428 202.918 195.487 201.626 195.487 201.626L199.956 203.267C199.956 203.267 200.794 209.236 201.597 210.458Z" fill="#F9F9F9"/>
<path d="M159.914 209.411C159.914 209.411 159.844 224.597 169.27 231.404C169.27 231.683 178.626 237.967 162.288 234.267C162.079 234.476 160.159 233.115 159.775 231.544C159.74 231.474 145.811 217.824 144.938 203.825C145.078 204.105 146.055 202.743 146.055 202.743C146.055 202.743 150.873 210.388 159.914 209.411Z" fill="#F9F9F9"/>
<path d="M136.699 206.827C136.699 206.827 126.959 217.684 133.557 232.905C133.522 233.184 145.113 240.76 130.346 237.129C130.276 237.548 127.099 235.837 126.575 234.127C126.575 233.987 117.534 223.2 124.725 200.125C124.655 200.264 126.959 209.096 136.699 206.827Z" fill="#F9F9F9"/>
<path d="M146.055 202.743C145.811 203.546 122.735 217.3 124.481 191.188C124.376 191.153 131.567 178.69 131.567 178.69C131.567 178.69 130.346 183.089 127.274 186.545C124.795 189.303 121.095 191.467 115.858 190.175C116.242 190.175 107.375 183.333 126.61 162.597C126.61 162.597 127.727 143.466 144.065 144.304C143.926 143.745 154.189 129.258 167.525 140.185C167.525 140.464 180.511 122.59 192.974 138.823C193.253 139.242 206.973 131.876 205.96 146.189M146.055 202.743C157.68 217.894 171.4 203.127 170.771 202.743C183.374 213.111 194.999 201.765 195.487 201.626M146.055 202.743C146.055 202.743 145.078 204.104 144.938 203.825C145.811 217.824 159.74 231.474 159.775 231.544C160.159 233.115 162.079 234.476 162.288 234.267C178.626 237.967 169.27 231.683 169.27 231.404C159.844 224.597 159.914 209.411 159.914 209.411C150.873 210.388 146.055 202.743 146.055 202.743ZM205.96 146.189C204.145 175.443 237.17 166.123 237.17 166.123M205.96 146.189C206.449 147.027 201.352 174.326 237.17 166.123M205.96 146.189C205.96 146.189 206.275 143.047 205.332 140.01M205.96 146.189C204.529 175.443 237.17 166.123 237.17 166.123M205.96 146.189C205.96 146.189 206.659 144.094 205.332 140.01M237.17 166.123C237.17 165.983 236.925 180.331 226.417 180.61C225.789 180.75 226.801 195.621 215.7 194.26C216.084 194.958 213.955 209.027 195.487 201.626M237.17 166.123C268.973 168.846 253.054 146.957 252.879 147.167C239.578 127.722 225.091 127.198 225.196 127.303M237.17 166.123C216.503 160.851 215.526 151.984 216.747 144.094C217.969 136.205 229.49 138.963 229.49 138.963C238.077 138.055 234.901 130.165 234.901 130.165C230.676 127.792 225.196 127.303 225.196 127.303M195.487 201.626L199.956 203.267M195.487 201.626C195.487 201.626 193.428 202.918 193.428 203.092C189.099 223.06 179.254 225.399 179.289 225.295C171.12 235.768 176.357 233.813 176.322 233.813C198.49 224.911 201.597 210.458 201.597 210.458C200.794 209.236 199.956 203.267 199.956 203.267M199.956 203.267C202.155 215.485 213.64 228.541 213.815 228.402C215.561 232.626 219.924 232.696 220.169 232.905C228.093 234.895 222.298 229.065 222.158 229.24C212.768 219.465 212.942 201.242 212.942 201.242C208.02 205.117 200.165 203.546 199.956 203.267ZM205.332 140.01C205.332 140.01 209.347 127.617 225.196 127.303M205.332 140.01C205.332 140.01 211.686 126.674 225.196 127.303M98.3682 279.929C92.8874 279.929 88.4189 275.006 88.4189 268.932V91.4155C88.4189 85.3412 92.8874 80.4189 98.3682 80.4189H260.594C266.11 80.4189 270.543 85.3412 270.543 91.4155V268.932C270.543 275.006 266.11 279.929 260.594 279.929H98.3682ZM133.557 232.905C133.522 233.184 145.112 240.76 130.346 237.129C130.276 237.548 127.099 235.837 126.575 234.127C126.575 233.987 117.534 223.2 124.725 200.125C124.655 200.264 126.959 209.097 136.699 206.827C136.699 206.827 126.959 217.684 133.557 232.905Z" stroke="black" stroke-width="0.25"/>
</g>
<defs>
<clipPath id="clip0_437_467">
<rect width="183" height="200.367" fill="white" transform="translate(88 80)"/>
</clipPath>
</defs>
</svg>
