<svg width="33" height="33" viewBox="0 0 33 33" fill="none" xmlns="http://www.w3.org/2000/svg">
<g clip-path="url(#clip0_117_75)">
<path d="M25.2656 0H7.73438C3.4628 0 0 3.4628 0 7.73438V25.2656C0 29.5372 3.4628 33 7.73438 33H25.2656C29.5372 33 33 29.5372 33 25.2656V7.73438C33 3.4628 29.5372 0 25.2656 0Z" fill="#242938"/>
<mask id="mask0_117_75" style="mask-type:luminance" maskUnits="userSpaceOnUse" x="7" y="3" width="19" height="27">
<path d="M7.86328 3.60938H25.0542V29.3906H7.86328V3.60938Z" fill="white"/>
</mask>
<g mask="url(#mask0_117_75)">
<path d="M12.162 29.3907C14.5338 29.3907 16.4588 27.4657 16.4588 25.0938V20.7969H12.162C9.79008 20.7969 7.86499 22.722 7.86499 25.0938C7.86499 27.4657 9.79008 29.3907 12.162 29.3907Z" fill="#0ACF83"/>
<path d="M7.86499 16.5C7.86499 14.1281 9.79008 12.2031 12.162 12.2031H16.4588V20.7968H12.162C9.79008 20.7968 7.86499 18.8718 7.86499 16.5Z" fill="#A259FF"/>
<path d="M7.86493 7.90621C7.86493 5.53433 9.79002 3.60938 12.1619 3.60938H16.4587V12.2032H12.1619C9.79002 12.2032 7.86493 10.2781 7.86493 7.90621Z" fill="#F24E1E"/>
<path d="M16.4588 3.60938H20.7556C23.1275 3.60938 25.0526 5.53433 25.0526 7.90621C25.0526 10.2781 23.1275 12.2032 20.7556 12.2032H16.4588V3.60938Z" fill="#FF7262"/>
<path d="M25.0526 16.5C25.0526 18.8718 23.1275 20.7968 20.7556 20.7968C18.3838 20.7968 16.4588 18.8718 16.4588 16.5C16.4588 14.1281 18.3838 12.2031 20.7556 12.2031C23.1275 12.2031 25.0526 14.1281 25.0526 16.5Z" fill="#1ABCFE"/>
</g>
</g>
<defs>
<clipPath id="clip0_117_75">
<rect width="33" height="33" fill="white"/>
</clipPath>
</defs>
</svg>
