<svg width="33" height="33" viewBox="0 0 33 33" fill="none" xmlns="http://www.w3.org/2000/svg">
<g clip-path="url(#clip0_117_87)">
<path d="M25.2656 0H7.73438C3.4628 0 0 3.4628 0 7.73438V25.2656C0 29.5372 3.4628 33 7.73438 33H25.2656C29.5372 33 33 29.5372 33 25.2656V7.73438C33 3.4628 29.5372 0 25.2656 0Z" fill="#330000"/>
<path d="M15.95 19.6367H10.835L9.78993 22.8679C9.76247 22.9917 9.65251 23.0742 9.52876 23.0604H6.94368C6.79247 23.0604 6.75122 22.9779 6.79247 22.8129L11.22 10.0667C11.2613 9.92924 11.3025 9.77791 11.3574 9.61291C11.4125 9.32416 11.4399 9.02174 11.4399 8.7192C11.4263 8.65049 11.4812 8.58166 11.55 8.56799H15.1112C15.2213 8.56799 15.2762 8.60924 15.29 8.67795L20.3087 22.8405C20.3499 22.9917 20.3087 23.0604 20.1713 23.0604H17.2974C17.2013 23.0742 17.105 23.0055 17.0775 22.9092L15.95 19.6367ZM11.6325 16.8454H15.125C15.0425 16.5567 14.9325 16.2129 14.8088 15.8554C14.685 15.4842 14.5613 15.0855 14.4375 14.673C14.3 14.2467 14.1762 13.8342 14.0387 13.4079C13.9013 12.9817 13.7775 12.5829 13.6674 12.1842C13.5575 11.7993 13.4612 11.4417 13.365 11.1117H13.3374C13.2137 11.703 13.0625 12.2943 12.87 12.8854C12.6638 13.5454 12.4575 14.2329 12.2375 14.9205C12.0599 15.5695 11.8581 16.2116 11.6325 16.8454ZM23.375 10.9742C22.9212 10.9879 22.4813 10.8092 22.1513 10.4929C21.8351 10.1492 21.6701 9.69541 21.6837 9.22799C21.6701 8.76045 21.8487 8.32049 22.1787 8.00416C22.5087 7.68782 22.9488 7.52295 23.4026 7.52295C23.9388 7.52295 24.3513 7.68795 24.6537 8.00416C24.9585 8.33749 25.1213 8.77654 25.1075 9.22799C25.1213 9.69541 24.9563 10.1492 24.6263 10.4929C24.3101 10.8229 23.8425 11.0017 23.375 10.9742ZM21.8351 22.9092V12.3217C21.8351 12.1842 21.89 12.1292 22.0137 12.1292H24.7362C24.86 12.1292 24.915 12.198 24.915 12.3217V22.9092C24.915 23.0604 24.86 23.1292 24.7362 23.1292H22.0413C21.9038 23.1292 21.8351 23.0467 21.8351 22.9092Z" fill="#FF9A00"/>
</g>
<defs>
<clipPath id="clip0_117_87">
<rect width="33" height="33" fill="white"/>
</clipPath>
</defs>
</svg>
