<svg width="33" height="32" viewBox="0 0 33 32" fill="none" xmlns="http://www.w3.org/2000/svg">
<g clip-path="url(#clip0_117_98)">
<path d="M27.5215 -0.6875H5.47852C2.45282 -0.6875 0 1.76532 0 4.79102V26.009C0 29.0347 2.45282 31.4875 5.47852 31.4875H27.5215C30.5472 31.4875 33 29.0347 33 26.009V4.79102C33 1.76532 30.5472 -0.6875 27.5215 -0.6875Z" fill="#49021F"/>
<path d="M11.9843 8.35814V22.3606C11.9843 22.5072 11.9178 22.5805 11.785 22.5805H9.10631C8.98806 22.5805 8.92906 22.5072 8.92932 22.3606V8.35814C8.92932 8.24097 8.99571 8.18235 9.12848 8.18226H11.8072C11.8297 8.1791 11.8526 8.18084 11.8744 8.18737C11.8962 8.1939 11.9163 8.20507 11.9333 8.22009C11.9503 8.23511 11.9637 8.25363 11.9728 8.27435C11.9819 8.29507 11.9863 8.31751 11.9857 8.34009L11.9843 8.35814ZM20.052 22.7988L19.9094 22.8002C18.8905 22.8157 17.8809 22.6054 16.9541 22.1848C16.0907 21.788 15.3689 21.1403 14.8843 20.3273C14.3946 19.5197 14.1438 18.5132 14.132 17.3078L14.1316 17.2169C14.1233 16.208 14.3829 15.2148 14.8844 14.3373C15.387 13.4674 16.1201 12.751 17.004 12.2658L17.0759 12.2269C18.035 11.6994 19.1935 11.4356 20.5515 11.4356L20.5801 11.4358L20.6437 11.4372L20.7156 11.44L20.7959 11.4441L20.8845 11.4496L20.9813 11.4566L21.2 11.4744L21.2599 11.4795V7.1493C21.2599 7.04682 21.3041 6.99549 21.3926 6.99532H24.182C24.2001 6.99275 24.2185 6.99439 24.2357 7.00011C24.253 7.00582 24.2687 7.01546 24.2816 7.02826C24.2945 7.04105 24.3042 7.05665 24.31 7.07382C24.3157 7.09099 24.3174 7.10925 24.3148 7.12716V20.1185C24.3157 20.3899 24.3268 20.6612 24.3481 20.9318L24.3689 21.2152L24.3874 21.479L24.4034 21.7231C24.4061 21.7688 24.3949 21.8142 24.3712 21.8535C24.3475 21.8927 24.3124 21.9239 24.2706 21.943C23.551 22.241 22.8015 22.462 22.0347 22.6024C21.3805 22.7224 20.7173 22.7881 20.0521 22.7988M21.26 20.0745V14.0735C21.1403 14.0413 21.0182 14.0192 20.8948 14.0075C20.744 13.9924 20.5925 13.9851 20.4409 13.9855C19.9036 13.9803 19.3728 14.1007 18.8913 14.3373C18.4224 14.5689 18.022 14.9173 17.7291 15.3485C17.4264 15.788 17.2751 16.3669 17.2752 17.085C17.2645 17.5642 17.3433 18.0411 17.5076 18.4918C17.6415 18.8549 17.8529 19.1849 18.1276 19.4591C18.3904 19.7113 18.7087 19.8994 19.0574 20.0086C19.4256 20.1269 19.8104 20.1863 20.1974 20.1846C20.4039 20.1846 20.5958 20.1772 20.773 20.1624C20.9143 20.1519 21.0545 20.1287 21.1917 20.0933L21.26 20.0745Z" fill="#FF3366"/>
</g>
<defs>
<clipPath id="clip0_117_98">
<rect width="33" height="32" fill="white"/>
</clipPath>
</defs>
</svg>
