<svg width="235" height="183" viewBox="0 0 235 183" fill="none" xmlns="http://www.w3.org/2000/svg">
<path d="M125 170C125 170 211.348 73.926 184.398 5.87304C184.618 5.65086 186.067 -0.478744 189.612 5.87304C189.34 6.55265 226.395 68.2538 125 170Z" fill="url(#paint0_linear_125_2)"/>
<path d="M111 172C111 172 24.6521 75.926 51.6019 7.87304C51.3819 7.65086 49.9329 1.52126 46.3879 7.87304C46.6596 8.55265 9.60527 70.2669 111 172Z" fill="url(#paint1_linear_125_2)"/>
<path d="M110 182C107.385 179.062 104.901 176.874 102.966 175.321C100.587 173.418 98.1813 171.489 94.5207 169.806C91.4353 168.395 88.6767 167.696 86.7418 167.334C84.65 166.739 81.8522 165.871 78.5838 164.693C75.7076 163.645 73.6811 162.92 71.0141 161.625C69.3276 160.81 66.3337 159.244 62.8692 156.823C60.3982 155.089 58.3326 153.367 56.6591 151.827C51.9526 146.338 49.4163 143.736 49.0502 144.021C48.6842 144.293 50.3184 147.205 53.9529 152.784C55.7832 154.972 58.0842 157.354 60.9212 159.671C67.6803 165.185 74.5702 167.968 79.4075 169.418C79.3944 169.418 79.3813 169.431 79.3813 169.431C79.3421 169.664 87.1994 171.243 88.4545 171.502C93.0172 172.473 99.894 175.023 110 182Z" fill="url(#paint2_linear_125_2)"/>
<path d="M64 143C64 143 15.041 119.89 9 109.001C9.01288 108.779 30.4719 135.741 64 143Z" fill="url(#paint3_linear_125_2)"/>
<path d="M94 180.941C90.8363 181.579 87.3081 181.982 83.4934 181.969C65.084 181.891 51.4526 171.983 45.4637 166.931C39.9174 163.103 34.1889 159.249 28.2781 155.421C18.6698 149.184 9.21773 143.39 0 138C1.28892 139.719 3.15068 142.114 5.48115 144.888C8.12409 148.026 11.0274 151.489 15.1416 155.33C18.8521 158.806 21.9507 161.072 24.2421 162.765C31.7283 168.246 38.5765 171.879 43.1593 174.079C48.6795 176.722 54.8116 179.639 62.6753 181.423C68.7424 182.803 79.7438 184.352 94 180.941Z" fill="url(#paint4_linear_125_2)"/>
<path d="M83 148C78.5997 144.234 74.0436 140.091 69.4226 135.546C63.3867 129.598 58.0259 123.754 53.288 118.156C49.9391 114.676 46.9926 111.975 44.8119 110.066C42.4235 107.975 40.1779 106.144 35.7646 102.546C33.8694 101.014 32.2988 99.7413 31.1825 98.8582C28.9759 97.1179 26.6654 95.105 24.3159 92.7674C19.4742 87.9363 15.8787 83.0793 13.2307 78.8456C11.8418 76.2352 11.1019 74.9496 11.0111 75.0015C10.8164 75.0924 13.1918 80.4429 18.1113 91.0531C18.1113 90.5207 29.8325 119.143 83 148Z" fill="url(#paint5_linear_125_2)"/>
<path d="M117.077 138.309C117.077 138.309 145.528 109.585 153.945 50.5343C154.168 50.9905 154.863 101.14 129.362 140.564C128.903 141.02 117.982 156.177 117.077 165C116.539 162.485 115.727 159.526 114.468 156.307C113.104 152.801 111.688 150.208 110.967 148.957C109.695 146.728 107.978 144.109 105.71 141.346C104.766 140.095 102.812 137.436 100.61 133.93C77.2067 96.696 80.078 49.987 80.1435 50C80.1829 50 80.2091 50.1825 80.2091 50.5343C80.2091 50.7689 85.6763 110.484 117.077 138.309Z" fill="url(#paint6_linear_125_2)"/>
<path d="M117.446 127C121.816 120.77 129.533 108.038 132.132 90.038C134.717 72.0902 130.937 57.745 128.496 50.5659C128.496 50.787 115.49 23.2541 116.409 0C116.895 5.91756 116.986 13.0837 116.068 21.1342C114.834 31.9809 112.144 41.0068 109.545 47.7957C107.8 52.3607 108.036 52.4517 107.275 55.0789C101.867 73.768 103.127 85.8112 103.127 85.8112C103.495 104.37 113.876 121.486 117.446 127Z" fill="url(#paint7_linear_125_2)"/>
<path d="M172 143C172 143 221.849 119.89 228 109.001C228 108.779 206.151 135.741 172 143Z" fill="url(#paint8_linear_125_2)"/>
<path d="M156 146C160.461 142.234 165.081 138.091 169.766 133.546C175.886 127.598 181.321 121.754 186.125 116.156C189.52 112.676 192.508 109.975 194.719 108.066C197.14 105.975 199.417 104.144 203.891 100.546C205.813 99.014 207.405 97.7413 208.537 96.8582C210.774 95.1179 213.117 93.105 215.499 90.7674C220.408 85.9363 224.054 81.0793 226.738 76.8456C228.147 74.2352 228.897 72.9496 228.989 73.0015C229.186 73.0924 226.778 78.443 221.79 89.0532C221.79 88.5077 209.906 117.143 156 146Z" fill="url(#paint9_linear_125_2)"/>
<path d="M123 182C125.615 179.062 128.099 176.874 130.034 175.321C132.413 173.418 134.819 171.489 138.479 169.806C141.565 168.395 144.323 167.696 146.258 167.334C148.35 166.739 151.148 165.871 154.416 164.693C157.292 163.645 159.319 162.92 161.986 161.625C163.672 160.81 166.666 159.244 170.131 156.823C172.602 155.089 174.667 153.367 176.341 151.827C181.047 146.338 183.584 143.736 183.95 144.021C184.316 144.293 182.682 147.205 179.047 152.784C177.217 154.972 174.916 157.354 172.079 159.671C165.32 165.185 158.43 167.968 153.593 169.418C153.606 169.418 153.619 169.431 153.619 169.431C153.658 169.664 145.801 171.243 144.545 171.502C139.983 172.473 133.106 175.023 123 182Z" fill="url(#paint10_linear_125_2)"/>
<path d="M141 180.941C144.164 181.579 147.692 181.982 151.507 181.969C169.916 181.891 183.547 171.983 189.536 166.931C195.083 163.103 200.811 159.249 206.722 155.421C216.33 149.184 225.782 143.39 235 138C233.711 139.719 231.849 142.114 229.519 144.888C226.876 148.026 223.973 151.489 219.858 155.33C216.148 158.806 213.049 161.072 210.758 162.765C203.272 168.246 196.424 171.879 191.841 174.079C186.321 176.722 180.188 179.639 172.325 181.423C166.258 182.803 155.256 184.352 141 180.941Z" fill="url(#paint11_linear_125_2)"/>
<defs>
<linearGradient id="paint0_linear_125_2" x1="160.235" y1="85.9441" x2="159.112" y2="14.2338" gradientUnits="userSpaceOnUse">
<stop stop-color="#D88152"/>
<stop offset="0.0887" stop-color="#D47549"/>
<stop offset="0.2497" stop-color="#C95430"/>
<stop offset="0.3927" stop-color="#BE3217"/>
<stop offset="0.7133" stop-color="#BE3217"/>
</linearGradient>
<linearGradient id="paint1_linear_125_2" x1="62.828" y1="79.9433" x2="37.676" y2="12.8738" gradientUnits="userSpaceOnUse">
<stop stop-color="#D88152"/>
<stop offset="0.0887" stop-color="#D47549"/>
<stop offset="0.2497" stop-color="#C95430"/>
<stop offset="0.3927" stop-color="#BE3217"/>
<stop offset="0.7133" stop-color="#BE3217"/>
</linearGradient>
<linearGradient id="paint2_linear_125_2" x1="94.558" y1="177.133" x2="46.4658" y2="139.655" gradientUnits="userSpaceOnUse">
<stop offset="0.1185" stop-color="#7A2015"/>
<stop offset="0.3559" stop-color="#994930"/>
<stop offset="0.5566" stop-color="#AE6543"/>
<stop offset="0.673" stop-color="#B66F4A"/>
</linearGradient>
<linearGradient id="paint3_linear_125_2" x1="18.1381" y1="113.593" x2="62.648" y2="146.348" gradientUnits="userSpaceOnUse">
<stop offset="0.2934" stop-color="#7A2015"/>
<stop offset="0.7548" stop-color="#BB704A"/>
</linearGradient>
<linearGradient id="paint4_linear_125_2" x1="83.7502" y1="185.63" x2="0.718298" y2="141.547" gradientUnits="userSpaceOnUse">
<stop offset="0.5143" stop-color="#691B0F"/>
<stop offset="0.636" stop-color="#8C3327"/>
<stop offset="0.7553" stop-color="#A8473B"/>
<stop offset="0.8245" stop-color="#B24E42"/>
</linearGradient>
<linearGradient id="paint5_linear_125_2" x1="25.6742" y1="96.7652" x2="73.795" y2="145.21" gradientUnits="userSpaceOnUse">
<stop offset="0.2179" stop-color="#BB704A"/>
<stop offset="0.3188" stop-color="#B16442"/>
<stop offset="0.5021" stop-color="#97432C"/>
<stop offset="0.6693" stop-color="#7A2015"/>
</linearGradient>
<linearGradient id="paint6_linear_125_2" x1="118.416" y1="106.466" x2="120.409" y2="180.656" gradientUnits="userSpaceOnUse">
<stop offset="0.0736" stop-color="#D88152"/>
<stop offset="0.1789" stop-color="#D47549"/>
<stop offset="0.3701" stop-color="#C95430"/>
<stop offset="0.5398" stop-color="#BE3217"/>
<stop offset="0.8298" stop-color="#BE3217"/>
</linearGradient>
<linearGradient id="paint7_linear_125_2" x1="117.596" y1="63.16" x2="118.304" y2="93.4295" gradientUnits="userSpaceOnUse">
<stop offset="0.2346" stop-color="#D88152"/>
<stop offset="0.5324" stop-color="#CC5C37"/>
<stop offset="0.8319" stop-color="#C23E20"/>
<stop offset="1" stop-color="#BE3217"/>
</linearGradient>
<linearGradient id="paint8_linear_125_2" x1="218.706" y1="113.593" x2="173.963" y2="147.117" gradientUnits="userSpaceOnUse">
<stop offset="0.2934" stop-color="#7A2015"/>
<stop offset="0.7548" stop-color="#BB704A"/>
</linearGradient>
<linearGradient id="paint9_linear_125_2" x1="214.12" y1="94.762" x2="166.008" y2="143.87" gradientUnits="userSpaceOnUse">
<stop offset="0.2179" stop-color="#BB704A"/>
<stop offset="0.3188" stop-color="#B16442"/>
<stop offset="0.5021" stop-color="#97432C"/>
<stop offset="0.6693" stop-color="#7A2015"/>
</linearGradient>
<linearGradient id="paint10_linear_125_2" x1="138.444" y1="177.133" x2="186.536" y2="139.655" gradientUnits="userSpaceOnUse">
<stop offset="0.1185" stop-color="#7A2015"/>
<stop offset="0.3559" stop-color="#994930"/>
<stop offset="0.5566" stop-color="#AE6543"/>
<stop offset="0.673" stop-color="#B66F4A"/>
</linearGradient>
<linearGradient id="paint11_linear_125_2" x1="151.253" y1="185.63" x2="234.285" y2="141.547" gradientUnits="userSpaceOnUse">
<stop offset="0.5143" stop-color="#691B0F"/>
<stop offset="0.636" stop-color="#8C3327"/>
<stop offset="0.7553" stop-color="#A8473B"/>
<stop offset="0.8245" stop-color="#B24E42"/>
</linearGradient>
</defs>
</svg>
