<svg width="55" height="55" viewBox="0 0 55 55" fill="none" xmlns="http://www.w3.org/2000/svg">
<g clip-path="url(#clip0_55_65)">
<path d="M27.5 0C12.3136 0 0 12.3136 0 27.5C0 42.6864 12.3136 55 27.5 55C42.6864 55 55 42.6864 55 27.5C55 12.3136 42.6864 0 27.5 0ZM37.7511 38.8929C35.2589 41.1886 31.8583 42.5391 27.8008 42.5391C21.9263 42.5391 16.8438 39.1691 14.37 34.2584C13.351 32.2266 12.7679 29.9308 12.7679 27.5C12.7679 25.0692 13.351 22.7734 14.37 20.7416C16.8438 15.8248 21.9263 12.4548 27.8008 12.4548C31.8521 12.4548 35.2528 13.9464 37.8616 16.3711L33.5525 20.6864C31.9933 19.1948 30.0106 18.4397 27.8069 18.4397C23.8906 18.4397 20.5759 21.0854 19.3912 24.6395C19.0904 25.5419 18.9185 26.5056 18.9185 27.5C18.9185 28.4944 19.0904 29.4581 19.3912 30.3605C20.5759 33.9146 23.8906 36.5603 27.8008 36.5603C29.8265 36.5603 31.5452 36.0262 32.8895 35.1239C34.4855 34.0558 35.5413 32.466 35.8912 30.5815H27.8008V24.7623H41.9621C42.1401 25.7506 42.2321 26.7757 42.2321 27.8376C42.2321 32.423 40.5932 36.2718 37.7511 38.8929Z" fill="url(#paint0_linear_55_65)"/>
</g>
<defs>
<linearGradient id="paint0_linear_55_65" x1="27.5" y1="0" x2="27.5" y2="55" gradientUnits="userSpaceOnUse">
<stop stop-color="#D47549"/>
<stop offset="0.475962" stop-color="#AC2A1D"/>
<stop offset="1" stop-color="#992224"/>
</linearGradient>
<clipPath id="clip0_55_65">
<rect width="55" height="55" fill="white"/>
</clipPath>
</defs>
</svg>
