<svg width="807" height="484" viewBox="0 0 807 484" fill="none" xmlns="http://www.w3.org/2000/svg">
<path d="M169.36 366.752C169.36 366.752 50.9735 264.98 42.6712 231.004C42.8812 230.423 81.5663 319.886 169.36 366.752Z" fill="url(#paint0_linear_81_6)"/>
<path d="M341.733 462.853C332.929 464.604 323.11 465.712 312.494 465.676C261.261 465.461 223.325 438.265 206.658 424.399C191.223 413.893 175.28 403.314 158.831 392.808C132.091 375.689 105.786 359.786 80.1333 344.991C83.7203 349.708 88.9016 356.284 95.3872 363.896C102.742 372.509 110.822 382.015 122.272 392.557C132.598 402.099 141.222 408.318 147.599 412.963C168.432 428.009 187.491 437.979 200.245 444.019C215.607 451.274 232.673 459.279 254.557 464.175C271.442 467.963 302.059 472.216 341.733 462.853Z" fill="url(#paint1_linear_81_6)"/>
<path d="M196.105 322.311C187.018 308.519 177.796 293.563 168.706 277.437C156.843 256.344 146.737 236.049 138.139 216.909C131.696 204.704 125.748 194.971 121.278 188.017C116.381 180.402 111.673 173.616 102.421 160.284C98.4378 154.594 95.1391 149.87 92.778 146.573C88.1066 140.07 83.3622 132.729 78.7615 124.457C69.2911 107.37 63.2347 91.1503 59.2796 77.3782C57.5049 69.0704 56.4789 64.9365 56.1914 65.0125C55.5912 65.1188 57.9446 81.7925 63.181 115.014C63.5906 113.533 73.4947 201.987 196.105 322.311Z" fill="url(#paint2_linear_81_6)"/>
<path d="M392 469C383.941 459.876 376.286 453.082 370.322 448.259C362.989 442.35 355.575 436.361 344.293 431.135C334.784 426.754 326.282 424.584 320.319 423.458C313.872 421.609 305.25 418.916 295.176 415.258C286.312 412.002 280.066 409.751 271.847 405.732C266.649 403.199 257.422 398.336 246.744 390.819C239.129 385.433 232.763 380.087 227.605 375.304C213.1 358.26 205.283 350.181 204.155 351.065C203.027 351.91 208.063 360.954 219.265 378.278C224.906 385.071 231.997 392.467 240.741 399.662C261.572 416.786 282.806 425.428 297.715 429.93C297.675 429.93 297.634 429.97 297.634 429.97C297.513 430.693 321.729 435.597 325.597 436.401C339.66 439.416 360.854 447.334 392 469Z" fill="url(#paint3_linear_81_6)"/>
<path d="M661.16 354.95C661.16 354.95 770.543 251.95 777.146 218.004C776.956 217.417 743.449 307.038 661.16 354.95Z" fill="url(#paint4_linear_81_6)"/>
<path d="M585.384 322.276C595.94 309.573 606.758 295.726 617.573 280.704C631.694 261.051 643.98 241.996 654.639 223.923C662.392 212.505 669.378 203.488 674.59 197.071C680.298 190.043 685.726 183.819 696.395 171.591C700.982 166.375 704.782 162.045 707.493 159.028C712.855 153.081 718.381 146.31 723.867 138.596C735.167 122.661 742.979 107.209 748.431 93.958C751.113 85.8971 752.589 81.9019 752.866 82.0093C753.451 82.1811 749.27 98.4929 740.396 130.933C740.146 129.378 720.537 216.234 585.384 322.276Z" fill="url(#paint5_linear_81_6)"/>
<path d="M431 469C438.716 459.876 446.046 453.082 451.755 448.259C458.776 442.35 465.875 436.361 476.677 431.135C485.781 426.754 493.921 424.584 499.631 423.458C505.803 421.609 514.059 418.916 523.704 415.258C532.191 412.002 538.17 409.751 546.04 405.732C551.017 403.199 559.851 398.336 570.075 390.819C577.366 385.433 583.461 380.087 588.399 375.304C602.287 358.26 609.772 350.181 610.852 351.065C611.932 351.91 607.11 360.954 596.385 378.278C590.984 385.071 584.194 392.467 575.823 399.662C555.878 416.786 535.547 425.428 521.273 429.93C521.312 429.93 521.35 429.97 521.35 429.97C521.466 430.693 498.28 435.597 494.577 436.401C481.113 439.416 460.821 447.334 431 469Z" fill="url(#paint6_linear_81_6)"/>
<path d="M479.8 462.853C488.605 464.604 498.424 465.712 509.04 465.676C560.273 465.461 598.208 438.265 614.875 424.399C630.311 413.893 646.253 403.314 662.703 392.808C689.442 375.689 715.747 359.786 741.4 344.991C737.813 349.708 732.632 356.284 726.146 363.896C718.791 372.509 710.711 382.015 699.261 392.557C688.935 402.099 680.312 408.318 673.935 412.963C653.101 428.009 634.043 437.979 621.289 444.019C605.926 451.274 588.861 459.279 566.976 464.175C550.092 467.963 519.475 472.216 479.8 462.853Z" fill="url(#paint7_linear_81_6)"/>
<path d="M404.215 325.534C358.898 356.44 333.863 366.025 290.509 356.146C330.054 359.726 355.174 352.309 404.215 325.534Z" fill="url(#paint8_linear_81_6)"/>
<path d="M399.137 317.583C355.83 346.444 333.691 354.108 298.454 350.568C345.738 346.196 366.641 337.754 399.137 317.583Z" fill="url(#paint9_linear_81_6)"/>
<path d="M361.336 320.5C311.82 339.404 281.539 352.53 270.836 332.5C289.156 345.299 315.645 335.815 361.336 320.5Z" fill="#BB704A" stroke="#691B0F"/>
<path d="M275.839 304C267.753 345.47 323.031 321.641 382.339 311C329.251 344.965 277.622 355.313 263.839 349C250.449 340.505 250.636 325.245 275.839 304Z" fill="url(#paint10_linear_81_6)"/>
<path d="M462.836 276.5C442.005 295.525 429.413 305.273 401.836 317.5C427.466 296.113 440.391 288.416 462.836 276.5Z" fill="url(#paint11_linear_81_6)"/>
<path d="M447.836 278C426.315 296.033 413.83 305.257 384.836 307.5C431.898 290.141 434.082 286.701 447.836 278Z" fill="url(#paint12_linear_81_6)"/>
<path d="M475.336 276.5C448.936 298.237 434.001 310.021 411.836 344.5C424.861 309.315 445.059 296.362 475.336 276.5Z" fill="url(#paint13_linear_81_6)"/>
<path d="M480.836 278C461.609 295.022 450.879 304.678 436.336 332.5C441.535 308.658 451.173 296.708 480.836 278Z" fill="url(#paint14_linear_81_6)"/>
<path d="M470.836 270.5C493.231 260.281 500.669 253.387 511.336 240.5C504.456 256.094 500.339 264.666 487.836 276.5C490.248 264.893 485.828 264.291 470.836 270.5Z" fill="url(#paint15_linear_81_6)"/>
<path d="M475.836 255C452.628 258.495 440.346 262.873 416.336 271.5C438.575 255.968 451.773 253.917 475.836 255Z" fill="url(#paint16_linear_81_6)"/>
<path d="M411.836 269C377.768 271.506 377.628 258.272 380.836 232C367.539 269.643 370.469 281.259 411.836 269Z" fill="url(#paint17_linear_81_6)"/>
<path d="M513.836 232C475.678 258.138 455.63 274.809 399.836 274.5C454.132 285.075 475.658 266.224 513.836 232Z" fill="url(#paint18_linear_81_6)"/>
<path d="M503.5 126.5C509.765 123.031 510.903 119.076 513.5 112.5C513.647 121.196 512.645 125.206 503.5 126.5Z" fill="url(#paint19_linear_81_6)"/>
<path d="M509.5 128C525.057 121.924 524.834 113.953 523 99C521.351 112.698 519.647 119.868 509.5 128Z" fill="url(#paint20_linear_81_6)"/>
<path d="M630.999 110C621.58 73.3188 628.105 54.3637 642.999 21C621.718 51.4404 611.14 68.8591 630.999 110Z" fill="url(#paint21_linear_81_6)"/>
<path d="M623.513 101.631C611.471 74.3566 614.228 58.8064 621.768 31C608.827 57.3529 602.682 72.2283 623.513 101.631Z" fill="url(#paint22_linear_81_6)"/>
<path d="M619 155.5C619.292 154.939 619.573 154.382 619.843 153.827C626.818 138.982 621.914 121.07 601 77.5C624.328 114.157 630.43 132.06 619.843 153.827C619.579 154.388 619.298 154.946 619 155.5Z" fill="url(#paint23_linear_81_6)"/>
<path d="M608.13 140.884C607.599 126.245 603.665 121.32 595 114.017C601.7 122.524 604.86 128.053 608.13 140.884Z" fill="url(#paint24_linear_81_6)"/>
<path d="M597.5 91.5C619.624 115.901 624.767 128.88 609 164.5C613.876 139.426 613.928 120.752 595 104.5C604.079 107.938 608.5 112 608.5 112C608.5 112 599.6 102.772 597.5 91.5Z" fill="url(#paint25_linear_81_6)"/>
<path d="M600.244 171.918C616.284 153.514 609.536 144.363 595 128.225C604.222 143.717 609.052 152.477 600.244 171.918Z" fill="url(#paint26_linear_81_6)"/>
<path d="M595 175.5C603.8 161.148 601.503 152.854 593 138C597.467 151.504 598.883 159.412 595 175.5Z" fill="url(#paint27_linear_81_6)"/>
<path d="M586 178.5C593.98 172.078 594.878 167.454 589 157C590.608 166.259 589.801 170.919 586 178.5Z" fill="url(#paint28_linear_81_6)"/>
<path d="M570 182.5C581.094 176.238 581.542 172.312 578 165C578.293 171.847 577.301 175.681 570 182.5Z" fill="url(#paint29_linear_81_6)"/>
<path d="M576.5 181.712C587.904 174.154 588.123 169.831 583.874 162.055C584.634 169.528 583.828 173.786 576.5 181.712Z" fill="url(#paint30_linear_81_6)"/>
<path d="M627 148C611.656 176.516 592.673 179.067 561 187.5C663.182 170.009 651.376 139.437 604 77C622.652 107.298 634.215 124.579 627 148Z" fill="url(#paint31_linear_81_6)"/>
<path d="M564 184C567.141 180.098 567.745 174.408 567 170.5C570.637 175.301 572.257 181.415 564 184Z" fill="url(#paint32_linear_81_6)"/>
<path d="M507.5 194C462.397 184.204 427.271 159.445 373.5 126C409.578 158.814 444.414 186.96 507.5 194Z" fill="url(#paint33_linear_81_6)"/>
<path d="M347 187.5C369.169 175.216 379.551 167.317 389.5 149C382.32 164.654 387.941 163.391 404.5 152.5C382.699 174.437 387.302 174.174 406.5 165.5C388.792 181.267 376.252 186.706 350.5 192C373.218 180.902 384.741 174.643 389.5 163C376.929 174.415 366.696 179.354 347 187.5Z" fill="url(#paint34_linear_81_6)"/>
<path d="M460.718 224.781C473.339 217.932 479.408 213.28 486.019 201.593C481.068 211.665 484.131 211.174 493.685 204.904C480.545 218.271 482.996 218.387 493.78 213.777C483.258 223.254 476.231 226.113 462.235 228.032C475.057 222.015 481.608 218.54 484.983 211.011C477.498 217.888 471.726 220.557 460.718 224.781Z" fill="url(#paint35_linear_81_6)"/>
<path d="M426.093 217.724C442.56 208.367 450.316 202.271 457.97 187.84C452.396 200.2 456.533 199.307 468.868 190.948C452.471 208.025 455.843 207.91 470.063 201.377C456.786 213.609 447.503 217.695 428.56 221.392C445.403 212.995 453.961 208.233 457.681 199.027C448.252 207.888 440.665 211.622 426.093 217.724Z" fill="url(#paint36_linear_81_6)"/>
<path d="M381 135C352.197 152.556 335.666 161.365 300.291 161.265C339.068 174.129 355.456 164.308 381 135Z" fill="url(#paint37_linear_81_6)"/>
<path d="M386.568 144.366C364.107 164.093 351.191 174.136 323.19 176.499C354.128 186.784 366.912 175.729 386.568 144.366Z" fill="url(#paint38_linear_81_6)"/>
<path d="M418 166C399.186 180.693 388.261 188.263 363 191.552C391.959 196.635 402.681 188.389 418 166Z" fill="url(#paint39_linear_81_6)"/>
<path d="M432.014 179.623C419.329 194.046 411.831 201.663 392.53 208.056C415.88 207.714 423.126 199.595 432.014 179.623Z" fill="url(#paint40_linear_81_6)"/>
<path d="M425.07 172.066C407.637 188.643 397.428 197.301 372.565 203.04C401.852 205.358 411.798 196.04 425.07 172.066Z" fill="url(#paint41_linear_81_6)"/>
<path d="M345 98C277.165 65.131 272.328 41.1164 253.5 0C262.763 50.9697 267.227 79.8969 345 98Z" fill="url(#paint42_linear_81_6)"/>
<path d="M347.397 106.033C273.051 93.5995 261.646 71.9194 232 37.77C255.243 84.0676 267.673 110.567 347.397 106.033Z" fill="url(#paint43_linear_81_6)"/>
<path d="M444.652 182.767C435.396 208.385 427.073 211.029 413.191 219.345C430.891 214.095 440.964 211.401 444.652 182.767Z" fill="url(#paint44_linear_81_6)"/>
<path d="M476.212 195.637C461.118 218.003 452.429 218.374 437 222.775C455.39 222.346 465.786 222.386 476.212 195.637Z" fill="url(#paint45_linear_81_6)"/>
<path d="M436.295 179.756C425.741 206.83 418.1 208.732 405 216.203C421.217 212.569 430.419 210.824 436.295 179.756Z" fill="url(#paint46_linear_81_6)"/>
<path d="M355.509 113.755C294.527 123.621 279.981 109.785 248 91.0564C278.2 120.896 294.806 138.205 355.509 113.755Z" fill="url(#paint47_linear_81_6)"/>
<path d="M367.693 120.255C310.126 142.664 293.007 132.177 257.815 120.556C293.59 143.416 313.451 156.867 367.693 120.255Z" fill="url(#paint48_linear_81_6)"/>
<path d="M370.509 128.797C323.012 154.858 306.928 147.695 275 141.609C308.719 157.4 327.525 166.828 370.509 128.797Z" fill="url(#paint49_linear_81_6)"/>
<path d="M352.655 105.938C374.135 120.629 417.455 139.019 408.5 123C433.178 153.235 458.54 167.697 513 191.5C450.402 168.569 405.312 146.836 352.655 105.938C349.316 103.655 346.505 101.461 344.5 99.5C347.24 101.698 349.957 103.843 352.655 105.938Z" fill="url(#paint50_linear_81_6)"/>
<path d="M514 153C526.911 171.627 523.829 177.777 504.5 183C527.038 197.313 528.729 211.548 517.5 245C551.129 233.421 560.235 218.859 555.5 175.5C527.162 132.976 499.517 122.31 488 130C485.857 132.607 485.952 134.772 486.5 139C481.772 140.173 480.053 141.677 477.5 145C476.948 148.519 477.736 150.488 479.5 154C481.873 146.803 483.727 143.778 490.5 145C500.585 142.324 505.878 143.157 514 153Z" fill="url(#paint51_linear_81_6)"/>
<path d="M410.836 288.5C375.163 308.331 350.895 319.106 312.836 304C349.022 312.202 370.974 305.844 410.836 288.5Z" fill="url(#paint52_linear_81_6)"/>
<path d="M302.836 269.5C330.713 299.559 357.907 290.849 403.836 281C354.352 309.41 327.135 315.876 281.336 277.5C295.237 286.927 303.318 291.596 321.836 291C315.282 286.942 308.056 281.601 302.836 269.5Z" fill="url(#paint53_linear_81_6)"/>
<defs>
<linearGradient id="paint0_linear_81_6" x1="64.5493" y1="250.741" x2="157.435" y2="378.581" gradientUnits="userSpaceOnUse">
<stop offset="0.2934" stop-color="#7A2015"/>
<stop offset="0.7548" stop-color="#BB704A"/>
</linearGradient>
<linearGradient id="paint1_linear_81_6" x1="313.208" y1="475.723" x2="83.5492" y2="352.094" gradientUnits="userSpaceOnUse">
<stop offset="0.5143" stop-color="#691B0F"/>
<stop offset="0.636" stop-color="#8C3327"/>
<stop offset="0.7553" stop-color="#A8473B"/>
<stop offset="0.8245" stop-color="#B24E42"/>
</linearGradient>
<linearGradient id="paint2_linear_81_6" x1="79.3852" y1="136.601" x2="176.752" y2="305.556" gradientUnits="userSpaceOnUse">
<stop offset="0.2179" stop-color="#BB704A"/>
<stop offset="0.3188" stop-color="#B16442"/>
<stop offset="0.5021" stop-color="#97432C"/>
<stop offset="0.6693" stop-color="#7A2015"/>
</linearGradient>
<linearGradient id="paint3_linear_81_6" x1="344.408" y1="453.887" x2="195.348" y2="338.596" gradientUnits="userSpaceOnUse">
<stop offset="0.1185" stop-color="#7A2015"/>
<stop offset="0.3559" stop-color="#994930"/>
<stop offset="0.5566" stop-color="#AE6543"/>
<stop offset="0.673" stop-color="#B66F4A"/>
</linearGradient>
<linearGradient id="paint4_linear_81_6" x1="756.994" y1="237.955" x2="667.478" y2="362.523" gradientUnits="userSpaceOnUse">
<stop offset="0.2934" stop-color="#7A2015"/>
<stop offset="0.7548" stop-color="#BB704A"/>
</linearGradient>
<linearGradient id="paint5_linear_81_6" x1="721.899" y1="150.589" x2="606.464" y2="307.754" gradientUnits="userSpaceOnUse">
<stop offset="0.2179" stop-color="#BB704A"/>
<stop offset="0.3188" stop-color="#B16442"/>
<stop offset="0.5021" stop-color="#97432C"/>
<stop offset="0.6693" stop-color="#7A2015"/>
</linearGradient>
<linearGradient id="paint6_linear_81_6" x1="476.572" y1="453.887" x2="623.882" y2="344.798" gradientUnits="userSpaceOnUse">
<stop offset="0.1185" stop-color="#7A2015"/>
<stop offset="0.3559" stop-color="#994930"/>
<stop offset="0.5566" stop-color="#AE6543"/>
<stop offset="0.673" stop-color="#B66F4A"/>
</linearGradient>
<linearGradient id="paint7_linear_81_6" x1="508.334" y1="475.723" x2="737.993" y2="352.094" gradientUnits="userSpaceOnUse">
<stop offset="0.5143" stop-color="#691B0F"/>
<stop offset="0.636" stop-color="#8C3327"/>
<stop offset="0.7553" stop-color="#A8473B"/>
<stop offset="0.8245" stop-color="#B24E42"/>
</linearGradient>
<linearGradient id="paint8_linear_81_6" x1="347.139" y1="318.091" x2="347.545" y2="359.615" gradientUnits="userSpaceOnUse">
<stop offset="0.1" stop-color="#BB704A"/>
<stop offset="0.75" stop-color="#B16442"/>
<stop offset="0.875" stop-color="#97432C"/>
<stop offset="0.951923" stop-color="#7A2015"/>
</linearGradient>
<linearGradient id="paint9_linear_81_6" x1="347.139" y1="318.091" x2="347.545" y2="359.615" gradientUnits="userSpaceOnUse">
<stop offset="0.1" stop-color="#BB704A"/>
<stop offset="0.75" stop-color="#B16442"/>
<stop offset="0.875" stop-color="#97432C"/>
<stop offset="0.951923" stop-color="#7A2015"/>
</linearGradient>
<linearGradient id="paint10_linear_81_6" x1="369" y1="346.5" x2="271" y2="310.5" gradientUnits="userSpaceOnUse">
<stop offset="0.1" stop-color="#BB704A"/>
<stop offset="0.75" stop-color="#B16442"/>
<stop offset="0.875" stop-color="#97432C"/>
<stop offset="0.951923" stop-color="#7A2015"/>
</linearGradient>
<linearGradient id="paint11_linear_81_6" x1="458" y1="278" x2="412.5" y2="321" gradientUnits="userSpaceOnUse">
<stop offset="0.1" stop-color="#BB704A"/>
<stop offset="0.75" stop-color="#B16442"/>
<stop offset="0.875" stop-color="#97432C"/>
<stop offset="0.951923" stop-color="#7A2015"/>
</linearGradient>
<linearGradient id="paint12_linear_81_6" x1="458" y1="278" x2="412.5" y2="321" gradientUnits="userSpaceOnUse">
<stop offset="0.1" stop-color="#BB704A"/>
<stop offset="0.75" stop-color="#B16442"/>
<stop offset="0.875" stop-color="#97432C"/>
<stop offset="0.951923" stop-color="#7A2015"/>
</linearGradient>
<linearGradient id="paint13_linear_81_6" x1="475" y1="276" x2="427" y2="342" gradientUnits="userSpaceOnUse">
<stop offset="0.1" stop-color="#BB704A"/>
<stop offset="0.75" stop-color="#B16442"/>
<stop offset="0.875" stop-color="#97432C"/>
<stop offset="0.951923" stop-color="#7A2015"/>
</linearGradient>
<linearGradient id="paint14_linear_81_6" x1="472" y1="276.5" x2="447" y2="327.5" gradientUnits="userSpaceOnUse">
<stop offset="0.1" stop-color="#BB704A"/>
<stop offset="0.75" stop-color="#B16442"/>
<stop offset="0.875" stop-color="#97432C"/>
<stop offset="0.951923" stop-color="#7A2015"/>
</linearGradient>
<linearGradient id="paint15_linear_81_6" x1="517" y1="240" x2="491.086" y2="276.5" gradientUnits="userSpaceOnUse">
<stop offset="0.1" stop-color="#BB704A"/>
<stop offset="0.75" stop-color="#B16442"/>
<stop offset="0.875" stop-color="#97432C"/>
<stop offset="0.951923" stop-color="#7A2015"/>
</linearGradient>
<linearGradient id="paint16_linear_81_6" x1="471" y1="251.5" x2="426.5" y2="272" gradientUnits="userSpaceOnUse">
<stop offset="0.1" stop-color="#BB704A"/>
<stop offset="0.75" stop-color="#B16442"/>
<stop offset="0.875" stop-color="#97432C"/>
<stop offset="0.951923" stop-color="#7A2015"/>
</linearGradient>
<linearGradient id="paint17_linear_81_6" x1="393" y1="239.5" x2="400" y2="274" gradientUnits="userSpaceOnUse">
<stop offset="0.22" stop-color="#7A2015"/>
<stop offset="0.32" stop-color="#97432C"/>
<stop offset="0.5" stop-color="#B16442"/>
<stop offset="0.67" stop-color="#BB704A"/>
</linearGradient>
<linearGradient id="paint18_linear_81_6" x1="456.836" y1="232" x2="456.836" y2="277.437" gradientUnits="userSpaceOnUse">
<stop offset="0.1" stop-color="#BB704A"/>
<stop offset="0.75" stop-color="#B16442"/>
<stop offset="0.875" stop-color="#97432C"/>
<stop offset="0.951923" stop-color="#7A2015"/>
</linearGradient>
<linearGradient id="paint19_linear_81_6" x1="513.678" y1="99" x2="513.678" y2="128" gradientUnits="userSpaceOnUse">
<stop offset="0.22" stop-color="#7A2015"/>
<stop offset="0.32" stop-color="#97432C"/>
<stop offset="0.5" stop-color="#B16442"/>
<stop offset="0.67" stop-color="#BB704A"/>
</linearGradient>
<linearGradient id="paint20_linear_81_6" x1="513.678" y1="99" x2="513.678" y2="128" gradientUnits="userSpaceOnUse">
<stop offset="0.22" stop-color="#7A2015"/>
<stop offset="0.32" stop-color="#97432C"/>
<stop offset="0.5" stop-color="#B16442"/>
<stop offset="0.67" stop-color="#BB704A"/>
</linearGradient>
<linearGradient id="paint21_linear_81_6" x1="631.728" y1="21" x2="631.728" y2="110" gradientUnits="userSpaceOnUse">
<stop offset="0.22" stop-color="#7A2015"/>
<stop offset="0.32" stop-color="#97432C"/>
<stop offset="0.5" stop-color="#B16442"/>
<stop offset="0.67" stop-color="#BB704A"/>
</linearGradient>
<linearGradient id="paint22_linear_81_6" x1="612.884" y1="32.4405" x2="624.088" y2="101.538" gradientUnits="userSpaceOnUse">
<stop offset="0.22" stop-color="#7A2015"/>
<stop offset="0.32" stop-color="#97432C"/>
<stop offset="0.5" stop-color="#B16442"/>
<stop offset="0.67" stop-color="#BB704A"/>
</linearGradient>
<linearGradient id="paint23_linear_81_6" x1="612.932" y1="77.5" x2="612.932" y2="155.5" gradientUnits="userSpaceOnUse">
<stop offset="0.22" stop-color="#7A2015"/>
<stop offset="0.32" stop-color="#97432C"/>
<stop offset="0.5" stop-color="#B16442"/>
<stop offset="0.67" stop-color="#BB704A"/>
</linearGradient>
<linearGradient id="paint24_linear_81_6" x1="600.292" y1="113.508" x2="602.969" y2="141.38" gradientUnits="userSpaceOnUse">
<stop offset="0.22" stop-color="#7A2015"/>
<stop offset="0.32" stop-color="#97432C"/>
<stop offset="0.5" stop-color="#B16442"/>
<stop offset="0.67" stop-color="#BB704A"/>
</linearGradient>
<linearGradient id="paint25_linear_81_6" x1="606.569" y1="91.5" x2="606.569" y2="164.5" gradientUnits="userSpaceOnUse">
<stop offset="0.22" stop-color="#7A2015"/>
<stop offset="0.32" stop-color="#97432C"/>
<stop offset="0.5" stop-color="#B16442"/>
<stop offset="0.67" stop-color="#BB704A"/>
</linearGradient>
<linearGradient id="paint26_linear_81_6" x1="600.969" y1="127.612" x2="605.459" y2="171.383" gradientUnits="userSpaceOnUse">
<stop offset="0.22" stop-color="#7A2015"/>
<stop offset="0.32" stop-color="#97432C"/>
<stop offset="0.5" stop-color="#B16442"/>
<stop offset="0.67" stop-color="#BB704A"/>
</linearGradient>
<linearGradient id="paint27_linear_81_6" x1="596.794" y1="138" x2="596.794" y2="175.5" gradientUnits="userSpaceOnUse">
<stop offset="0.22" stop-color="#7A2015"/>
<stop offset="0.32" stop-color="#97432C"/>
<stop offset="0.5" stop-color="#B16442"/>
<stop offset="0.67" stop-color="#BB704A"/>
</linearGradient>
<linearGradient id="paint28_linear_81_6" x1="589.4" y1="157" x2="589.4" y2="178.5" gradientUnits="userSpaceOnUse">
<stop offset="0.22" stop-color="#7A2015"/>
<stop offset="0.32" stop-color="#97432C"/>
<stop offset="0.5" stop-color="#B16442"/>
<stop offset="0.67" stop-color="#BB704A"/>
</linearGradient>
<linearGradient id="paint29_linear_81_6" x1="574.984" y1="165" x2="574.984" y2="182.5" gradientUnits="userSpaceOnUse">
<stop offset="0.22" stop-color="#7A2015"/>
<stop offset="0.32" stop-color="#97432C"/>
<stop offset="0.5" stop-color="#B16442"/>
<stop offset="0.67" stop-color="#BB704A"/>
</linearGradient>
<linearGradient id="paint30_linear_81_6" x1="580.663" y1="162.247" x2="581.807" y2="181.395" gradientUnits="userSpaceOnUse">
<stop offset="0.22" stop-color="#7A2015"/>
<stop offset="0.32" stop-color="#97432C"/>
<stop offset="0.5" stop-color="#B16442"/>
<stop offset="0.67" stop-color="#BB704A"/>
</linearGradient>
<linearGradient id="paint31_linear_81_6" x1="600.103" y1="77" x2="600.103" y2="187.5" gradientUnits="userSpaceOnUse">
<stop offset="0.1" stop-color="#BB704A"/>
<stop offset="0.75" stop-color="#B16442"/>
<stop offset="0.875" stop-color="#97432C"/>
<stop offset="0.951923" stop-color="#7A2015"/>
</linearGradient>
<linearGradient id="paint32_linear_81_6" x1="600.103" y1="77" x2="600.103" y2="187.5" gradientUnits="userSpaceOnUse">
<stop offset="0.1" stop-color="#BB704A"/>
<stop offset="0.75" stop-color="#B16442"/>
<stop offset="0.875" stop-color="#97432C"/>
<stop offset="0.951923" stop-color="#7A2015"/>
</linearGradient>
<linearGradient id="paint33_linear_81_6" x1="440.5" y1="126" x2="440.5" y2="194" gradientUnits="userSpaceOnUse">
<stop offset="0.1" stop-color="#BB704A"/>
<stop offset="0.75" stop-color="#B16442"/>
<stop offset="0.875" stop-color="#97432C"/>
<stop offset="0.951923" stop-color="#7A2015"/>
</linearGradient>
<linearGradient id="paint34_linear_81_6" x1="376.75" y1="149" x2="376.75" y2="192" gradientUnits="userSpaceOnUse">
<stop offset="0.1" stop-color="#BB704A"/>
<stop offset="0.75" stop-color="#B16442"/>
<stop offset="0.875" stop-color="#97432C"/>
<stop offset="0.951923" stop-color="#7A2015"/>
</linearGradient>
<linearGradient id="paint35_linear_81_6" x1="479.283" y1="200.78" x2="475.795" y2="229.669" gradientUnits="userSpaceOnUse">
<stop offset="0.1" stop-color="#BB704A"/>
<stop offset="0.75" stop-color="#B16442"/>
<stop offset="0.875" stop-color="#97432C"/>
<stop offset="0.951923" stop-color="#7A2015"/>
</linearGradient>
<linearGradient id="paint36_linear_81_6" x1="448.645" y1="187.575" x2="447.671" y2="221.934" gradientUnits="userSpaceOnUse">
<stop offset="0.1" stop-color="#BB704A"/>
<stop offset="0.75" stop-color="#B16442"/>
<stop offset="0.875" stop-color="#97432C"/>
<stop offset="0.951923" stop-color="#7A2015"/>
</linearGradient>
<linearGradient id="paint37_linear_81_6" x1="343.209" y1="129.735" x2="337.792" y2="168.616" gradientUnits="userSpaceOnUse">
<stop offset="0.1" stop-color="#BB704A"/>
<stop offset="0.75" stop-color="#B16442"/>
<stop offset="0.875" stop-color="#97432C"/>
<stop offset="0.951923" stop-color="#7A2015"/>
</linearGradient>
<linearGradient id="paint38_linear_81_6" x1="356.555" y1="141.683" x2="353.013" y2="181.307" gradientUnits="userSpaceOnUse">
<stop offset="0.1" stop-color="#BB704A"/>
<stop offset="0.75" stop-color="#B16442"/>
<stop offset="0.875" stop-color="#97432C"/>
<stop offset="0.951923" stop-color="#7A2015"/>
</linearGradient>
<linearGradient id="paint39_linear_81_6" x1="390.5" y1="166" x2="390.5" y2="193" gradientUnits="userSpaceOnUse">
<stop offset="0.1" stop-color="#BB704A"/>
<stop offset="0.75" stop-color="#B16442"/>
<stop offset="0.875" stop-color="#97432C"/>
<stop offset="0.951923" stop-color="#7A2015"/>
</linearGradient>
<linearGradient id="paint40_linear_81_6" x1="410.507" y1="183.757" x2="414.589" y2="204.997" gradientUnits="userSpaceOnUse">
<stop offset="0.1" stop-color="#BB704A"/>
<stop offset="0.75" stop-color="#B16442"/>
<stop offset="0.875" stop-color="#97432C"/>
<stop offset="0.951923" stop-color="#7A2015"/>
</linearGradient>
<linearGradient id="paint41_linear_81_6" x1="397.687" y1="174.716" x2="400.309" y2="201.824" gradientUnits="userSpaceOnUse">
<stop offset="0.1" stop-color="#BB704A"/>
<stop offset="0.75" stop-color="#B16442"/>
<stop offset="0.875" stop-color="#97432C"/>
<stop offset="0.951923" stop-color="#7A2015"/>
</linearGradient>
<linearGradient id="paint42_linear_81_6" x1="299.25" y1="0" x2="299.25" y2="98" gradientUnits="userSpaceOnUse">
<stop offset="0.22" stop-color="#7A2015"/>
<stop offset="0.32" stop-color="#97432C"/>
<stop offset="0.5" stop-color="#AE6543"/>
<stop offset="0.67" stop-color="#BB704A"/>
</linearGradient>
<linearGradient id="paint43_linear_81_6" x1="275.898" y1="24.885" x2="303.499" y2="118.918" gradientUnits="userSpaceOnUse">
<stop offset="0.22" stop-color="#7A2015"/>
<stop offset="0.32" stop-color="#97432C"/>
<stop offset="0.5" stop-color="#B16442"/>
<stop offset="0.67" stop-color="#BB704A"/>
</linearGradient>
<linearGradient id="paint44_linear_81_6" x1="411.596" y1="202.902" x2="446.28" y2="199.537" gradientUnits="userSpaceOnUse">
<stop offset="0.22" stop-color="#7A2015"/>
<stop offset="0.32" stop-color="#97432C"/>
<stop offset="0.5" stop-color="#B16442"/>
<stop offset="0.67" stop-color="#BB704A"/>
</linearGradient>
<linearGradient id="paint45_linear_81_6" x1="439.392" y1="206.439" x2="473.891" y2="211.49" gradientUnits="userSpaceOnUse">
<stop offset="0.22" stop-color="#7A2015"/>
<stop offset="0.32" stop-color="#97432C"/>
<stop offset="0.5" stop-color="#B16442"/>
<stop offset="0.67" stop-color="#BB704A"/>
</linearGradient>
<linearGradient id="paint46_linear_81_6" x1="405.071" y1="197.913" x2="436.224" y2="198.034" gradientUnits="userSpaceOnUse">
<stop offset="0.22" stop-color="#7A2015"/>
<stop offset="0.32" stop-color="#97432C"/>
<stop offset="0.5" stop-color="#B16442"/>
<stop offset="0.67" stop-color="#BB704A"/>
</linearGradient>
<linearGradient id="paint47_linear_81_6" x1="278.697" y1="69.5282" x2="324.812" y2="135.283" gradientUnits="userSpaceOnUse">
<stop offset="0.22" stop-color="#7A2015"/>
<stop offset="0.32" stop-color="#97432C"/>
<stop offset="0.5" stop-color="#B16442"/>
<stop offset="0.67" stop-color="#BB704A"/>
</linearGradient>
<linearGradient id="paint48_linear_81_6" x1="283.327" y1="93.081" x2="342.181" y2="147.73" gradientUnits="userSpaceOnUse">
<stop offset="0.22" stop-color="#7A2015"/>
<stop offset="0.32" stop-color="#97432C"/>
<stop offset="0.5" stop-color="#B16442"/>
<stop offset="0.67" stop-color="#BB704A"/>
</linearGradient>
<linearGradient id="paint49_linear_81_6" x1="294.045" y1="114.805" x2="351.463" y2="155.601" gradientUnits="userSpaceOnUse">
<stop offset="0.22" stop-color="#7A2015"/>
<stop offset="0.32" stop-color="#97432C"/>
<stop offset="0.5" stop-color="#B16442"/>
<stop offset="0.67" stop-color="#BB704A"/>
</linearGradient>
<linearGradient id="paint50_linear_81_6" x1="428.75" y1="99.5" x2="428.75" y2="191.5" gradientUnits="userSpaceOnUse">
<stop offset="0.1" stop-color="#BB704A"/>
<stop offset="0.75" stop-color="#B16442"/>
<stop offset="0.875" stop-color="#97432C"/>
<stop offset="0.951923" stop-color="#7A2015"/>
</linearGradient>
<linearGradient id="paint51_linear_81_6" x1="459" y1="116.5" x2="533.5" y2="239.5" gradientUnits="userSpaceOnUse">
<stop offset="0.22" stop-color="#7A2015"/>
<stop offset="0.32" stop-color="#97432C"/>
<stop offset="0.5" stop-color="#B16442"/>
<stop offset="0.67" stop-color="#BB704A"/>
</linearGradient>
<linearGradient id="paint52_linear_81_6" x1="402.5" y1="282" x2="312.5" y2="301" gradientUnits="userSpaceOnUse">
<stop offset="0.1" stop-color="#BB704A"/>
<stop offset="0.75" stop-color="#B16442"/>
<stop offset="0.875" stop-color="#97432C"/>
<stop offset="0.951923" stop-color="#7A2015"/>
</linearGradient>
<linearGradient id="paint53_linear_81_6" x1="402.5" y1="282" x2="312.5" y2="301" gradientUnits="userSpaceOnUse">
<stop offset="0.1" stop-color="#BB704A"/>
<stop offset="0.75" stop-color="#B16442"/>
<stop offset="0.875" stop-color="#97432C"/>
<stop offset="0.951923" stop-color="#7A2015"/>
</linearGradient>
</defs>
</svg>
