<svg width="55" height="55" viewBox="0 0 55 55" fill="none" xmlns="http://www.w3.org/2000/svg">
<g clip-path="url(#clip0_55_59)">
<path d="M27.5 0C12.3122 0 0 12.3122 0 27.5C0 42.6878 12.3122 55 27.5 55C42.6878 55 55 42.6878 55 27.5C55 12.3122 42.6878 0 27.5 0ZM17.6172 10.9235C18.1838 10.89 18.6959 11.2287 19.0842 11.8298L22.8439 18.9599C23.2398 19.8048 23.0148 20.7095 22.4243 21.3131L20.7022 23.0352C20.5959 23.1809 20.526 23.3449 20.5243 23.5253C21.1847 26.0817 23.188 28.4397 24.9555 30.0613C26.7229 31.6829 28.6226 33.8784 31.0886 34.3985C31.3934 34.4835 31.7668 34.514 31.9849 34.3112L33.9856 32.2736C34.6762 31.7501 35.6753 31.4964 36.4127 31.9245H36.4462L43.2305 35.9293C44.2264 36.5535 44.3295 37.7601 43.6166 38.494L38.9438 43.1299C38.2537 43.8376 37.337 44.0755 36.4463 44.0765C32.507 43.9585 28.7849 42.0251 25.7276 40.0382C20.7093 36.3874 16.1062 31.8594 13.2163 26.3889C12.1079 24.0949 10.8059 21.168 10.9302 18.6076C10.9413 17.6443 11.2019 16.7007 11.8802 16.0798L16.5531 11.407C16.9171 11.0972 17.2772 10.9435 17.6172 10.9235Z" fill="url(#paint0_linear_55_59)"/>
</g>
<defs>
<linearGradient id="paint0_linear_55_59" x1="27.5" y1="0" x2="27.5" y2="55" gradientUnits="userSpaceOnUse">
<stop stop-color="#D47549"/>
<stop offset="0.475962" stop-color="#AC2A1D"/>
<stop offset="1" stop-color="#992224"/>
</linearGradient>
<clipPath id="clip0_55_59">
<rect width="55" height="55" fill="white"/>
</clipPath>
</defs>
</svg>
