<svg width="33" height="33" viewBox="0 0 33 33" fill="none" xmlns="http://www.w3.org/2000/svg">
<g clip-path="url(#clip0_117_91)">
<path d="M25.2656 0H7.73438C3.4628 0 0 3.4628 0 7.73438V25.2656C0 29.5372 3.4628 33 7.73438 33H25.2656C29.5372 33 33 29.5372 33 25.2656V7.73438C33 3.4628 29.5372 0 25.2656 0Z" fill="#001E36"/>
<path d="M7.42499 22.9506V8.80182C7.42499 8.70553 7.46624 8.65062 7.56253 8.65062C7.79624 8.65062 8.01628 8.65061 8.33249 8.63682C8.66249 8.62303 9.00628 8.62303 9.37753 8.60937C9.74878 8.59557 10.1475 8.59557 10.5738 8.58178C10.9999 8.56811 11.4124 8.56812 11.8249 8.56812C12.9525 8.56812 13.8874 8.70553 14.6575 8.99428C15.3477 9.22874 15.9771 9.6139 16.5 10.1218C16.943 10.5664 17.2853 11.101 17.5038 11.6893C17.71 12.2668 17.82 12.8581 17.82 13.4769C17.82 14.6594 17.545 15.6356 16.995 16.4056C16.4449 17.1756 15.675 17.7531 14.7813 18.0831C13.8462 18.4269 12.8149 18.5506 11.6875 18.5506C11.3575 18.5506 11.1375 18.5506 10.9999 18.5368C10.8624 18.523 10.6699 18.523 10.4088 18.523V22.9368C10.4224 23.0331 10.3537 23.1156 10.2574 23.1294H7.58999C7.48003 23.1294 7.42499 23.0743 7.42499 22.9506ZM10.4224 11.3043V15.9243C10.615 15.9381 10.7937 15.9519 10.9587 15.9519H11.6875C12.2238 15.9519 12.76 15.8694 13.2687 15.7044C13.7088 15.5806 14.0937 15.3193 14.3962 14.9755C14.685 14.6319 14.8225 14.1643 14.8225 13.5594C14.8354 13.1297 14.7257 12.7052 14.5062 12.3355C14.2725 11.9781 13.9425 11.7031 13.5438 11.5518C13.035 11.3455 12.4849 11.263 11.9212 11.2768C11.5638 11.2768 11.2474 11.2768 10.9863 11.2906C10.7112 11.2768 10.5187 11.2906 10.4224 11.3043ZM26.4 15.0856C25.9875 14.8656 25.5475 14.7144 25.08 14.6181C24.5712 14.5081 24.0625 14.4393 23.5399 14.4393C23.265 14.4256 22.9762 14.4669 22.7149 14.5356C22.5363 14.5768 22.3849 14.6731 22.2888 14.8105C22.2199 14.9206 22.1787 15.058 22.1787 15.1818C22.1787 15.3055 22.2337 15.4293 22.3162 15.5394C22.44 15.6906 22.605 15.8143 22.7838 15.9106C23.1026 16.0757 23.4283 16.2271 23.76 16.3644C24.5025 16.6119 25.2175 16.9555 25.8775 17.368C26.3313 17.6568 26.7025 18.0418 26.9637 18.5094C27.1837 18.9493 27.2937 19.4305 27.28 19.9255C27.2937 20.5719 27.1012 21.2181 26.7438 21.7543C26.3602 22.3032 25.8251 22.7284 25.2037 22.978C24.5299 23.2668 23.7049 23.4181 22.7149 23.4181C22.0825 23.4181 21.4638 23.3631 20.845 23.2393C20.3601 23.1556 19.8884 23.0076 19.4425 22.7994C19.3462 22.7443 19.2775 22.648 19.2912 22.5381V20.1456C19.2912 20.1043 19.305 20.0493 19.3462 20.0218C19.3875 19.9944 19.4287 20.008 19.47 20.0356C20.0062 20.3518 20.5699 20.5719 21.175 20.7093C21.6975 20.8468 22.2475 20.9155 22.7974 20.9155C23.32 20.9155 23.6913 20.8468 23.9388 20.7231C24.1587 20.6268 24.31 20.3931 24.31 20.1456C24.31 19.9531 24.1999 19.7743 23.98 19.5955C23.76 19.4169 23.3062 19.2106 22.6324 18.9493C21.9413 18.7057 21.285 18.3729 20.68 17.9593C20.2491 17.6523 19.8921 17.253 19.635 16.7905C19.4149 16.3506 19.305 15.8694 19.3188 15.388C19.3188 14.7969 19.4838 14.233 19.7862 13.7244C20.13 13.1743 20.6388 12.7344 21.2299 12.4593C21.8763 12.1293 22.6875 11.9781 23.6637 11.9781C24.2275 11.9781 24.805 12.0193 25.3687 12.1018C25.7812 12.1569 26.1799 12.2668 26.5512 12.418C26.6062 12.4318 26.6613 12.4869 26.6887 12.5418C26.7025 12.5968 26.7162 12.6519 26.7162 12.7068V14.9481C26.7162 15.0031 26.6887 15.058 26.6475 15.0856C26.5237 15.1131 26.455 15.1131 26.4 15.0856Z" fill="#31A8FF"/>
</g>
<defs>
<clipPath id="clip0_117_91">
<rect width="33" height="33" fill="white"/>
</clipPath>
</defs>
</svg>
