<svg width="55" height="55" viewBox="0 0 55 55" fill="none" xmlns="http://www.w3.org/2000/svg">
<g clip-path="url(#clip0_55_51)">
<path d="M27.5 0C12.32 0 0 12.32 0 27.5C0 42.68 12.32 55 27.5 55C42.68 55 55 42.68 55 27.5C55 12.32 42.68 0 27.5 0ZM40.26 18.7C39.8475 23.045 38.06 33.605 37.1525 38.4725C36.7675 40.535 35.9975 41.2225 35.2825 41.305C33.6875 41.4425 32.4775 40.26 30.9375 39.2425C28.5175 37.6475 27.1425 36.6575 24.805 35.1175C22.0825 33.33 23.8425 32.34 25.41 30.745C25.8225 30.3325 32.8625 23.925 33 23.3475C33.0191 23.26 33.0166 23.1692 32.9926 23.083C32.9686 22.9967 32.924 22.9176 32.8625 22.8525C32.6975 22.715 32.4775 22.77 32.285 22.7975C32.0375 22.8525 28.1875 25.41 20.68 30.47C19.58 31.2125 18.59 31.5975 17.71 31.57C16.72 31.5425 14.85 31.02 13.4475 30.5525C11.715 30.0025 10.3675 29.7 10.4775 28.7375C10.5325 28.2425 11.22 27.7475 12.5125 27.225C20.5425 23.7325 25.8775 21.4225 28.545 20.3225C36.19 17.1325 37.7575 16.5825 38.8025 16.5825C39.0225 16.5825 39.545 16.6375 39.875 16.9125C40.15 17.1325 40.2325 17.435 40.26 17.655C40.2325 17.82 40.2875 18.315 40.26 18.7Z" fill="url(#paint0_linear_55_51)"/>
</g>
<defs>
<linearGradient id="paint0_linear_55_51" x1="27.5" y1="0" x2="27.5" y2="55" gradientUnits="userSpaceOnUse">
<stop stop-color="#D47549"/>
<stop offset="0.475962" stop-color="#AC2A1D"/>
<stop offset="1" stop-color="#992224"/>
</linearGradient>
<clipPath id="clip0_55_51">
<rect width="55" height="55" fill="white"/>
</clipPath>
</defs>
</svg>
