<svg width="53" height="53" viewBox="0 0 53 53" fill="none" xmlns="http://www.w3.org/2000/svg">
<path d="M26.4 0C11.8195 0 0 11.8195 0 26.4C0 40.9805 11.8195 52.8 26.4 52.8C40.9805 52.8 52.8 40.9805 52.8 26.4C52.8 11.8195 40.9805 0 26.4 0ZM36.553 29.7853C36.553 29.7853 38.8878 32.0898 39.4625 33.1595C39.479 33.1833 39.4891 33.2017 39.4928 33.2145C39.7256 33.605 39.7833 33.9139 39.666 34.1412C39.4735 34.5207 38.8135 34.7078 38.588 34.7243H34.463C34.177 34.7243 33.5775 34.65 32.8515 34.1495C32.2933 33.759 31.7433 33.1182 31.207 32.494C30.4068 31.5645 29.7138 30.7615 29.0153 30.7615C28.9265 30.7611 28.8383 30.775 28.754 30.8028C28.226 30.9733 27.5495 31.7268 27.5495 33.7343C27.5495 34.3613 27.0545 34.7215 26.7053 34.7215H24.816C24.1725 34.7215 20.8202 34.496 17.8502 31.3638C14.2147 27.5275 10.9422 19.833 10.9147 19.7615C10.7085 19.2637 11.1347 18.997 11.5995 18.997H15.7657C16.3212 18.997 16.5027 19.3352 16.6292 19.635C16.7777 19.9842 17.3223 21.373 18.216 22.935C19.6653 25.4815 20.5535 26.5155 21.2658 26.5155C21.3993 26.5139 21.5305 26.48 21.648 26.4165C22.5775 25.8995 22.4042 22.5857 22.363 21.8982C22.363 21.769 22.3602 20.416 21.8845 19.767C21.5435 19.2967 20.9632 19.118 20.6112 19.052C20.7537 18.8554 20.9414 18.696 21.1585 18.5872C21.7965 18.2682 22.946 18.2215 24.0873 18.2215H24.7225C25.96 18.238 26.279 18.3178 26.7273 18.4305C27.6348 18.6478 27.654 19.2335 27.5743 21.2383C27.5495 21.8075 27.5248 22.451 27.5248 23.21L27.5165 23.738C27.489 24.7582 27.456 25.916 28.1765 26.3918C28.2694 26.453 28.3787 26.4847 28.49 26.4825C28.7403 26.4825 29.4938 26.4825 31.5343 22.9818C32.1612 21.8538 32.708 20.683 33.1705 19.4782C33.2118 19.4067 33.3328 19.1868 33.4758 19.1015C33.5824 19.0508 33.6987 19.0236 33.8167 19.0217H38.7145C39.248 19.0217 39.6138 19.1015 39.6825 19.3077C39.8035 19.635 39.6605 20.6333 37.4248 23.661L36.4265 24.9783C34.3998 27.6348 34.3998 27.7695 36.553 29.7853Z" fill="url(#paint0_linear_55_56)"/>
<defs>
<linearGradient id="paint0_linear_55_56" x1="26.4" y1="0" x2="26.4" y2="52.8" gradientUnits="userSpaceOnUse">
<stop stop-color="#D47549"/>
<stop offset="0.475962" stop-color="#AC2A1D"/>
<stop offset="1" stop-color="#992224"/>
</linearGradient>
</defs>
</svg>
