<svg width="207" height="222" viewBox="0 0 207 222" fill="none" xmlns="http://www.w3.org/2000/svg">
<g clip-path="url(#clip0_433_2)">
<path d="M172.37 220.145L10.4035 200.842C4.93145 200.19 1.05583 194.744 1.77859 188.68L22.9006 11.4473C23.6234 5.38267 28.6703 0.999947 34.1424 1.65209L196.109 20.9547C201.616 21.611 205.456 27.053 204.734 33.1176L183.612 210.35C182.889 216.414 177.877 220.801 172.37 220.145Z" fill="#BC354F"/>
<path d="M55.5961 103.716C55.5961 103.716 53.8528 107.962 50.3744 111.047C47.5717 113.506 43.6196 115.226 38.5452 113.314C38.9286 113.359 30.8898 105.473 52.5617 87.0585C52.5617 87.0585 55.9533 68.0915 72.1653 70.8719C72.0923 70.2977 84.0632 57.0545 96.0773 69.5505C96.044 69.8294 111.136 53.5293 121.648 71.2193C121.877 71.6708 136.451 65.9491 133.737 80.1187C134.125 81.0134 125.788 107.663 162.525 103.734C162.541 103.594 160.59 117.89 150.066 116.919C149.422 116.983 148.663 131.952 137.741 129.272C138.042 130.014 134.242 143.807 116.685 134.221C116.18 134.302 103.224 144.246 91.8751 132.395C92.4568 132.853 77.0021 145.964 67.1985 129.454C66.859 130.227 42.1839 141.214 47.0337 115.351C46.9333 115.303 55.5961 103.716 55.5961 103.716Z" fill="#F9F9F9"/>
<path d="M133.844 73.8747C133.844 73.8747 139.327 61.9793 155.188 63.5514C155.096 63.4344 169.498 65.681 180.464 86.6773C180.663 86.4889 193.952 110.236 162.524 103.734C162.524 103.734 128.827 109.156 133.737 80.1186C133.737 80.1186 134.683 78.1105 133.844 73.8747Z" fill="#F9F9F9"/>
<path d="M164.537 67.5643C164.537 67.5643 166.77 75.8193 158.088 75.7036C158.088 75.7036 146.914 71.5794 144.756 79.311C142.597 87.0426 142.518 96.0118 162.524 103.734C162.524 103.734 128.443 109.11 133.737 80.1187C133.737 80.1187 134.424 77.0193 133.844 73.8748C133.844 73.8748 141.775 61.3166 155.188 63.5515C155.188 63.5515 160.602 64.6916 164.537 67.5643Z" fill="#F9F9F9"/>
<path d="M134.157 135.914C134.157 135.914 131.815 154.087 140.027 164.964C140.187 164.806 145.279 171.316 137.604 168.386C137.385 168.148 133.037 167.559 131.797 163.134C131.606 163.253 121.693 148.851 120.951 136.39C121.126 136.694 128.782 139.197 134.157 135.914Z" fill="#F9F9F9"/>
<path d="M121.733 143.766C121.733 143.766 116.911 157.825 93.7196 164.076C93.7544 164.08 88.2937 165.408 97.6957 155.924C97.6484 156.025 107.755 154.861 114.453 135.439C114.474 135.265 116.684 134.221 116.684 134.221L120.95 136.39C120.95 136.39 121.076 142.45 121.733 143.766Z" fill="#F9F9F9"/>
<path d="M80.242 137.76C80.242 137.76 78.3654 152.914 86.966 160.832C86.9328 161.11 95.5259 168.497 79.6546 162.859C79.4206 163.043 77.6656 161.455 77.4691 159.841C77.4426 159.767 65.16 144.482 65.9543 130.402C66.0605 130.697 67.1984 129.454 67.1984 129.454C67.1984 129.454 71.0986 137.66 80.242 137.76Z" fill="#F9F9F9"/>
<path d="M57.3716 132.419C57.3716 132.419 46.3555 142.1 51.1318 158.081C51.0638 158.356 61.7339 167.298 47.4227 161.916C47.3031 162.326 44.3349 160.24 44.0157 158.47C44.0323 158.331 36.2886 146.485 46.2142 124.302C46.1279 124.433 47.3773 133.526 57.3716 132.419Z" fill="#F9F9F9"/>
<path d="M67.198 129.454C66.8585 130.227 42.1835 141.214 47.0332 115.351C46.9328 115.303 55.5956 103.716 55.5956 103.716C55.5956 103.716 53.8523 107.962 50.374 111.047C47.5712 113.506 43.6191 115.227 38.5447 113.314C38.9281 113.36 30.8894 105.473 52.5612 87.0587C52.5612 87.0587 55.9528 68.0916 72.1648 70.8721C72.0918 70.2978 84.0627 57.0547 96.0768 69.5507C96.0436 69.8295 111.136 53.5295 121.647 71.2195C121.876 71.671 136.45 65.9492 133.737 80.1189M67.198 129.454C77.0016 145.964 92.4563 132.853 91.8746 132.395C103.223 144.246 116.18 134.302 116.684 134.221M67.198 129.454C67.198 129.454 66.0601 130.697 65.9539 130.402C65.1596 144.482 77.4422 159.767 77.4687 159.841C77.6652 161.455 79.4202 163.043 79.6542 162.859C95.5256 168.497 86.9324 161.111 86.9656 160.832C78.3651 152.914 80.2417 137.761 80.2417 137.761C71.0982 137.661 67.198 129.454 67.198 129.454ZM133.737 80.1189C128.443 109.11 162.524 103.734 162.524 103.734M133.737 80.1189C134.125 81.0135 125.788 107.663 162.524 103.734M133.737 80.1189C133.737 80.1189 134.424 77.0194 133.844 73.875M133.737 80.1189C128.827 109.156 162.524 103.734 162.524 103.734M133.737 80.1189C133.737 80.1189 134.683 78.1107 133.844 73.875M162.524 103.734C162.541 103.595 160.59 117.89 150.065 116.919C149.421 116.984 148.663 131.952 137.741 129.272C138.041 130.014 134.241 143.807 116.684 134.221M162.524 103.734C193.952 110.237 180.663 86.4891 180.464 86.6775C169.498 65.6812 155.096 63.4346 155.188 63.5516M162.524 103.734C142.518 96.012 142.597 87.0428 144.756 79.3112C146.914 71.5796 158.088 75.7038 158.088 75.7038C166.77 75.8194 164.537 67.5644 164.537 67.5644C160.602 64.6917 155.188 63.5516 155.188 63.5516M116.684 134.221L120.95 136.391M116.684 134.221C116.684 134.221 114.474 135.265 114.453 135.44C107.755 154.861 97.6483 156.025 97.6956 155.924C88.2937 165.409 93.7544 164.08 93.7195 164.076C116.911 157.826 121.733 143.766 121.733 143.766C121.076 142.45 120.95 136.391 120.95 136.391M120.95 136.391C121.692 148.851 131.606 163.253 131.796 163.135C133.037 167.56 137.385 168.148 137.604 168.387C145.279 171.316 140.187 164.806 140.027 164.964C131.814 154.087 134.157 135.914 134.157 135.914C128.781 139.197 121.126 136.694 120.95 136.391ZM133.844 73.875C133.844 73.875 139.327 61.9795 155.188 63.5516M133.844 73.875C133.844 73.875 141.775 61.3168 155.188 63.5516M10.4035 200.842C4.93145 200.19 1.05583 194.744 1.77859 188.68L22.9006 11.4473C23.6234 5.38267 28.6703 0.999947 34.1424 1.65209L196.109 20.9547C201.616 21.611 205.456 27.053 204.734 33.1176L183.612 210.35C182.889 216.414 177.877 220.801 172.37 220.145L10.4035 200.842ZM51.1314 158.081C51.0634 158.356 61.7335 167.298 47.4223 161.916C47.3027 162.326 44.3345 160.24 44.0153 158.47C44.0319 158.331 36.2882 146.485 46.2138 124.302C46.1275 124.433 47.3769 133.526 57.3712 132.419C57.3712 132.419 46.3551 142.1 51.1314 158.081Z" stroke="black" stroke-width="0.25"/>
</g>
<defs>
<clipPath id="clip0_433_2">
<rect width="184" height="201.462" fill="white" transform="translate(23.8409) rotate(6.79628)"/>
</clipPath>
</defs>
</svg>
