<?xml version="1.0" encoding="UTF-8"?>
<svg id="_Слой_2" data-name="Слой 2" xmlns="http://www.w3.org/2000/svg" xmlns:xlink="http://www.w3.org/1999/xlink" viewBox="0 0 283.46 170.08">
  <defs>
    <style>
      .cls-1 {
        letter-spacing: 0em;
      }

      .cls-2 {
        fill: url(#_Новый_узор-2);
      }

      .cls-3 {
        fill: #fff;
      }

      .cls-4, .cls-5, .cls-6, .cls-7, .cls-8, .cls-9, .cls-10, .cls-11 {
        fill: none;
      }

      .cls-4, .cls-5, .cls-6, .cls-7, .cls-8, .cls-10, .cls-11 {
        stroke-miterlimit: 10;
      }

      .cls-4, .cls-5, .cls-6, .cls-8 {
        stroke: #f59e2d;
      }

      .cls-12 {
        letter-spacing: .02em;
      }

      .cls-13 {
        letter-spacing: 0em;
      }

      .cls-14 {
        fill: #275ba7;
      }

      .cls-5 {
        stroke-width: .57px;
      }

      .cls-15 {
        letter-spacing: -.08em;
      }

      .cls-6 {
        stroke-width: .77px;
      }

      .cls-16 {
        fill: #1d1d1b;
        font-family: MyriadPro-Regular, 'Myriad Pro';
        font-size: 8.5px;
      }

      .cls-17 {
        letter-spacing: -.01em;
      }

      .cls-18 {
        letter-spacing: 0em;
      }

      .cls-19 {
        letter-spacing: -.02em;
      }

      .cls-20 {
        fill: #fccb00;
      }

      .cls-21 {
        letter-spacing: 0em;
      }

      .cls-7 {
        stroke-width: .54px;
      }

      .cls-7, .cls-10, .cls-11 {
        stroke: #275ba7;
      }

      .cls-8 {
        stroke-width: .72px;
      }

      .cls-22 {
        letter-spacing: 0em;
      }

      .cls-23 {
        letter-spacing: 0em;
      }

      .cls-24 {
        clip-path: url(#clippath);
      }

      .cls-25 {
        fill: url(#_Новый_узор);
        opacity: .17;
      }

      .cls-11 {
        stroke-width: .43px;
      }
    </style>
    <clipPath id="clippath">
      <rect class="cls-9" x="0" y="0" width="141.73" height="141.73"/>
    </clipPath>
    <pattern id="_Новый_узор" data-name="Новый узор" x="0" y="0" width="141.73" height="141.73" patternTransform="translate(927.55 168.95) scale(1.14 1.03)" patternUnits="userSpaceOnUse" viewBox="0 0 141.73 141.73">
      <g>
        <rect class="cls-9" width="141.73" height="141.73"/>
        <g class="cls-24">
          <path class="cls-20" d="m10.16,9.2L1.92,7.28c-.23-.05-.47,0-.64.17l-6.26,5.71c-.44.4-1.14.12-1.19-.47l-.72-8.44c-.02-.23-.15-.44-.36-.56L-14.62-.5c-.51-.29-.47-1.05.08-1.28l7.8-3.29c.22-.09.37-.28.42-.51l1.71-8.3c.12-.58.85-.77,1.24-.32L2.17-7.8c.15.18.39.27.62.24l8.42-.94c.59-.07,1,.57.69,1.08L7.52-.17c-.12.2-.14.45-.04.66l3.49,7.72c.24.54-.24,1.12-.81.99Z"/>
          <path class="cls-20" d="m151.9,7.95l-8.25-1.92c-.23-.05-.47,0-.64.17l-6.26,5.71c-.44.4-1.14.12-1.19-.47l-.72-8.44c-.02-.23-.15-.44-.36-.56l-7.36-4.19c-.51-.29-.47-1.05.08-1.28l7.8-3.29c.22-.09.37-.28.42-.51l1.71-8.3c.12-.58.85-.77,1.24-.32l5.54,6.4c.15.18.39.27.62.24l8.42-.94c.59-.07,1,.57.69,1.08l-4.38,7.25c-.12.2-.14.45-.04.66l3.49,7.72c.24.54-.24,1.12-.81.99Z"/>
          <path class="cls-4" d="m14.18,12.25l-8.25-1.92c-.23-.05-.47,0-.64.17L-.97,16.21c-.44.4-1.14.12-1.19-.47l-.72-8.44c-.02-.23-.15-.44-.36-.56l-7.36-4.19c-.51-.29-.47-1.05.08-1.28L-2.73-2.02c.22-.09.37-.28.42-.51L-.6-10.83c.12-.58.85-.77,1.24-.32l5.54,6.4c.15.18.39.27.62.24l8.42-.94c.59-.07,1,.57.69,1.08l-4.38,7.25c-.12.2-.14.45-.04.66l3.49,7.72c.24.54-.24,1.12-.81.99Z"/>
          <path class="cls-20" d="m10.16,150.94l-8.25-1.92c-.23-.05-.47,0-.64.17l-6.26,5.71c-.44.4-1.14.12-1.19-.47l-.72-8.44c-.02-.23-.15-.44-.36-.56l-7.36-4.19c-.51-.29-.47-1.05.08-1.28l7.8-3.29c.22-.09.37-.28.42-.51l1.71-8.3c.12-.58.85-.77,1.24-.32l5.54,6.4c.15.18.39.27.62.24l8.42-.94c.59-.07,1,.57.69,1.08l-4.38,7.25c-.12.2-.14.45-.04.66l3.49,7.72c.24.54-.24,1.12-.81.99Z"/>
          <path class="cls-4" d="m14.18,153.98l-8.25-1.92c-.23-.05-.47,0-.64.17l-6.26,5.71c-.44.4-1.14.12-1.19-.47l-.72-8.44c-.02-.23-.15-.44-.36-.56l-7.36-4.19c-.51-.29-.47-1.05.08-1.28l7.8-3.29c.22-.09.37-.28.42-.51l1.71-8.3c.12-.58.85-.77,1.24-.32l5.54,6.4c.15.18.39.27.62.24l8.42-.94c.59-.07,1,.57.69,1.08l-4.38,7.25c-.12.2-.14.45-.04.66l3.49,7.72c.24.54-.24,1.12-.81.99Z"/>
          <path class="cls-20" d="m151.9,150.94l-8.25-1.92c-.23-.05-.47,0-.64.17l-6.26,5.71c-.44.4-1.14.12-1.19-.47l-.72-8.44c-.02-.23-.15-.44-.36-.56l-7.36-4.19c-.51-.29-.47-1.05.08-1.28l7.8-3.29c.22-.09.37-.28.42-.51l1.71-8.3c.12-.58.85-.77,1.24-.32l5.54,6.4c.15.18.39.27.62.24l8.42-.94c.59-.07,1,.57.69,1.08l-4.38,7.25c-.12.2-.14.45-.04.66l3.49,7.72c.24.54-.24,1.12-.81.99Z"/>
          <path class="cls-4" d="m155.91,153.98l-8.25-1.92c-.23-.05-.47,0-.64.17l-6.26,5.71c-.44.4-1.14.12-1.19-.47l-.72-8.44c-.02-.23-.15-.44-.36-.56l-7.36-4.19c-.51-.29-.47-1.05.08-1.28l7.8-3.29c.22-.09.37-.28.42-.51l1.71-8.3c.12-.58.85-.77,1.24-.32l5.54,6.4c.15.18.39.27.62.24l8.42-.94c.59-.07,1,.57.69,1.08l-4.38,7.25c-.12.2-.14.45-.04.66l3.49,7.72c.24.54-.24,1.12-.81.99Z"/>
          <path class="cls-4" d="m155.91,12.25l-8.25-1.92c-.23-.05-.47,0-.64.17l-6.26,5.71c-.44.4-1.14.12-1.19-.47l-.72-8.44c-.02-.23-.15-.44-.36-.56l-7.36-4.19c-.51-.29-.47-1.05.08-1.28l7.8-3.29c.22-.09.37-.28.42-.51l1.71-8.3c.12-.58.85-.77,1.24-.32l5.54,6.4c.15.18.39.27.62.24l8.42-.94c.59-.07,1,.57.69,1.08l-4.38,7.25c-.12.2-.14.45-.04.66l3.49,7.72c.24.54-.24,1.12-.81.99Z"/>
          <path class="cls-20" d="m68.43,26.76l-.71-6.04c-.02-.17-.12-.31-.27-.39l-5.38-2.84c-.38-.2-.36-.74.02-.92l5.52-2.54c.15-.07.26-.21.29-.38l1.03-5.99c.07-.42.59-.57.88-.26l4.13,4.47c.11.12.28.18.45.16l6.02-.87c.42-.06.73.39.52.76l-2.97,5.3c-.08.15-.09.33-.01.48l2.69,5.46c.19.38-.14.81-.56.73l-5.96-1.19c-.17-.03-.34.02-.46.14l-4.36,4.24c-.3.3-.82.11-.87-.31Z"/>
          <path class="cls-8" d="m66.5,30.51l-.71-6.04c-.02-.17-.12-.31-.27-.39l-5.38-2.84c-.38-.2-.36-.74.02-.92l5.52-2.54c.15-.07.26-.21.29-.38l1.03-5.99c.07-.42.59-.57.88-.26l4.13,4.47c.11.12.28.18.45.16l6.02-.87c.42-.06.73.39.52.76l-2.97,5.3c-.08.15-.09.33-.01.48l2.69,5.46c.19.38-.14.81-.56.73l-5.96-1.19c-.17-.03-.34.02-.46.14l-4.36,4.24c-.3.3-.82.11-.87-.31Z"/>
          <path class="cls-20" d="m31.02,108.81l.57,4.82c.02.13.1.25.22.31l4.29,2.26c.3.16.29.59-.02.73l-4.41,2.03c-.12.06-.21.17-.23.3l-.83,4.78c-.06.33-.47.46-.7.21l-3.29-3.56c-.09-.1-.23-.15-.36-.13l-4.8.69c-.34.05-.58-.31-.42-.61l2.37-4.23c.07-.12.07-.26.01-.38l-2.14-4.35c-.15-.3.11-.65.45-.58l4.76.95c.13.03.27-.01.37-.11l3.48-3.38c.24-.24.65-.09.69.25Z"/>
          <path class="cls-5" d="m32.56,105.81l.57,4.82c.02.13.1.25.22.31l4.29,2.26c.3.16.29.59-.02.73l-4.41,2.03c-.12.06-.21.17-.23.3l-.83,4.78c-.06.33-.47.46-.7.21l-3.29-3.56c-.09-.1-.23-.15-.36-.13l-4.8.69c-.34.05-.58-.31-.42-.61l2.37-4.23c.07-.12.07-.26.01-.38l-2.14-4.35c-.15-.3.11-.65.45-.58l4.76.95c.13.03.27-.01.37-.11l3.48-3.38c.24-.24.65-.09.69.25Z"/>
          <path class="cls-20" d="m103.04,61.29l.57,4.82c.02.13.1.25.22.31l4.29,2.26c.3.16.29.59-.02.73l-4.41,2.03c-.12.06-.21.17-.23.3l-.83,4.78c-.06.33-.47.46-.7.21l-3.29-3.56c-.09-.1-.23-.15-.36-.13l-4.8.69c-.34.05-.58-.31-.42-.61l2.37-4.23c.07-.12.07-.26.01-.38l-2.14-4.35c-.15-.3.11-.65.45-.58l4.76.95c.13.03.27-.01.37-.11l3.48-3.38c.24-.24.65-.09.69.25Z"/>
          <path class="cls-5" d="m104.58,58.29l.57,4.82c.02.13.1.25.22.31l4.29,2.26c.3.16.29.59-.02.73l-4.41,2.03c-.12.06-.21.17-.23.3l-.83,4.78c-.06.33-.47.46-.7.21l-3.29-3.56c-.09-.1-.23-.15-.36-.13l-4.8.69c-.34.05-.58-.31-.42-.61l2.37-4.23c.07-.12.07-.26.01-.38l-2.14-4.35c-.15-.3.11-.65.45-.58l4.76.95c.13.03.27-.01.37-.11l3.48-3.38c.24-.24.65-.09.69.25Z"/>
          <path class="cls-20" d="m114.44,119.88l-.76-6.46c-.02-.18-.13-.34-.29-.42l-5.76-3.03c-.4-.21-.39-.79.03-.98l5.91-2.72c.16-.08.28-.23.31-.41l1.11-6.41c.08-.45.64-.61.94-.28l4.42,4.78c.12.13.3.2.48.17l6.44-.93c.45-.06.78.41.56.81l-3.18,5.68c-.09.16-.09.35-.01.51l2.87,5.84c.2.41-.15.87-.6.78l-6.38-1.27c-.18-.04-.36.02-.49.14l-4.66,4.54c-.33.32-.87.12-.93-.33Z"/>
          <path class="cls-6" d="m112.38,123.91l-.76-6.46c-.02-.18-.13-.34-.29-.42l-5.76-3.03c-.4-.21-.39-.79.03-.98l5.91-2.72c.16-.08.28-.23.31-.41l1.11-6.41c.08-.45.64-.61.94-.28l4.42,4.78c.12.13.3.2.48.17l6.44-.93c.45-.06.78.41.56.81l-3.18,5.68c-.09.16-.09.35-.01.51l2.87,5.84c.2.41-.15.87-.6.78l-6.38-1.27c-.18-.04-.36.02-.49.14l-4.66,4.54c-.33.32-.87.12-.93-.33Z"/>
          <circle class="cls-14" cx="19.47" cy="35.72" r="9.87"/>
          <circle class="cls-14" cx="115.18" cy="35.38" r="8.56"/>
          <circle class="cls-14" cx="60.49" cy="98.91" r="6.54"/>
          <path class="cls-10" d="m90.93,110.65c1.3,2.69,1.36,3.98.83,4.5-1.01.98-3.92-1.02-4.81-.03-.92,1.02,1.39,4.05.58,4.78-.76.69-3.29-1.52-4.11-.82-.89.76,1.37,3.91.41,4.98-.63.7-2.39.21-4.29-.62"/>
          <path class="cls-10" d="m16.02,77.61c3.67-1.06,5.33-.87,5.87-.09,1.02,1.48-2.13,4.73-1.07,6.07,1.09,1.38,5.42-.89,6.17.29.71,1.1-2.63,3.83-1.91,5.02.77,1.28,5.24-.9,6.38.54.75.95-.25,3.06-1.7,5.28"/>
          <path class="cls-7" d="m36.32,11.65c-.89,1.85-.94,2.74-.57,3.09.69.67,2.69-.7,3.3-.02.63.7-.95,2.78-.4,3.29.52.47,2.26-1.05,2.82-.56.61.52-.94,2.69-.28,3.42.43.48,1.64.14,2.94-.43"/>
          <path class="cls-8" d="m55.72,67.68c-1.66-3.45-1.75-5.11-1.07-5.77,1.29-1.26,5.02,1.31,6.16.04,1.18-1.31-1.78-5.19-.74-6.13.97-.88,4.21,1.95,5.27,1.05,1.14-.98-1.76-5.02-.53-6.38.81-.89,3.06-.27,5.49.8"/>
          <path class="cls-11" d="m123.85,87.16c.71-1.47.75-2.18.46-2.47-.55-.54-2.14.56-2.63.02-.5-.56.76-2.22.32-2.62-.41-.38-1.8.83-2.25.45-.49-.42.75-2.14.22-2.72-.35-.38-1.31-.11-2.35.34"/>
        </g>
      </g>
    </pattern>
    <pattern id="_Новый_узор-2" data-name="Новый узор" patternTransform="translate(927.28 168.95) scale(1.14 1.03)" xlink:href="#_Новый_узор"/>
  </defs>
  <g id="_Слой_1-2" data-name="Слой 1">
    <rect class="cls-3" width="283.46" height="170.08"/>
    <rect class="cls-25" x=".27" width="141.73" height="170.08"/>
    <rect class="cls-2" x="141.73" width="141.73" height="170.08"/>
    <text class="cls-16" transform="translate(28.95 51.69)"><tspan x="0" y="0">+7 (495) 203-96-01</tspan><tspan x="0" y="20.41">cppd</tspan><tspan class="cls-12" x="18.28" y="20.41">p</tspan><tspan x="23.25" y="20.41">-mo</tspan><tspan class="cls-17" x="37.62" y="20.41">s</tspan><tspan x="40.89" y="20.41">.ru</tspan><tspan x="0" y="30.61">cppd</tspan><tspan class="cls-12" x="18.28" y="30.61">p</tspan><tspan x="23.25" y="30.61">-mos@</tspan><tspan class="cls-22" x="47.26" y="30.61">y</tspan><tspan x="51.23" y="30.61">and</tspan><tspan class="cls-23" x="64.84" y="30.61">e</tspan><tspan x="69.08" y="30.61">x.ru</tspan><tspan x="0" y="51.02">119034, </tspan><tspan class="cls-15" x="29.74" y="51.02">г</tspan><tspan x="32.36" y="51.02">. Москва, </tspan><tspan class="cls-22" x="67.23" y="51.02">у</tspan><tspan x="71.2" y="51.02">л. </tspan><tspan x="0" y="61.23">Б</tspan><tspan class="cls-1" x="4.64" y="61.23">о</tspan><tspan x="9.35" y="61.23">льш</tspan><tspan class="cls-13" x="24.17" y="61.23">а</tspan><tspan x="28.33" y="61.23">я Пиро</tspan><tspan class="cls-19" x="54" y="61.23">г</tspan><tspan x="57.1" y="61.23">овс</tspan><tspan class="cls-18" x="69.83" y="61.23">к</tspan><tspan class="cls-21" x="73.99" y="61.23">а</tspan><tspan x="78.15" y="61.23">я, </tspan><tspan x="0" y="71.43">д.37/43</tspan></text>
  </g>
</svg>