<?xml version="1.0" encoding="UTF-8"?>
<svg id="_Слой_2" data-name="Слой 2" xmlns="http://www.w3.org/2000/svg" viewBox="0 0 220.05 103.27">
  <defs>
    <style>
      .cls-1 {
        fill: #fff;
      }
    </style>
  </defs>
  <g id="_Слой_1-2" data-name="Слой 1">
    <rect width="220.05" height="103.27"/>
    <ellipse class="cls-1" cx="44.97" cy="45.38" rx="6.69" ry="7.09" transform="translate(-13.23 19.04) rotate(-20.91)"/>
    <ellipse class="cls-1" cx="25.56" cy="46.3" rx="9.34" ry="10.56"/>
    <g>
      <path class="cls-1" d="m79.33,30.22v-8.48h1.06v7.42c.55,0,1.34-.49,2.04-1.89.68-1.38,1.14-3.33,1.14-5.53h1.06v7.42h1.84v3.18h-1.06c0-.74-.13-1.46-.34-2.12h-1.51v-3.58c-.68,2.18-1.76,3.58-3.18,3.58h-1.06Z"/>
      <path class="cls-1" d="m94.96,25.98h.61c0,2.35-1.57,4.24-4.24,4.24s-4.24-1.89-4.24-4.24,1.57-4.24,4.24-4.24c1.29,0,2.65.51,3.41,1.59l-5.34,5.34c.55.3,1.23.49,1.93.49,2.01,0,3.63-1.42,3.63-3.18Zm-7.25,0c0,.78.3,1.48.85,2.04l4.71-4.73c-.55-.3-1.23-.49-1.93-.49-2.01,0-3.63,1.42-3.63,3.18Z"/>
      <path class="cls-1" d="m97.78,30.22h-1.06v-8.48h1.06v3.18h4.24v-3.18h1.06v8.48h-1.06v-4.66l-4.24.42v4.24Z"/>
      <path class="cls-1" d="m108.46,22.57v7.65h-1.06v-7.61l-3.18.19v-1.06h7.42v.64l-3.18.19Z"/>
      <path class="cls-1" d="m113.85,21.74c2.67,0,4.24,1.42,4.24,3.18s-1.57,3.18-4.24,3.18v2.12h-1.06v-8.48h1.06Zm0,5.3c1.19,0,3.6-.57,3.6-2.12s-2.42-2.12-3.6-2.12v4.24Z"/>
      <path class="cls-1" d="m80.39,44.35h-1.06v-8.48h6.36v8.48h-1.06v-7.42h-4.24v7.42Z"/>
      <path class="cls-1" d="m86.84,40.11c0-2.48,1.72-4.24,4.24-4.24,1.29,0,2.65.51,3.41,1.59l-.64.61c-.7-.76-1.76-1.14-2.78-1.14-1.8,0-3.63,1.25-3.63,3.18s1.82,3.18,3.63,3.18c1.02,0,2.08-.38,2.78-1.14l.64.61c-.76,1.08-2.12,1.59-3.41,1.59-2.52,0-4.24-1.76-4.24-4.24Z"/>
      <path class="cls-1" d="m95.63,44.35v-8.48h1.06v7.42c.55,0,1.34-.49,2.06-1.89.68-1.36,1.12-3.31,1.12-5.53h1.06v8.48h-1.06v-3.58c-.66,2.16-1.76,3.58-3.18,3.58h-1.06Z"/>
      <path class="cls-1" d="m102.08,36.93v-1.06c2.14,0,3.63,1.04,4.24,2.54.61-1.51,2.1-2.54,4.24-2.54v1.06c-2.16,0-3.92,1.42-3.92,3.18s1.76,3.18,3.92,3.18v1.06c-2.14,0-3.63-1.04-4.24-2.54-.61,1.51-2.1,2.54-4.24,2.54v-1.06c2.16,0,3.92-1.42,3.92-3.18s-1.76-3.18-3.92-3.18Z"/>
      <path class="cls-1" d="m119.66,40.11c0,2.35-1.57,4.24-4.24,4.24s-4.24-1.89-4.24-4.24,1.57-4.24,4.24-4.24,4.24,1.89,4.24,4.24Zm-7.87,0c0,1.76,1.61,3.18,3.63,3.18s3.63-1.42,3.63-3.18-1.61-3.18-3.63-3.18-3.63,1.42-3.63,3.18Z"/>
      <path class="cls-1" d="m126.63,44.35v-7.42h-2.14c-.21,4.18-1.74,7.42-4.22,7.42v-1.12c.68,0,1.57-.51,2.35-1.89.76-1.34,1.27-3.29,1.27-5.47h3.79v8.48h-1.06Z"/>
      <path class="cls-1" d="m137.32,40.11c0,2.35-1.57,4.24-4.24,4.24s-4.24-1.89-4.24-4.24,1.57-4.24,4.24-4.24,4.24,1.89,4.24,4.24Zm-7.87,0c0,1.76,1.61,3.18,3.63,3.18s3.63-1.42,3.63-3.18-1.61-3.18-3.63-3.18-3.63,1.42-3.63,3.18Z"/>
      <path class="cls-1" d="m138.46,35.87h5.3v.64l-4.24.42v7.42h-1.06v-8.48Z"/>
      <path class="cls-1" d="m144.91,44.35v-8.48h1.06v7.42c.55,0,1.34-.49,2.06-1.89.68-1.36,1.12-3.31,1.12-5.53h1.06v8.48h-1.06v-3.58c-.66,2.16-1.76,3.58-3.18,3.58h-1.06Z"/>
      <path class="cls-1" d="m152.41,35.87c0,1.72.42,3.22,1.06,4.26.66,1.06,1.42,1.53,2.12,1.53v-5.79h1.06v8.48h-1.06v-2.12c-2.35,0-4.24-2.52-4.24-6.36h1.06Z"/>
      <path class="cls-1" d="m165.66,40.11h.61c0,2.35-1.57,4.24-4.24,4.24s-4.24-1.89-4.24-4.24,1.57-4.24,4.24-4.24c1.29,0,2.65.51,3.41,1.59l-5.34,5.34c.55.3,1.23.49,1.93.49,2.01,0,3.63-1.42,3.63-3.18Zm-7.25,0c0,.78.3,1.48.85,2.04l4.71-4.73c-.55-.3-1.23-.49-1.93-.49-2.01,0-3.63,1.42-3.63,3.18Z"/>
      <path class="cls-1" d="m166.89,40.11c0-2.48,1.72-4.24,4.24-4.24,1.29,0,2.65.51,3.41,1.59l-.64.61c-.7-.76-1.76-1.14-2.78-1.14-1.8,0-3.63,1.25-3.63,3.18s1.82,3.18,3.63,3.18c1.02,0,2.08-.38,2.78-1.14l.64.61c-.76,1.08-2.12,1.59-3.41,1.59-2.52,0-4.24-1.76-4.24-4.24Z"/>
      <path class="cls-1" d="m176.75,44.35h-1.06v-8.48h1.06v5.79c.7,0,1.46-.47,2.12-1.53.64-1.04,1.06-2.54,1.06-4.26h1.06c0,2.95-1.12,5.13-2.71,5.98,1.59.32,2.71,1.14,2.71,2.5h-1.06c0-1.46-2.01-2.12-3.18-2.12v2.12Z"/>
      <path class="cls-1" d="m190.09,40.11c0,2.35-1.57,4.24-4.24,4.24s-4.24-1.89-4.24-4.24,1.57-4.24,4.24-4.24,4.24,1.89,4.24,4.24Zm-7.87,0c0,1.76,1.61,3.18,3.63,3.18s3.63-1.42,3.63-3.18-1.61-3.18-3.63-3.18-3.63,1.42-3.63,3.18Z"/>
      <path class="cls-1" d="m192.29,35.87v7.42c.55,0,1.36-.49,2.06-1.89.7-1.38,1.12-3.33,1.12-5.53h1.08v8.48h-1.08v-3.58c-.64,2.16-1.76,3.58-3.18,3.58h-1.06v-8.48h1.06Zm.53-3.2h-1.06c0,1.57.95,2.12,2.12,2.12s2.12-.55,2.12-2.12h-1.06c0,.78-.49,1.48-1.06,1.48s-1.06-.7-1.06-1.48Z"/>
      <path class="cls-1" d="m80.39,58.49h-1.06v-8.48h6.36v8.48h-1.06v-7.42h-4.24v7.42Z"/>
      <path class="cls-1" d="m95.32,54.25c0,2.35-1.57,4.24-4.24,4.24s-4.24-1.89-4.24-4.24,1.57-4.24,4.24-4.24,4.24,1.89,4.24,4.24Zm-7.87,0c0,1.76,1.61,3.18,3.63,3.18s3.63-1.42,3.63-3.18-1.61-3.18-3.63-3.18-3.63,1.42-3.63,3.18Z"/>
      <path class="cls-1" d="m103.35,57.43h1.06v3.18h-1.06c0-.74-.13-1.44-.34-2.12h-5.68c-.21.68-.34,1.38-.34,2.12h-1.06v-3.26c.66,0,1.57-.47,2.37-1.87.78-1.38,1.23-3.26,1.23-5.47h3.82v7.42Zm-3.22-6.36c-.15,2.73-.85,5.07-1.99,6.36h4.18v-6.36h-2.18Z"/>
      <path class="cls-1" d="m112.45,57.43h1.06v3.18h-1.06c0-.74-.13-1.44-.34-2.12h-5.68c-.21.68-.34,1.38-.34,2.12h-1.06v-3.26c.66,0,1.57-.47,2.37-1.87.78-1.38,1.23-3.26,1.23-5.47h3.82v7.42Zm-3.22-6.36c-.15,2.73-.85,5.07-1.99,6.36h4.18v-6.36h-2.18Z"/>
      <path class="cls-1" d="m121.99,54.25h.61c0,2.35-1.57,4.24-4.24,4.24s-4.24-1.89-4.24-4.24,1.57-4.24,4.24-4.24c1.29,0,2.65.51,3.41,1.59l-5.34,5.34c.55.3,1.23.49,1.93.49,2.01,0,3.63-1.42,3.63-3.18Zm-7.25,0c0,.78.3,1.48.85,2.04l4.71-4.73c-.55-.3-1.23-.49-1.93-.49-2.01,0-3.63,1.42-3.63,3.18Z"/>
      <path class="cls-1" d="m124.81,50.01c2.67,0,4.24,1.42,4.24,3.18s-1.57,3.18-4.24,3.18v2.12h-1.06v-8.48h1.06Zm0,5.3c1.19,0,3.6-.57,3.6-2.12s-2.42-2.12-3.6-2.12v4.24Z"/>
      <path class="cls-1" d="m130.72,50.01c0,1.72.42,3.22,1.06,4.26.66,1.06,1.42,1.53,2.12,1.53v-5.79h1.06v5.79c.7,0,1.46-.47,2.12-1.53.64-1.04,1.06-2.54,1.06-4.26h1.06c0,2.95-1.12,5.13-2.71,5.98,1.59.32,2.71,1.14,2.71,2.5h-1.06c0-1.46-2.01-2.12-3.18-2.12v2.12h-1.06v-2.12c-1.17,0-3.18.66-3.18,2.12h-1.06c0-1.36,1.12-2.18,2.71-2.5-1.59-.85-2.71-3.03-2.71-5.98h1.06Z"/>
      <path class="cls-1" d="m141.41,58.49h-1.06v-8.48h1.06v5.79c.7,0,1.46-.47,2.12-1.53.64-1.04,1.06-2.54,1.06-4.26h1.06c0,2.95-1.12,5.13-2.71,5.98,1.59.32,2.71,1.14,2.71,2.5h-1.06c0-1.46-2.01-2.12-3.18-2.12v2.12Z"/>
      <path class="cls-1" d="m146.79,58.49v-8.48h1.06v7.42c.55,0,1.34-.49,2.06-1.89.68-1.36,1.12-3.31,1.12-5.53h1.06v8.48h-1.06v-3.58c-.66,2.16-1.76,3.58-3.18,3.58h-1.06Z"/>
      <path class="cls-1" d="m85.19,71.7h.92v2.76h-.92c0-.64-.11-1.25-.29-1.84h-4.93c-.18.59-.29,1.19-.29,1.84h-.92v-2.83c.57,0,1.36-.4,2.06-1.62.68-1.19,1.07-2.83,1.07-4.74h3.31v6.43Zm-2.79-5.51c-.13,2.37-.74,4.39-1.73,5.51h3.62v-5.51h-1.89Z"/>
      <path class="cls-1" d="m93.46,68.95h.53c0,2.04-1.36,3.68-3.68,3.68s-3.68-1.64-3.68-3.68,1.36-3.68,3.68-3.68c1.12,0,2.3.44,2.96,1.38l-4.63,4.63c.48.26,1.07.42,1.67.42,1.75,0,3.14-1.23,3.14-2.76Zm-6.29,0c0,.68.26,1.29.74,1.76l4.08-4.1c-.48-.26-1.07-.42-1.67-.42-1.75,0-3.14,1.23-3.14,2.76Z"/>
      <path class="cls-1" d="m98.2,65.99v6.63h-.92v-6.6l-2.76.17v-.92h6.43v.55l-2.76.17Z"/>
      <path class="cls-1" d="m108.31,68.95h.53c0,2.04-1.36,3.68-3.68,3.68s-3.68-1.64-3.68-3.68,1.36-3.68,3.68-3.68c1.12,0,2.3.44,2.96,1.38l-4.63,4.63c.48.26,1.07.42,1.67.42,1.75,0,3.14-1.23,3.14-2.76Zm-6.29,0c0,.68.26,1.29.74,1.76l4.08-4.1c-.48-.26-1.07-.42-1.67-.42-1.75,0-3.14,1.23-3.14,2.76Z"/>
      <path class="cls-1" d="m110.75,65.27v6.43c.48,0,1.18-.42,1.78-1.64.61-1.19.97-2.89.97-4.8h.94v7.35h-.94v-3.11c-.55,1.87-1.53,3.11-2.76,3.11h-.92v-7.35h.92Zm.46-2.78h-.92c0,1.36.83,1.84,1.84,1.84s1.84-.48,1.84-1.84h-.92c0,.68-.42,1.29-.92,1.29s-.92-.61-.92-1.29Z"/>
      <path class="cls-1" d="m125.06,72.62v-7.35h.92v6.43c.48,0,1.16-.42,1.78-1.64.59-1.18.97-2.87.97-4.8h.92v7.35h-.92v-3.11c-.57,1.87-1.53,3.11-2.76,3.11h-.92Z"/>
      <path class="cls-1" d="m141.2,72.62h-.92v-7.35h5.51v7.35h-.92v-6.43h-3.68v6.43Z"/>
      <path class="cls-1" d="m154.14,68.95c0,2.04-1.36,3.68-3.68,3.68s-3.68-1.64-3.68-3.68,1.36-3.68,3.68-3.68,3.68,1.64,3.68,3.68Zm-6.82,0c0,1.53,1.4,2.76,3.14,2.76s3.14-1.23,3.14-2.76-1.4-2.76-3.14-2.76-3.14,1.23-3.14,2.76Z"/>
      <path class="cls-1" d="m161.1,71.7h.92v2.76h-.92c0-.64-.11-1.25-.29-1.84h-4.93c-.18.59-.29,1.19-.29,1.84h-.92v-2.83c.57,0,1.36-.4,2.06-1.62.68-1.19,1.07-2.83,1.07-4.74h3.31v6.43Zm-2.79-5.51c-.13,2.37-.74,4.39-1.73,5.51h3.62v-5.51h-1.89Z"/>
      <path class="cls-1" d="m163.93,65.27c2.32,0,3.68,1.23,3.68,2.76s-1.36,2.76-3.68,2.76v1.84h-.92v-7.35h.92Zm0,4.59c1.03,0,3.12-.5,3.12-1.84s-2.1-1.84-3.12-1.84v3.68Z"/>
      <path class="cls-1" d="m175.49,68.95c0,2.04-1.36,3.68-3.68,3.68s-3.68-1.64-3.68-3.68,1.36-3.68,3.68-3.68,3.68,1.64,3.68,3.68Zm-6.82,0c0,1.53,1.4,2.76,3.14,2.76s3.14-1.23,3.14-2.76-1.4-2.76-3.14-2.76-3.14,1.23-3.14,2.76Z"/>
      <path class="cls-1" d="m176.02,68.95c0-2.15,1.49-3.68,3.68-3.68,1.12,0,2.3.44,2.96,1.38l-.55.53c-.61-.66-1.53-.99-2.41-.99-1.56,0-3.14,1.08-3.14,2.76s1.58,2.76,3.14,2.76c.88,0,1.8-.33,2.41-.99l.55.53c-.66.94-1.84,1.38-2.96,1.38-2.19,0-3.68-1.53-3.68-3.68Z"/>
      <path class="cls-1" d="m186.86,65.99v6.63h-.92v-6.6l-2.76.17v-.92h6.43v.55l-2.76.17Z"/>
      <path class="cls-1" d="m191.53,72.62h-.92v-7.35h.92v5.02c.61,0,1.27-.4,1.84-1.32.55-.9.92-2.21.92-3.69h.92c0,2.55-.97,4.45-2.35,5.18,1.38.28,2.35.99,2.35,2.17h-.92c0-1.27-1.75-1.84-2.76-1.84v1.84Z"/>
      <path class="cls-1" d="m203.09,68.95c0,2.04-1.36,3.68-3.68,3.68s-3.68-1.64-3.68-3.68,1.36-3.68,3.68-3.68,3.68,1.64,3.68,3.68Zm-6.82,0c0,1.53,1.4,2.76,3.14,2.76s3.14-1.23,3.14-2.76-1.4-2.76-3.14-2.76-3.14,1.23-3.14,2.76Z"/>
      <path class="cls-1" d="m204.08,65.27h.92c1.82,0,2.76.83,2.76,1.84,0,.5-.22.94-.66,1.27,1.01.4,1.58,1.14,1.58,1.95,0,1.27-1.36,2.3-3.68,2.3h-.92v-7.35Zm.92,2.76c.72,0,1.34-.17,1.73-.39.4-.22.48-.42.48-.53s-.07-.31-.48-.53c-.39-.22-1.01-.39-1.73-.39v1.84Zm0,3.68c.99,0,1.86-.22,2.41-.53.59-.33.74-.64.74-.85s-.15-.51-.74-.85c-.55-.31-1.42-.53-2.41-.53v2.76Z"/>
    </g>
    <path class="cls-1" d="m29.83,10.6c-.12-.04-.26-.09-.25-.13.05-.29,11.28-.66,20.37,3.49,16.69,7.64,20.21,27.83,20.49,29.6.85,4.16,1.47,10.25-.16,17.14-3.92,16.52-18.32,27.15-18.61,26.91-.02-.02.03-.13.06-.17,2.5-3.4,5.11-8.11,7.39-13.92,3.21-8.18,5.43-19.31,1.45-31.63,0,0-7.65-25.11-30.72-31.3Z"/>
    <path class="cls-1" d="m16.81,42.45c.13-1.49.44-3.6,1.27-5.99,2.68-7.65,8.79-12.5,8.23-13.09-.09-.09-.35-.09-1.11.34,0,0,0,0,0,0,.01.03-22.58,10.48-12.32,43.69.03.04.14.33.36.81,5.62,12.41,16.55,18.31,17.8,18.96,8.69,4.57,17.48,4.91,17.54,4.66.02-.06-.39-.22-.75-.34-4.08-1.49-9.37-4.28-14.86-8.71-7.55-6.08-15.32-15.6-16.24-29.37.03-.47.11-.6.19-.62.46-.1,1.71,3.63,1.71,3.63.85,3.59,2.47,8.59,5.81,13.75,8.23,12.7,23.23,20.75,25.08,18.82.12-.13.22-.33.22-.68,0,0,0,0,0,0,.07,0,1.42-17.44-5.07-26.54,4.08-1.19,9.77-3.7,13.77-9.11,5.81-7.86,5.69-18.63,5.35-18.71-.07-.02-.21.36-.34.73-.02.07-.04.17-.07.28-.68,2.67-6.48,23.23-29.03,18.56-.05-.01-.13-.02-.23-.02-.82.04-1.36,1.2-1.6,1.62-1.02,1.78-3.77,2.23-4.98,2.43-2.68.44-4.61-.48-5.14-.97-.08-.07-.46-.43-.4-.52.04-.06.26.09.36.05.61-.23-.23-7.93-5.34-13.46-.09-.1-.17-.18-.2-.21Z"/>
    <path class="cls-1" d="m38.81,22.45l-1.73-.4s-.1,0-.13.04l-1.31,1.2c-.09.08-.24.03-.25-.1l-.15-1.77s-.03-.09-.08-.12l-1.54-.88c-.11-.06-.1-.22.02-.27l1.64-.69s.08-.06.09-.11l.36-1.74c.03-.12.18-.16.26-.07l1.16,1.34s.08.06.13.05l1.76-.2c.12-.01.21.12.14.23l-.92,1.52s-.03.09,0,.14l.73,1.62c.05.11-.05.24-.17.21Z"/>
    <path class="cls-1" d="m46.83,27.14l-1.73-.4s-.1,0-.13.04l-1.31,1.2c-.09.08-.24.03-.25-.1l-.15-1.77s-.03-.09-.08-.12l-1.54-.88c-.11-.06-.1-.22.02-.27l1.64-.69s.08-.06.09-.11l.36-1.74c.03-.12.18-.16.26-.07l1.16,1.34s.08.06.13.05l1.76-.2c.12-.01.21.12.14.23l-.92,1.52s-.03.09,0,.14l.73,1.62c.05.11-.05.24-.17.21Z"/>
    <path class="cls-1" d="m43.56,33.64l-1.41-.33s-.08,0-.11.03l-1.07.98c-.08.07-.2.02-.2-.08l-.12-1.45s-.03-.08-.06-.1l-1.26-.72c-.09-.05-.08-.18.01-.22l1.34-.57s.06-.05.07-.09l.29-1.42c.02-.1.15-.13.21-.06l.95,1.1s.07.05.11.04l1.44-.16c.1-.01.17.1.12.19l-.75,1.24s-.02.08,0,.11l.6,1.32c.04.09-.04.19-.14.17Z"/>
    <path class="cls-1" d="m37.26,30.48l-1.16-.27s-.07,0-.09.02l-.88.8c-.06.06-.16.02-.17-.07l-.1-1.18s-.02-.06-.05-.08l-1.03-.59c-.07-.04-.07-.15.01-.18l1.1-.46s.05-.04.06-.07l.24-1.16c.02-.08.12-.11.17-.05l.78.9s.05.04.09.03l1.18-.13c.08,0,.14.08.1.15l-.61,1.02s-.02.06,0,.09l.49,1.08c.03.08-.03.16-.11.14Z"/>
    <path class="cls-1" d="m32.3,27.07l-1.41-.33s-.08,0-.11.03l-1.07.98c-.08.07-.2.02-.2-.08l-.12-1.45s-.03-.08-.06-.1l-1.26-.72c-.09-.05-.08-.18.01-.22l1.34-.57s.06-.05.07-.09l.29-1.42c.02-.1.15-.13.21-.06l.95,1.1s.07.05.11.04l1.44-.16c.1-.01.17.1.12.19l-.75,1.24s-.02.08,0,.11l.6,1.32c.04.09-.04.19-.14.17Z"/>
  </g>
</svg>