<?xml version="1.0" encoding="UTF-8"?>
<svg id="_Слой_2" data-name="Слой 2" xmlns="http://www.w3.org/2000/svg" viewBox="0 0 218.81 102.69">
  <defs>
    <style>
      .cls-1 {
        fill: #fff;
      }

      .cls-2 {
        fill: #919293;
      }
    </style>
  </defs>
  <g id="_Слой_1-2" data-name="Слой 1">
    <rect class="cls-2" width="218.81" height="102.69"/>
    <ellipse class="cls-1" cx="44.72" cy="45.13" rx="6.65" ry="7.05" transform="translate(-13.16 18.93) rotate(-20.91)"/>
    <ellipse class="cls-1" cx="25.42" cy="46.04" rx="9.29" ry="10.5"/>
    <g>
      <path class="cls-1" d="m78.88,30.05v-8.43h1.05v7.38c.55,0,1.33-.48,2.02-1.88.67-1.37,1.14-3.31,1.14-5.5h1.05v7.38h1.83v3.16h-1.05c0-.74-.13-1.45-.34-2.11h-1.5v-3.56c-.67,2.17-1.75,3.56-3.16,3.56h-1.05Z"/>
      <path class="cls-1" d="m94.42,25.83h.61c0,2.34-1.56,4.22-4.22,4.22s-4.22-1.88-4.22-4.22,1.56-4.22,4.22-4.22c1.29,0,2.64.51,3.39,1.58l-5.31,5.31c.55.29,1.22.48,1.92.48,2,0,3.6-1.41,3.6-3.16Zm-7.21,0c0,.78.3,1.48.84,2.02l4.68-4.7c-.55-.3-1.22-.48-1.92-.48-2,0-3.6,1.41-3.6,3.16Z"/>
      <path class="cls-1" d="m97.22,30.05h-1.05v-8.43h1.05v3.16h4.22v-3.16h1.05v8.43h-1.05v-4.64l-4.22.42v4.22Z"/>
      <path class="cls-1" d="m107.85,22.44v7.61h-1.05v-7.57l-3.16.19v-1.05h7.38v.63l-3.16.19Z"/>
      <path class="cls-1" d="m113.21,21.62c2.66,0,4.22,1.41,4.22,3.16s-1.56,3.16-4.22,3.16v2.11h-1.05v-8.43h1.05Zm0,5.27c1.18,0,3.58-.57,3.58-2.11s-2.4-2.11-3.58-2.11v4.22Z"/>
      <path class="cls-1" d="m79.94,44.1h-1.05v-8.43h6.32v8.43h-1.05v-7.38h-4.22v7.38Z"/>
      <path class="cls-1" d="m86.35,39.89c0-2.47,1.71-4.22,4.22-4.22,1.29,0,2.64.51,3.39,1.58l-.63.61c-.7-.76-1.75-1.14-2.76-1.14-1.79,0-3.6,1.24-3.6,3.16s1.81,3.16,3.6,3.16c1.01,0,2.07-.38,2.76-1.14l.63.61c-.76,1.07-2.11,1.58-3.39,1.58-2.51,0-4.22-1.75-4.22-4.22Z"/>
      <path class="cls-1" d="m95.1,44.1v-8.43h1.05v7.38c.55,0,1.33-.48,2.04-1.88.67-1.35,1.12-3.29,1.12-5.5h1.05v8.43h-1.05v-3.56c-.65,2.15-1.75,3.56-3.16,3.56h-1.05Z"/>
      <path class="cls-1" d="m101.5,36.72v-1.05c2.13,0,3.6,1.03,4.22,2.53.61-1.5,2.09-2.53,4.22-2.53v1.05c-2.15,0-3.9,1.41-3.9,3.16s1.75,3.16,3.9,3.16v1.05c-2.13,0-3.6-1.03-4.22-2.53-.61,1.5-2.09,2.53-4.22,2.53v-1.05c2.15,0,3.9-1.41,3.9-3.16s-1.75-3.16-3.9-3.16Z"/>
      <path class="cls-1" d="m118.98,39.89c0,2.34-1.56,4.22-4.22,4.22s-4.22-1.88-4.22-4.22,1.56-4.22,4.22-4.22,4.22,1.88,4.22,4.22Zm-7.82,0c0,1.75,1.6,3.16,3.6,3.16s3.6-1.41,3.6-3.16-1.6-3.16-3.6-3.16-3.6,1.41-3.6,3.16Z"/>
      <path class="cls-1" d="m125.92,44.1v-7.38h-2.13c-.21,4.15-1.73,7.38-4.2,7.38v-1.12c.67,0,1.56-.51,2.34-1.88.76-1.33,1.26-3.27,1.26-5.44h3.77v8.43h-1.05Z"/>
      <path class="cls-1" d="m136.54,39.89c0,2.34-1.56,4.22-4.22,4.22s-4.22-1.88-4.22-4.22,1.56-4.22,4.22-4.22,4.22,1.88,4.22,4.22Zm-7.82,0c0,1.75,1.6,3.16,3.6,3.16s3.6-1.41,3.6-3.16-1.6-3.16-3.6-3.16-3.6,1.41-3.6,3.16Z"/>
      <path class="cls-1" d="m137.68,35.67h5.27v.63l-4.22.42v7.38h-1.05v-8.43Z"/>
      <path class="cls-1" d="m144.09,44.1v-8.43h1.05v7.38c.55,0,1.33-.48,2.04-1.88.67-1.35,1.12-3.29,1.12-5.5h1.05v8.43h-1.05v-3.56c-.65,2.15-1.75,3.56-3.16,3.56h-1.05Z"/>
      <path class="cls-1" d="m151.55,35.67c0,1.71.42,3.2,1.05,4.24.65,1.05,1.41,1.52,2.11,1.52v-5.76h1.05v8.43h-1.05v-2.11c-2.34,0-4.22-2.51-4.22-6.32h1.05Z"/>
      <path class="cls-1" d="m164.73,39.89h.61c0,2.34-1.56,4.22-4.22,4.22s-4.22-1.88-4.22-4.22,1.56-4.22,4.22-4.22c1.29,0,2.64.51,3.39,1.58l-5.31,5.31c.55.29,1.22.48,1.92.48,2,0,3.6-1.41,3.6-3.16Zm-7.21,0c0,.78.3,1.48.84,2.02l4.68-4.7c-.55-.3-1.22-.48-1.92-.48-2,0-3.6,1.41-3.6,3.16Z"/>
      <path class="cls-1" d="m165.95,39.89c0-2.47,1.71-4.22,4.22-4.22,1.29,0,2.64.51,3.39,1.58l-.63.61c-.7-.76-1.75-1.14-2.76-1.14-1.79,0-3.6,1.24-3.6,3.16s1.81,3.16,3.6,3.16c1.01,0,2.07-.38,2.76-1.14l.63.61c-.76,1.07-2.11,1.58-3.39,1.58-2.51,0-4.22-1.75-4.22-4.22Z"/>
      <path class="cls-1" d="m175.76,44.1h-1.05v-8.43h1.05v5.76c.7,0,1.45-.46,2.11-1.52.63-1.03,1.05-2.53,1.05-4.24h1.05c0,2.93-1.12,5.1-2.7,5.94,1.58.32,2.7,1.14,2.7,2.49h-1.05c0-1.45-2-2.11-3.16-2.11v2.11Z"/>
      <path class="cls-1" d="m189.02,39.89c0,2.34-1.56,4.22-4.22,4.22s-4.22-1.88-4.22-4.22,1.56-4.22,4.22-4.22,4.22,1.88,4.22,4.22Zm-7.82,0c0,1.75,1.6,3.16,3.6,3.16s3.6-1.41,3.6-3.16-1.6-3.16-3.6-3.16-3.6,1.41-3.6,3.16Z"/>
      <path class="cls-1" d="m191.21,35.67v7.38c.55,0,1.35-.48,2.04-1.88.7-1.37,1.12-3.31,1.12-5.5h1.07v8.43h-1.07v-3.56c-.63,2.15-1.75,3.56-3.16,3.56h-1.05v-8.43h1.05Zm.53-3.18h-1.05c0,1.56.95,2.11,2.11,2.11s2.11-.55,2.11-2.11h-1.05c0,.78-.48,1.48-1.05,1.48s-1.05-.7-1.05-1.48Z"/>
      <path class="cls-1" d="m79.94,58.16h-1.05v-8.43h6.32v8.43h-1.05v-7.38h-4.22v7.38Z"/>
      <path class="cls-1" d="m94.78,53.94c0,2.34-1.56,4.22-4.22,4.22s-4.22-1.88-4.22-4.22,1.56-4.22,4.22-4.22,4.22,1.88,4.22,4.22Zm-7.82,0c0,1.75,1.6,3.16,3.6,3.16s3.6-1.41,3.6-3.16-1.6-3.16-3.6-3.16-3.6,1.41-3.6,3.16Z"/>
      <path class="cls-1" d="m102.77,57.1h1.05v3.16h-1.05c0-.74-.13-1.43-.34-2.11h-5.65c-.21.67-.34,1.37-.34,2.11h-1.05v-3.25c.65,0,1.56-.46,2.36-1.85.78-1.37,1.22-3.25,1.22-5.44h3.79v7.38Zm-3.2-6.32c-.15,2.72-.84,5.04-1.98,6.32h4.15v-6.32h-2.17Z"/>
      <path class="cls-1" d="m111.81,57.1h1.05v3.16h-1.05c0-.74-.13-1.43-.34-2.11h-5.65c-.21.67-.34,1.37-.34,2.11h-1.05v-3.25c.65,0,1.56-.46,2.36-1.85.78-1.37,1.22-3.25,1.22-5.44h3.79v7.38Zm-3.2-6.32c-.15,2.72-.84,5.04-1.98,6.32h4.15v-6.32h-2.17Z"/>
      <path class="cls-1" d="m121.3,53.94h.61c0,2.34-1.56,4.22-4.22,4.22s-4.22-1.88-4.22-4.22,1.56-4.22,4.22-4.22c1.29,0,2.64.51,3.39,1.58l-5.31,5.31c.55.29,1.22.48,1.92.48,2,0,3.6-1.41,3.6-3.16Zm-7.21,0c0,.78.3,1.48.84,2.02l4.68-4.7c-.55-.3-1.22-.48-1.92-.48-2,0-3.6,1.41-3.6,3.16Z"/>
      <path class="cls-1" d="m124.1,49.73c2.66,0,4.22,1.41,4.22,3.16s-1.56,3.16-4.22,3.16v2.11h-1.05v-8.43h1.05Zm0,5.27c1.18,0,3.58-.57,3.58-2.11s-2.4-2.11-3.58-2.11v4.22Z"/>
      <path class="cls-1" d="m129.99,49.73c0,1.71.42,3.2,1.05,4.24.65,1.05,1.41,1.52,2.11,1.52v-5.76h1.05v5.76c.7,0,1.45-.46,2.11-1.52.63-1.03,1.05-2.53,1.05-4.24h1.05c0,2.93-1.12,5.1-2.7,5.94,1.58.32,2.7,1.14,2.7,2.49h-1.05c0-1.45-2-2.11-3.16-2.11v2.11h-1.05v-2.11c-1.16,0-3.16.65-3.16,2.11h-1.05c0-1.35,1.12-2.17,2.7-2.49-1.58-.84-2.7-3.01-2.7-5.94h1.05Z"/>
      <path class="cls-1" d="m140.61,58.16h-1.05v-8.43h1.05v5.76c.7,0,1.45-.46,2.11-1.52.63-1.03,1.05-2.53,1.05-4.24h1.05c0,2.93-1.12,5.1-2.7,5.94,1.58.32,2.7,1.14,2.7,2.49h-1.05c0-1.45-2-2.11-3.16-2.11v2.11Z"/>
      <path class="cls-1" d="m145.97,58.16v-8.43h1.05v7.38c.55,0,1.33-.48,2.04-1.88.67-1.35,1.12-3.29,1.12-5.5h1.05v8.43h-1.05v-3.56c-.65,2.15-1.75,3.56-3.16,3.56h-1.05Z"/>
      <path class="cls-1" d="m84.71,71.3h.91v2.74h-.91c0-.64-.11-1.24-.29-1.83h-4.9c-.18.58-.29,1.19-.29,1.83h-.91v-2.81c.57,0,1.35-.4,2.05-1.61.68-1.19,1.06-2.81,1.06-4.71h3.29v6.4Zm-2.78-5.48c-.13,2.36-.73,4.37-1.72,5.48h3.6v-5.48h-1.88Z"/>
      <path class="cls-1" d="m92.93,68.56h.53c0,2.03-1.35,3.65-3.65,3.65s-3.65-1.63-3.65-3.65,1.35-3.65,3.65-3.65c1.11,0,2.28.44,2.94,1.37l-4.61,4.61c.48.26,1.06.42,1.66.42,1.74,0,3.12-1.22,3.12-2.74Zm-6.25,0c0,.68.26,1.28.73,1.75l4.06-4.08c-.48-.26-1.06-.42-1.66-.42-1.74,0-3.13,1.22-3.13,2.74Z"/>
      <path class="cls-1" d="m97.65,65.62v6.6h-.91v-6.56l-2.74.16v-.91h6.4v.55l-2.74.16Z"/>
      <path class="cls-1" d="m107.7,68.56h.53c0,2.03-1.35,3.65-3.65,3.65s-3.65-1.63-3.65-3.65,1.35-3.65,3.65-3.65c1.11,0,2.28.44,2.94,1.37l-4.61,4.61c.48.26,1.06.42,1.66.42,1.74,0,3.12-1.22,3.12-2.74Zm-6.25,0c0,.68.26,1.28.73,1.75l4.06-4.08c-.48-.26-1.06-.42-1.66-.42-1.74,0-3.13,1.22-3.13,2.74Z"/>
      <path class="cls-1" d="m110.13,64.9v6.4c.47,0,1.17-.42,1.77-1.63.6-1.19.97-2.87.97-4.77h.93v7.31h-.93v-3.09c-.55,1.86-1.52,3.09-2.74,3.09h-.91v-7.31h.91Zm.46-2.76h-.91c0,1.35.82,1.83,1.83,1.83s1.83-.48,1.83-1.83h-.91c0,.68-.42,1.28-.91,1.28s-.91-.6-.91-1.28Z"/>
      <path class="cls-1" d="m124.36,72.21v-7.31h.91v6.4c.47,0,1.15-.42,1.77-1.63.58-1.17.97-2.85.97-4.77h.91v7.31h-.91v-3.09c-.57,1.86-1.52,3.09-2.74,3.09h-.91Z"/>
      <path class="cls-1" d="m140.4,72.21h-.91v-7.31h5.48v7.31h-.91v-6.4h-3.65v6.4Z"/>
      <path class="cls-1" d="m153.27,68.56c0,2.03-1.35,3.65-3.65,3.65s-3.65-1.63-3.65-3.65,1.35-3.65,3.65-3.65,3.65,1.63,3.65,3.65Zm-6.78,0c0,1.52,1.39,2.74,3.12,2.74s3.12-1.22,3.12-2.74-1.39-2.74-3.12-2.74-3.12,1.22-3.12,2.74Z"/>
      <path class="cls-1" d="m160.19,71.3h.91v2.74h-.91c0-.64-.11-1.24-.29-1.83h-4.9c-.18.58-.29,1.19-.29,1.83h-.91v-2.81c.57,0,1.35-.4,2.05-1.61.68-1.19,1.06-2.81,1.06-4.71h3.29v6.4Zm-2.78-5.48c-.13,2.36-.73,4.37-1.72,5.48h3.6v-5.48h-1.88Z"/>
      <path class="cls-1" d="m163,64.9c2.3,0,3.65,1.22,3.65,2.74s-1.35,2.74-3.65,2.74v1.83h-.91v-7.31h.91Zm0,4.57c1.02,0,3.11-.49,3.11-1.83s-2.08-1.83-3.11-1.83v3.65Z"/>
      <path class="cls-1" d="m174.5,68.56c0,2.03-1.35,3.65-3.65,3.65s-3.65-1.63-3.65-3.65,1.35-3.65,3.65-3.65,3.65,1.63,3.65,3.65Zm-6.78,0c0,1.52,1.39,2.74,3.13,2.74s3.12-1.22,3.12-2.74-1.39-2.74-3.12-2.74-3.13,1.22-3.13,2.74Z"/>
      <path class="cls-1" d="m175.03,68.56c0-2.14,1.48-3.65,3.65-3.65,1.11,0,2.28.44,2.94,1.37l-.55.53c-.6-.66-1.52-.99-2.39-.99-1.55,0-3.12,1.08-3.12,2.74s1.57,2.74,3.12,2.74c.88,0,1.79-.33,2.39-.99l.55.53c-.66.93-1.83,1.37-2.94,1.37-2.17,0-3.65-1.52-3.65-3.65Z"/>
      <path class="cls-1" d="m185.81,65.62v6.6h-.91v-6.56l-2.74.16v-.91h6.4v.55l-2.74.16Z"/>
      <path class="cls-1" d="m190.45,72.21h-.91v-7.31h.91v4.99c.6,0,1.26-.4,1.83-1.32.55-.9.91-2.19.91-3.67h.91c0,2.54-.97,4.42-2.34,5.15,1.37.27,2.34.99,2.34,2.16h-.91c0-1.26-1.74-1.83-2.74-1.83v1.83Z"/>
      <path class="cls-1" d="m201.94,68.56c0,2.03-1.35,3.65-3.65,3.65s-3.65-1.63-3.65-3.65,1.35-3.65,3.65-3.65,3.65,1.63,3.65,3.65Zm-6.78,0c0,1.52,1.39,2.74,3.13,2.74s3.12-1.22,3.12-2.74-1.39-2.74-3.12-2.74-3.13,1.22-3.13,2.74Z"/>
      <path class="cls-1" d="m202.93,64.9h.91c1.81,0,2.74.82,2.74,1.83,0,.49-.22.93-.66,1.26,1.01.4,1.57,1.13,1.57,1.94,0,1.26-1.35,2.28-3.65,2.28h-.91v-7.31Zm.91,2.74c.71,0,1.33-.16,1.72-.38.4-.22.48-.42.48-.53s-.07-.31-.48-.53c-.38-.22-1.01-.38-1.72-.38v1.83Zm0,3.65c.99,0,1.85-.22,2.39-.53.58-.33.73-.64.73-.84s-.15-.51-.73-.84c-.55-.31-1.41-.53-2.39-.53v2.74Z"/>
    </g>
    <path class="cls-1" d="m29.66,10.54c-.12-.04-.26-.09-.25-.13.05-.29,11.22-.66,20.25,3.48,16.6,7.59,20.09,27.67,20.37,29.43.85,4.14,1.46,10.19-.16,17.05-3.9,16.43-18.22,27-18.51,26.76-.02-.02.03-.13.06-.17,2.49-3.38,5.08-8.07,7.35-13.84,3.19-8.13,5.4-19.2,1.44-31.45,0,0-7.61-24.96-30.55-31.12Z"/>
    <path class="cls-1" d="m16.72,42.21c.13-1.48.43-3.58,1.26-5.95,2.66-7.61,8.74-12.43,8.19-13.02-.09-.09-.35-.09-1.1.34,0,0,0,0,0,0,.01.03-22.46,10.42-12.25,43.45.03.04.14.33.36.8,5.58,12.34,16.46,18.2,17.7,18.86,8.64,4.55,17.38,4.88,17.45,4.63.02-.06-.39-.21-.74-.34-4.05-1.49-9.31-4.26-14.78-8.66-7.5-6.04-15.24-15.51-16.15-29.2.03-.46.11-.6.18-.61.46-.1,1.7,3.61,1.7,3.61.84,3.57,2.45,8.54,5.78,13.67,8.18,12.63,23.1,20.63,24.94,18.72.12-.12.22-.33.22-.68,0,0,0,0,0,0,.07,0,1.41-17.34-5.05-26.39,4.06-1.19,9.72-3.68,13.69-9.06,5.78-7.81,5.66-18.53,5.32-18.61-.07-.02-.21.36-.34.72-.02.07-.04.16-.07.28-.68,2.66-6.44,23.1-28.87,18.45-.05-.01-.13-.02-.23-.02-.82.04-1.35,1.2-1.59,1.61-1.02,1.77-3.75,2.22-4.95,2.41-2.66.44-4.59-.47-5.11-.96-.08-.07-.46-.43-.4-.52.04-.06.26.09.36.05.61-.22-.23-7.89-5.31-13.38-.09-.1-.17-.18-.2-.21Z"/>
    <path class="cls-1" d="m38.59,22.33l-1.72-.4s-.1,0-.13.03l-1.3,1.19c-.09.08-.24.03-.25-.1l-.15-1.76s-.03-.09-.07-.12l-1.53-.87c-.11-.06-.1-.22.02-.27l1.63-.69s.08-.06.09-.11l.36-1.73c.02-.12.18-.16.26-.07l1.16,1.33s.08.06.13.05l1.75-.2c.12-.01.21.12.14.22l-.91,1.51s-.03.09,0,.14l.73,1.61c.05.11-.05.23-.17.21Z"/>
    <path class="cls-1" d="m46.56,26.98l-1.72-.4s-.1,0-.13.03l-1.3,1.19c-.09.08-.24.03-.25-.1l-.15-1.76s-.03-.09-.07-.12l-1.53-.87c-.11-.06-.1-.22.02-.27l1.63-.69s.08-.06.09-.11l.36-1.73c.02-.12.18-.16.26-.07l1.16,1.33s.08.06.13.05l1.75-.2c.12-.01.21.12.14.22l-.91,1.51s-.03.09,0,.14l.73,1.61c.05.11-.05.23-.17.21Z"/>
    <path class="cls-1" d="m43.31,33.45l-1.41-.33s-.08,0-.11.03l-1.07.97c-.07.07-.19.02-.2-.08l-.12-1.44s-.03-.08-.06-.1l-1.26-.71c-.09-.05-.08-.18.01-.22l1.33-.56s.06-.05.07-.09l.29-1.41c.02-.1.15-.13.21-.06l.95,1.09s.07.05.11.04l1.44-.16c.1-.01.17.1.12.18l-.75,1.24s-.02.08,0,.11l.6,1.32c.04.09-.04.19-.14.17Z"/>
    <path class="cls-1" d="m37.05,30.3l-1.15-.27s-.07,0-.09.02l-.87.8c-.06.06-.16.02-.17-.07l-.1-1.18s-.02-.06-.05-.08l-1.03-.58c-.07-.04-.07-.15.01-.18l1.09-.46s.05-.04.06-.07l.24-1.16c.02-.08.12-.11.17-.05l.77.89s.05.04.09.03l1.17-.13c.08,0,.14.08.1.15l-.61,1.01s-.02.06,0,.09l.49,1.08c.03.08-.03.16-.11.14Z"/>
    <path class="cls-1" d="m32.11,26.92l-1.41-.33s-.08,0-.11.03l-1.07.97c-.07.07-.19.02-.2-.08l-.12-1.44s-.03-.08-.06-.1l-1.26-.71c-.09-.05-.08-.18.01-.22l1.33-.56s.06-.05.07-.09l.29-1.41c.02-.1.15-.13.21-.06l.95,1.09s.07.05.11.04l1.44-.16c.1-.01.17.1.12.18l-.75,1.24s-.02.08,0,.11l.6,1.32c.04.09-.04.19-.14.17Z"/>
  </g>
</svg>