<?xml version="1.0" encoding="UTF-8"?>
<svg id="_Слой_2" data-name="Слой 2" xmlns="http://www.w3.org/2000/svg" viewBox="0 0 283.46 170.08">
  <defs>
    <style>
      .cls-1 {
        letter-spacing: 0em;
      }

      .cls-1, .cls-2 {
        font-size: 16.5px;
      }

      .cls-3, .cls-4 {
        fill: #275ba7;
      }

      .cls-5 {
        fill: #ecf7fd;
      }

      .cls-6 {
        font-size: 19.04px;
        letter-spacing: 0em;
      }

      .cls-4 {
        font-family: Horovod-Regular, Horovod;
      }

      .cls-7 {
        fill: #fccb00;
      }

      .cls-2 {
        letter-spacing: 0em;
      }

      .cls-8 {
        fill: #f59e2d;
      }
    </style>
  </defs>
  <g id="_Слой_1-2" data-name="Слой 1">
    <rect class="cls-5" width="283.46" height="170.08"/>
    <g>
      <ellipse class="cls-3" cx="82.79" cy="79.91" rx="6" ry="6.37" transform="translate(-23.06 34.81) rotate(-20.91)"/>
      <ellipse class="cls-3" cx="65.37" cy="80.73" rx="8.39" ry="9.49"/>
      <text class="cls-4" transform="translate(112.89 66.29)"><tspan class="cls-6"><tspan x="0" y="0">центр </tspan></tspan><tspan class="cls-6"><tspan x="0" y="12.69">психологической </tspan></tspan><tspan class="cls-6" x="0" y="25.39">поддержки</tspan><tspan class="cls-1" x="66.85" y="25.39"> </tspan><tspan class="cls-2"><tspan x="0" y="38.08">детей и подростков </tspan></tspan></text>
      <path class="cls-8" d="m69.19,48.67c-.11-.04-.23-.08-.23-.11.05-.26,10.13-.59,18.29,3.14,14.99,6.86,18.15,24.99,18.4,26.58.76,3.73,1.32,9.2-.15,15.39-3.52,14.84-16.45,24.38-16.71,24.17-.02-.02.03-.12.05-.16,2.25-3.06,4.59-7.28,6.64-12.5,2.88-7.34,4.87-17.34,1.3-28.4,0,0-6.87-22.55-27.59-28.1Z"/>
      <path class="cls-3" d="m57.51,77.27c.11-1.34.39-3.24,1.14-5.37,2.4-6.87,7.89-11.23,7.39-11.76-.08-.08-.31-.08-1,.31,0,0,0,0,0,0,.01.03-20.28,9.41-11.06,39.24.02.04.13.3.32.72,5.04,11.15,14.87,16.44,15.98,17.03,7.8,4.11,15.69,4.41,15.76,4.18.01-.05-.35-.19-.67-.31-3.66-1.34-8.41-3.85-13.35-7.82-6.78-5.46-13.76-14-14.59-26.37.02-.42.1-.54.17-.55.41-.09,1.54,3.26,1.54,3.26.76,3.22,2.22,7.71,5.22,12.35,7.39,11.41,20.86,18.63,22.52,16.9.11-.11.2-.3.19-.61,0,0,0,0,0,0,.06,0,1.27-15.66-4.56-23.83,3.66-1.07,8.78-3.32,12.37-8.18,5.22-7.06,5.11-16.73,4.81-16.8-.06-.01-.19.32-.3.65-.01.06-.04.15-.06.25-.61,2.4-5.82,20.86-26.07,16.67-.05-.01-.12-.02-.21-.02-.74.03-1.22,1.08-1.44,1.45-.92,1.6-3.39,2-4.47,2.18-2.41.39-4.14-.43-4.62-.87-.07-.06-.42-.39-.36-.47.04-.06.23.08.32.05.55-.2-.21-7.13-4.8-12.08-.08-.09-.15-.16-.18-.19Z"/>
      <path class="cls-7" d="m77.26,59.31l-1.55-.36s-.09,0-.12.03l-1.18,1.07c-.08.08-.22.02-.22-.09l-.14-1.59s-.03-.08-.07-.11l-1.39-.79c-.1-.06-.09-.2.01-.24l1.47-.62s.07-.05.08-.1l.32-1.56c.02-.11.16-.15.23-.06l1.04,1.2s.07.05.12.05l1.58-.18c.11-.01.19.11.13.2l-.82,1.36s-.03.08,0,.12l.66,1.45c.05.1-.04.21-.15.19Z"/>
      <path class="cls-7" d="m84.46,63.52l-1.55-.36s-.09,0-.12.03l-1.18,1.07c-.08.08-.22.02-.22-.09l-.14-1.59s-.03-.08-.07-.11l-1.39-.79c-.1-.06-.09-.2.01-.24l1.47-.62s.07-.05.08-.1l.32-1.56c.02-.11.16-.15.23-.06l1.04,1.2s.07.05.12.05l1.58-.18c.11-.01.19.11.13.2l-.82,1.36s-.03.08,0,.12l.66,1.45c.05.1-.04.21-.15.19Z"/>
      <path class="cls-7" d="m81.53,69.36l-1.27-.3s-.07,0-.1.03l-.96.88c-.07.06-.18.02-.18-.07l-.11-1.3s-.02-.07-.06-.09l-1.13-.65c-.08-.05-.07-.16.01-.2l1.2-.51s.06-.04.06-.08l.26-1.28c.02-.09.13-.12.19-.05l.85.99s.06.04.1.04l1.3-.14c.09-.01.15.09.11.17l-.67,1.12s-.02.07,0,.1l.54,1.19c.04.08-.04.17-.13.15Z"/>
      <path class="cls-7" d="m75.87,66.52l-1.04-.24s-.06,0-.08.02l-.79.72c-.06.05-.14.02-.15-.06l-.09-1.06s-.02-.06-.05-.07l-.93-.53c-.06-.04-.06-.13,0-.16l.98-.42s.05-.04.05-.06l.22-1.05c.02-.07.11-.1.16-.04l.7.81s.05.03.08.03l1.06-.12c.07,0,.13.07.09.14l-.55.91s-.02.06,0,.08l.44.97c.03.07-.03.14-.1.12Z"/>
      <path class="cls-7" d="m71.41,63.46l-1.27-.3s-.07,0-.1.03l-.96.88c-.07.06-.18.02-.18-.07l-.11-1.3s-.02-.07-.06-.09l-1.13-.65c-.08-.05-.07-.16.01-.2l1.2-.51s.06-.04.06-.08l.26-1.28c.02-.09.13-.12.19-.05l.85.99s.06.04.1.04l1.3-.14c.09-.01.15.09.11.17l-.67,1.12s-.02.07,0,.1l.54,1.19c.04.08-.04.17-.13.15Z"/>
    </g>
  </g>
</svg>