<?xml version="1.0" encoding="UTF-8"?>
<svg id="_Слой_2" data-name="Слой 2" xmlns="http://www.w3.org/2000/svg" viewBox="0 0 217.98 102.56">
  <defs>
    <style>
      .cls-1 {
        fill: none;
        stroke: #000;
        stroke-miterlimit: 10;
        stroke-width: .5px;
      }

      .cls-2 {
        fill: #ffd000;
      }

      .cls-3 {
        fill: #2d5d9f;
      }

      .cls-4 {
        fill: #f6a02a;
      }
    </style>
  </defs>
  <g id="_Слой_1-2" data-name="Слой 1">
    <g>
      <ellipse class="cls-3" cx="44.69" cy="45.1" rx="6.61" ry="7.01" transform="translate(-13.15 18.92) rotate(-20.91)"/>
      <ellipse class="cls-3" cx="25.52" cy="46.01" rx="9.23" ry="10.44"/>
      <g>
        <path class="cls-3" d="m78.65,30.11v-8.38h1.05v7.33c.54,0,1.32-.48,2.01-1.86.67-1.36,1.13-3.29,1.13-5.47h1.05v7.33h1.82v3.14h-1.05c0-.73-.13-1.45-.34-2.1h-1.49v-3.54c-.67,2.16-1.74,3.54-3.14,3.54h-1.05Z"/>
        <path class="cls-3" d="m94.1,25.92h.61c0,2.33-1.55,4.19-4.19,4.19s-4.19-1.86-4.19-4.19,1.55-4.19,4.19-4.19c1.28,0,2.62.5,3.37,1.57l-5.28,5.28c.54.29,1.22.48,1.91.48,1.99,0,3.58-1.4,3.58-3.14Zm-7.17,0c0,.78.29,1.47.84,2.01l4.65-4.67c-.54-.29-1.22-.48-1.91-.48-1.99,0-3.58,1.4-3.58,3.14Z"/>
        <path class="cls-3" d="m96.88,30.11h-1.05v-8.38h1.05v3.14h4.19v-3.14h1.05v8.38h-1.05v-4.61l-4.19.42v4.19Z"/>
        <path class="cls-3" d="m107.44,22.55v7.56h-1.05v-7.52l-3.14.19v-1.05h7.33v.63l-3.14.19Z"/>
        <path class="cls-3" d="m112.77,21.73c2.64,0,4.19,1.4,4.19,3.14s-1.55,3.14-4.19,3.14v2.1h-1.05v-8.38h1.05Zm0,5.24c1.17,0,3.56-.57,3.56-2.1s-2.39-2.1-3.56-2.1v4.19Z"/>
        <path class="cls-3" d="m79.7,44.08h-1.05v-8.38h6.29v8.38h-1.05v-7.33h-4.19v7.33Z"/>
        <path class="cls-3" d="m86.07,39.89c0-2.45,1.7-4.19,4.19-4.19,1.28,0,2.62.5,3.37,1.57l-.63.61c-.69-.75-1.74-1.13-2.74-1.13-1.78,0-3.58,1.24-3.58,3.14s1.8,3.14,3.58,3.14c1.01,0,2.05-.38,2.74-1.13l.63.61c-.75,1.07-2.1,1.57-3.37,1.57-2.49,0-4.19-1.74-4.19-4.19Z"/>
        <path class="cls-3" d="m94.77,44.08v-8.38h1.05v7.33c.54,0,1.32-.48,2.03-1.86.67-1.34,1.11-3.27,1.11-5.47h1.05v8.38h-1.05v-3.54c-.65,2.14-1.74,3.54-3.14,3.54h-1.05Z"/>
        <path class="cls-3" d="m101.14,36.75v-1.05c2.12,0,3.58,1.03,4.19,2.51.61-1.49,2.07-2.51,4.19-2.51v1.05c-2.14,0-3.88,1.4-3.88,3.14s1.74,3.14,3.88,3.14v1.05c-2.12,0-3.58-1.03-4.19-2.51-.61,1.49-2.07,2.51-4.19,2.51v-1.05c2.14,0,3.88-1.4,3.88-3.14s-1.74-3.14-3.88-3.14Z"/>
        <path class="cls-3" d="m118.51,39.89c0,2.33-1.55,4.19-4.19,4.19s-4.19-1.86-4.19-4.19,1.55-4.19,4.19-4.19,4.19,1.86,4.19,4.19Zm-7.77,0c0,1.74,1.59,3.14,3.58,3.14s3.58-1.4,3.58-3.14-1.59-3.14-3.58-3.14-3.58,1.4-3.58,3.14Z"/>
        <path class="cls-3" d="m125.4,44.08v-7.33h-2.12c-.21,4.13-1.72,7.33-4.17,7.33v-1.11c.67,0,1.55-.5,2.33-1.86.75-1.32,1.26-3.25,1.26-5.41h3.75v8.38h-1.05Z"/>
        <path class="cls-3" d="m135.96,39.89c0,2.33-1.55,4.19-4.19,4.19s-4.19-1.86-4.19-4.19,1.55-4.19,4.19-4.19,4.19,1.86,4.19,4.19Zm-7.77,0c0,1.74,1.59,3.14,3.58,3.14s3.58-1.4,3.58-3.14-1.59-3.14-3.58-3.14-3.58,1.4-3.58,3.14Z"/>
        <path class="cls-3" d="m137.09,35.7h5.24v.63l-4.19.42v7.33h-1.05v-8.38Z"/>
        <path class="cls-3" d="m143.46,44.08v-8.38h1.05v7.33c.54,0,1.32-.48,2.03-1.86.67-1.34,1.11-3.27,1.11-5.47h1.05v8.38h-1.05v-3.54c-.65,2.14-1.74,3.54-3.14,3.54h-1.05Z"/>
        <path class="cls-3" d="m150.88,35.7c0,1.7.42,3.18,1.05,4.21.65,1.05,1.4,1.51,2.1,1.51v-5.72h1.05v8.38h-1.05v-2.1c-2.33,0-4.19-2.49-4.19-6.29h1.05Z"/>
        <path class="cls-3" d="m163.98,39.89h.61c0,2.33-1.55,4.19-4.19,4.19s-4.19-1.86-4.19-4.19,1.55-4.19,4.19-4.19c1.28,0,2.62.5,3.37,1.57l-5.28,5.28c.54.29,1.22.48,1.91.48,1.99,0,3.58-1.4,3.58-3.14Zm-7.17,0c0,.78.29,1.47.84,2.01l4.65-4.67c-.54-.29-1.22-.48-1.91-.48-1.99,0-3.58,1.4-3.58,3.14Z"/>
        <path class="cls-3" d="m165.19,39.89c0-2.45,1.7-4.19,4.19-4.19,1.28,0,2.62.5,3.37,1.57l-.63.61c-.69-.75-1.74-1.13-2.74-1.13-1.78,0-3.58,1.24-3.58,3.14s1.8,3.14,3.58,3.14c1.01,0,2.05-.38,2.74-1.13l.63.61c-.75,1.07-2.1,1.57-3.37,1.57-2.49,0-4.19-1.74-4.19-4.19Z"/>
        <path class="cls-3" d="m174.94,44.08h-1.05v-8.38h1.05v5.72c.69,0,1.45-.46,2.1-1.51.63-1.03,1.05-2.51,1.05-4.21h1.05c0,2.91-1.11,5.07-2.68,5.91,1.57.31,2.68,1.13,2.68,2.47h-1.05c0-1.45-1.99-2.1-3.14-2.1v2.1Z"/>
        <path class="cls-3" d="m188.12,39.89c0,2.33-1.55,4.19-4.19,4.19s-4.19-1.86-4.19-4.19,1.55-4.19,4.19-4.19,4.19,1.86,4.19,4.19Zm-7.77,0c0,1.74,1.59,3.14,3.58,3.14s3.58-1.4,3.58-3.14-1.59-3.14-3.58-3.14-3.58,1.4-3.58,3.14Z"/>
        <path class="cls-3" d="m190.3,35.7v7.33c.54,0,1.34-.48,2.03-1.86.69-1.36,1.11-3.29,1.11-5.47h1.07v8.38h-1.07v-3.54c-.63,2.14-1.74,3.54-3.14,3.54h-1.05v-8.38h1.05Zm.52-3.16h-1.05c0,1.55.94,2.1,2.1,2.1s2.1-.54,2.1-2.1h-1.05c0,.78-.48,1.47-1.05,1.47s-1.05-.69-1.05-1.47Z"/>
        <path class="cls-3" d="m79.7,58.05h-1.05v-8.38h6.29v8.38h-1.05v-7.33h-4.19v7.33Z"/>
        <path class="cls-3" d="m94.45,53.86c0,2.33-1.55,4.19-4.19,4.19s-4.19-1.86-4.19-4.19,1.55-4.19,4.19-4.19,4.19,1.86,4.19,4.19Zm-7.77,0c0,1.74,1.59,3.14,3.58,3.14s3.58-1.4,3.58-3.14-1.59-3.14-3.58-3.14-3.58,1.4-3.58,3.14Z"/>
        <path class="cls-3" d="m102.39,57.01h1.05v3.14h-1.05c0-.73-.13-1.42-.34-2.1h-5.62c-.21.67-.34,1.36-.34,2.1h-1.05v-3.23c.65,0,1.55-.46,2.35-1.84.78-1.36,1.22-3.23,1.22-5.41h3.77v7.33Zm-3.18-6.29c-.15,2.7-.84,5.01-1.97,6.29h4.13v-6.29h-2.16Z"/>
        <path class="cls-3" d="m111.38,57.01h1.05v3.14h-1.05c0-.73-.13-1.42-.34-2.1h-5.62c-.21.67-.34,1.36-.34,2.1h-1.05v-3.23c.65,0,1.55-.46,2.35-1.84.78-1.36,1.22-3.23,1.22-5.41h3.77v7.33Zm-3.18-6.29c-.15,2.7-.84,5.01-1.97,6.29h4.13v-6.29h-2.16Z"/>
        <path class="cls-3" d="m120.81,53.86h.61c0,2.33-1.55,4.19-4.19,4.19s-4.19-1.86-4.19-4.19,1.55-4.19,4.19-4.19c1.28,0,2.62.5,3.37,1.57l-5.28,5.28c.54.29,1.22.48,1.91.48,1.99,0,3.58-1.4,3.58-3.14Zm-7.17,0c0,.78.29,1.47.84,2.01l4.65-4.67c-.54-.29-1.22-.48-1.91-.48-1.99,0-3.58,1.4-3.58,3.14Z"/>
        <path class="cls-3" d="m123.6,49.67c2.64,0,4.19,1.4,4.19,3.14s-1.55,3.14-4.19,3.14v2.1h-1.05v-8.38h1.05Zm0,5.24c1.17,0,3.56-.57,3.56-2.1s-2.39-2.1-3.56-2.1v4.19Z"/>
        <path class="cls-3" d="m129.45,49.67c0,1.7.42,3.18,1.05,4.21.65,1.05,1.4,1.51,2.1,1.51v-5.72h1.05v5.72c.69,0,1.45-.46,2.1-1.51.63-1.03,1.05-2.51,1.05-4.21h1.05c0,2.91-1.11,5.07-2.68,5.91,1.57.31,2.68,1.13,2.68,2.47h-1.05c0-1.45-1.99-2.1-3.14-2.1v2.1h-1.05v-2.1c-1.15,0-3.14.65-3.14,2.1h-1.05c0-1.34,1.11-2.16,2.68-2.47-1.57-.84-2.68-3-2.68-5.91h1.05Z"/>
        <path class="cls-3" d="m140.01,58.05h-1.05v-8.38h1.05v5.72c.69,0,1.45-.46,2.1-1.51.63-1.03,1.05-2.51,1.05-4.21h1.05c0,2.91-1.11,5.07-2.68,5.91,1.57.31,2.68,1.13,2.68,2.47h-1.05c0-1.45-1.99-2.1-3.14-2.1v2.1Z"/>
        <path class="cls-3" d="m145.33,58.05v-8.38h1.05v7.33c.54,0,1.32-.48,2.03-1.86.67-1.34,1.11-3.27,1.11-5.47h1.05v8.38h-1.05v-3.54c-.65,2.14-1.74,3.54-3.14,3.54h-1.05Z"/>
        <path class="cls-3" d="m84.44,71.12h.91v2.72h-.91c0-.64-.11-1.24-.29-1.82h-4.87c-.18.58-.29,1.18-.29,1.82h-.91v-2.8c.56,0,1.34-.4,2.03-1.6.67-1.18,1.05-2.8,1.05-4.69h3.27v6.36Zm-2.76-5.45c-.13,2.34-.73,4.34-1.71,5.45h3.58v-5.45h-1.87Z"/>
        <path class="cls-3" d="m92.62,68.39h.53c0,2.02-1.34,3.63-3.63,3.63s-3.63-1.62-3.63-3.63,1.34-3.63,3.63-3.63c1.11,0,2.27.44,2.92,1.36l-4.58,4.58c.47.25,1.05.42,1.65.42,1.73,0,3.11-1.22,3.11-2.72Zm-6.21,0c0,.67.25,1.27.73,1.74l4.03-4.05c-.47-.25-1.05-.42-1.65-.42-1.73,0-3.11,1.22-3.11,2.72Z"/>
        <path class="cls-3" d="m97.3,65.47v6.56h-.91v-6.52l-2.72.16v-.91h6.36v.54l-2.72.16Z"/>
        <path class="cls-3" d="m107.29,68.39h.53c0,2.02-1.34,3.63-3.63,3.63s-3.63-1.62-3.63-3.63,1.34-3.63,3.63-3.63c1.11,0,2.27.44,2.92,1.36l-4.58,4.58c.47.25,1.05.42,1.65.42,1.73,0,3.11-1.22,3.11-2.72Zm-6.21,0c0,.67.25,1.27.73,1.74l4.03-4.05c-.47-.25-1.05-.42-1.65-.42-1.73,0-3.11,1.22-3.11,2.72Z"/>
        <path class="cls-3" d="m109.71,64.76v6.36c.47,0,1.16-.42,1.76-1.62.6-1.18.96-2.85.96-4.74h.93v7.27h-.93v-3.07c-.54,1.85-1.51,3.07-2.72,3.07h-.91v-7.27h.91Zm.45-2.74h-.91c0,1.34.82,1.82,1.82,1.82s1.82-.47,1.82-1.82h-.91c0,.67-.42,1.27-.91,1.27s-.91-.6-.91-1.27Z"/>
        <path class="cls-3" d="m123.85,72.02v-7.27h.91v6.36c.47,0,1.14-.42,1.76-1.62.58-1.16.96-2.83.96-4.74h.91v7.27h-.91v-3.07c-.56,1.85-1.51,3.07-2.72,3.07h-.91Z"/>
        <path class="cls-3" d="m139.8,72.02h-.91v-7.27h5.45v7.27h-.91v-6.36h-3.63v6.36Z"/>
        <path class="cls-3" d="m152.58,68.39c0,2.02-1.34,3.63-3.63,3.63s-3.63-1.62-3.63-3.63,1.34-3.63,3.63-3.63,3.63,1.62,3.63,3.63Zm-6.74,0c0,1.51,1.38,2.72,3.11,2.72s3.11-1.22,3.11-2.72-1.38-2.72-3.11-2.72-3.11,1.22-3.11,2.72Z"/>
        <path class="cls-3" d="m159.47,71.12h.91v2.72h-.91c0-.64-.11-1.24-.29-1.82h-4.87c-.18.58-.29,1.18-.29,1.82h-.91v-2.8c.56,0,1.34-.4,2.03-1.6.67-1.18,1.05-2.8,1.05-4.69h3.27v6.36Zm-2.76-5.45c-.13,2.34-.73,4.34-1.71,5.45h3.58v-5.45h-1.87Z"/>
        <path class="cls-3" d="m162.26,64.76c2.29,0,3.63,1.22,3.63,2.72s-1.34,2.72-3.63,2.72v1.82h-.91v-7.27h.91Zm0,4.54c1.02,0,3.09-.49,3.09-1.82s-2.07-1.82-3.09-1.82v3.63Z"/>
        <path class="cls-3" d="m173.69,68.39c0,2.02-1.34,3.63-3.63,3.63s-3.63-1.62-3.63-3.63,1.34-3.63,3.63-3.63,3.63,1.62,3.63,3.63Zm-6.74,0c0,1.51,1.38,2.72,3.11,2.72s3.11-1.22,3.11-2.72-1.38-2.72-3.11-2.72-3.11,1.22-3.11,2.72Z"/>
        <path class="cls-3" d="m174.21,68.39c0-2.13,1.47-3.63,3.63-3.63,1.11,0,2.27.44,2.92,1.36l-.54.53c-.6-.65-1.51-.98-2.38-.98-1.54,0-3.11,1.07-3.11,2.72s1.56,2.72,3.11,2.72c.87,0,1.78-.33,2.38-.98l.54.53c-.65.93-1.82,1.36-2.92,1.36-2.16,0-3.63-1.51-3.63-3.63Z"/>
        <path class="cls-3" d="m184.93,65.47v6.56h-.91v-6.52l-2.72.16v-.91h6.36v.54l-2.72.16Z"/>
        <path class="cls-3" d="m189.54,72.02h-.91v-7.27h.91v4.96c.6,0,1.25-.4,1.82-1.31.55-.89.91-2.18.91-3.65h.91c0,2.52-.96,4.4-2.32,5.12,1.36.27,2.32.98,2.32,2.14h-.91c0-1.25-1.73-1.82-2.72-1.82v1.82Z"/>
        <path class="cls-3" d="m200.96,68.39c0,2.02-1.34,3.63-3.63,3.63s-3.63-1.62-3.63-3.63,1.34-3.63,3.63-3.63,3.63,1.62,3.63,3.63Zm-6.74,0c0,1.51,1.38,2.72,3.11,2.72s3.11-1.22,3.11-2.72-1.38-2.72-3.11-2.72-3.11,1.22-3.11,2.72Z"/>
        <path class="cls-3" d="m201.94,64.76h.91c1.8,0,2.72.82,2.72,1.82,0,.49-.22.93-.65,1.25,1,.4,1.56,1.13,1.56,1.93,0,1.25-1.34,2.27-3.63,2.27h-.91v-7.27Zm.91,2.72c.71,0,1.33-.16,1.71-.38.4-.22.47-.42.47-.53s-.07-.31-.47-.53c-.38-.22-1-.38-1.71-.38v1.82Zm0,3.63c.98,0,1.83-.22,2.38-.53.58-.33.73-.64.73-.84s-.15-.51-.73-.84c-.54-.31-1.4-.53-2.38-.53v2.72Z"/>
      </g>
      <path class="cls-4" d="m29.73,10.72c-.12-.04-.26-.09-.25-.13.05-.29,11.15-.65,20.13,3.45,16.5,7.55,19.97,27.5,20.25,29.25.84,4.11,1.45,10.13-.16,16.94-3.87,16.33-18.1,26.83-18.39,26.6-.02-.02.03-.13.06-.17,2.47-3.36,5.05-8.02,7.31-13.76,3.17-8.08,5.36-19.08,1.43-31.26,0,0-7.56-24.81-30.37-30.93Z"/>
      <path class="cls-3" d="m16.86,42.2c.13-1.48.43-3.56,1.26-5.92,2.64-7.56,8.69-12.36,8.14-12.94-.09-.09-.34-.09-1.1.34,0,0,0,0,0,0,.01.03-22.32,10.36-12.18,43.18.03.04.14.33.35.8,5.55,12.27,16.36,18.09,17.59,18.74,8.59,4.52,17.27,4.85,17.34,4.6.01-.06-.39-.21-.74-.34-4.03-1.48-9.26-4.23-14.69-8.61-7.46-6.01-15.14-15.41-16.05-29.02.03-.46.11-.59.18-.61.46-.1,1.69,3.58,1.69,3.58.84,3.55,2.44,8.48,5.74,13.59,8.13,12.56,22.96,20.51,24.79,18.6.12-.12.22-.33.21-.68,0,0,0,0,0,0,.07,0,1.4-17.23-5.01-26.23,4.03-1.18,9.66-3.66,13.61-9,5.75-7.76,5.62-18.42,5.29-18.49-.07-.02-.21.36-.33.72-.02.07-.04.16-.07.28-.67,2.64-6.4,22.96-28.69,18.34-.05-.01-.13-.02-.23-.02-.81.04-1.34,1.19-1.58,1.6-1.01,1.76-3.73,2.2-4.92,2.4-2.65.43-4.56-.47-5.08-.95-.07-.07-.46-.43-.4-.51.04-.06.25.09.36.05.61-.22-.23-7.84-5.28-13.3-.09-.1-.17-.18-.2-.21Z"/>
      <path class="cls-2" d="m38.6,22.44l-1.71-.4s-.1,0-.13.03l-1.3,1.18c-.09.08-.24.03-.25-.1l-.15-1.75s-.03-.09-.07-.12l-1.52-.87c-.11-.06-.1-.22.02-.26l1.62-.68s.08-.06.09-.11l.35-1.72c.02-.12.18-.16.26-.07l1.15,1.33s.08.06.13.05l1.74-.19c.12-.01.21.12.14.22l-.91,1.5s-.03.09,0,.14l.72,1.6c.05.11-.05.23-.17.21Z"/>
      <path class="cls-2" d="m46.53,27.07l-1.71-.4s-.1,0-.13.03l-1.3,1.18c-.09.08-.24.03-.25-.1l-.15-1.75s-.03-.09-.07-.12l-1.52-.87c-.11-.06-.1-.22.02-.26l1.62-.68s.08-.06.09-.11l.35-1.72c.02-.12.18-.16.26-.07l1.15,1.33s.08.06.13.05l1.74-.19c.12-.01.21.12.14.22l-.91,1.5s-.03.09,0,.14l.72,1.6c.05.11-.05.23-.17.21Z"/>
      <path class="cls-2" d="m43.3,33.5l-1.4-.33s-.08,0-.11.03l-1.06.97c-.07.07-.19.02-.2-.08l-.12-1.43s-.03-.08-.06-.09l-1.25-.71c-.09-.05-.08-.18.01-.22l1.32-.56s.06-.05.07-.09l.29-1.41c.02-.1.14-.13.21-.05l.94,1.09s.07.05.1.04l1.43-.16c.1-.01.17.1.12.18l-.74,1.23s-.02.08,0,.11l.59,1.31c.04.09-.04.19-.14.17Z"/>
      <path class="cls-2" d="m37.08,30.37l-1.14-.27s-.07,0-.09.02l-.87.79c-.06.06-.16.02-.17-.06l-.1-1.17s-.02-.06-.05-.08l-1.02-.58c-.07-.04-.07-.15.01-.18l1.08-.46s.05-.04.06-.07l.24-1.15c.02-.08.12-.11.17-.04l.77.89s.05.04.09.03l1.17-.13c.08,0,.14.08.1.15l-.61,1.01s-.02.06,0,.09l.48,1.07c.03.07-.03.16-.11.14Z"/>
      <path class="cls-2" d="m32.17,27l-1.4-.33s-.08,0-.11.03l-1.06.97c-.07.07-.19.02-.2-.08l-.12-1.43s-.03-.08-.06-.09l-1.25-.71c-.09-.05-.08-.18.01-.22l1.32-.56s.06-.05.07-.09l.29-1.41c.02-.1.14-.13.21-.05l.94,1.09s.07.05.1.04l1.43-.16c.1-.01.17.1.12.18l-.74,1.23s-.02.08,0,.11l.59,1.31c.04.09-.04.19-.14.17Z"/>
    </g>
    <rect class="cls-1" x=".25" y=".25" width="217.48" height="102.06"/>
  </g>
</svg>