<?xml version="1.0" encoding="UTF-8"?>
<svg id="_Слой_2" data-name="Слой 2" xmlns="http://www.w3.org/2000/svg" viewBox="0 0 218.93 103.01">
  <defs>
    <style>
      .cls-1 {
        fill: #575756;
      }

      .cls-2 {
        fill: #3c3c3b;
      }

      .cls-3 {
        fill: none;
        stroke: #000;
        stroke-miterlimit: 10;
        stroke-width: .5px;
      }

      .cls-4 {
        fill: #1d1d1b;
      }
    </style>
  </defs>
  <g id="_Слой_1-2" data-name="Слой 1">
    <g>
      <ellipse class="cls-1" cx="49.91" cy="51.51" rx="6.64" ry="7.04" transform="translate(-15.09 21.2) rotate(-20.91)"/>
      <ellipse class="cls-1" cx="30.65" cy="52.42" rx="9.27" ry="10.49"/>
      <g>
        <path class="cls-1" d="m84.02,36.45v-8.42h1.05v7.37c.55,0,1.33-.48,2.02-1.87.67-1.37,1.14-3.3,1.14-5.49h1.05v7.37h1.83v3.16h-1.05c0-.74-.13-1.45-.34-2.1h-1.49v-3.56c-.67,2.17-1.75,3.56-3.16,3.56h-1.05Z"/>
        <path class="cls-1" d="m99.53,32.24h.61c0,2.34-1.56,4.21-4.21,4.21s-4.21-1.87-4.21-4.21,1.56-4.21,4.21-4.21c1.28,0,2.63.5,3.39,1.58l-5.3,5.3c.55.29,1.22.48,1.92.48,2,0,3.6-1.41,3.6-3.16Zm-7.2,0c0,.78.29,1.47.84,2.02l4.67-4.69c-.55-.29-1.22-.48-1.92-.48-2,0-3.6,1.41-3.6,3.16Z"/>
        <path class="cls-1" d="m102.33,36.45h-1.05v-8.42h1.05v3.16h4.21v-3.16h1.05v8.42h-1.05v-4.63l-4.21.42v4.21Z"/>
        <path class="cls-1" d="m112.94,28.85v7.6h-1.05v-7.55l-3.16.19v-1.05h7.37v.63l-3.16.19Z"/>
        <path class="cls-1" d="m118.28,28.03c2.65,0,4.21,1.41,4.21,3.16s-1.56,3.16-4.21,3.16v2.1h-1.05v-8.42h1.05Zm0,5.26c1.18,0,3.58-.57,3.58-2.1s-2.4-2.1-3.58-2.1v4.21Z"/>
        <path class="cls-1" d="m85.07,50.48h-1.05v-8.42h6.31v8.42h-1.05v-7.37h-4.21v7.37Z"/>
        <path class="cls-1" d="m91.47,46.27c0-2.46,1.7-4.21,4.21-4.21,1.28,0,2.63.51,3.39,1.58l-.63.61c-.69-.76-1.75-1.14-2.76-1.14-1.79,0-3.6,1.24-3.6,3.16s1.81,3.16,3.6,3.16c1.01,0,2.06-.38,2.76-1.14l.63.61c-.76,1.07-2.1,1.58-3.39,1.58-2.5,0-4.21-1.75-4.21-4.21Z"/>
        <path class="cls-1" d="m100.21,50.48v-8.42h1.05v7.37c.55,0,1.33-.48,2.04-1.87.67-1.35,1.12-3.28,1.12-5.49h1.05v8.42h-1.05v-3.56c-.65,2.15-1.75,3.56-3.16,3.56h-1.05Z"/>
        <path class="cls-1" d="m106.6,43.12v-1.05c2.13,0,3.6,1.03,4.21,2.53.61-1.49,2.08-2.53,4.21-2.53v1.05c-2.15,0-3.89,1.41-3.89,3.16s1.75,3.16,3.89,3.16v1.05c-2.13,0-3.6-1.03-4.21-2.53-.61,1.49-2.08,2.53-4.21,2.53v-1.05c2.15,0,3.89-1.41,3.89-3.16s-1.75-3.16-3.89-3.16Z"/>
        <path class="cls-1" d="m124.05,46.27c0,2.34-1.56,4.21-4.21,4.21s-4.21-1.87-4.21-4.21,1.56-4.21,4.21-4.21,4.21,1.87,4.21,4.21Zm-7.81,0c0,1.75,1.6,3.16,3.6,3.16s3.6-1.41,3.6-3.16-1.6-3.16-3.6-3.16-3.6,1.41-3.6,3.16Z"/>
        <path class="cls-1" d="m130.97,50.48v-7.37h-2.13c-.21,4.15-1.73,7.37-4.19,7.37v-1.12c.67,0,1.56-.5,2.34-1.87.76-1.33,1.26-3.26,1.26-5.43h3.77v8.42h-1.05Z"/>
        <path class="cls-1" d="m141.58,46.27c0,2.34-1.56,4.21-4.21,4.21s-4.21-1.87-4.21-4.21,1.56-4.21,4.21-4.21,4.21,1.87,4.21,4.21Zm-7.81,0c0,1.75,1.6,3.16,3.6,3.16s3.6-1.41,3.6-3.16-1.6-3.16-3.6-3.16-3.6,1.41-3.6,3.16Z"/>
        <path class="cls-1" d="m142.72,42.06h5.26v.63l-4.21.42v7.37h-1.05v-8.42Z"/>
        <path class="cls-1" d="m149.12,50.48v-8.42h1.05v7.37c.55,0,1.33-.48,2.04-1.87.67-1.35,1.12-3.28,1.12-5.49h1.05v8.42h-1.05v-3.56c-.65,2.15-1.75,3.56-3.16,3.56h-1.05Z"/>
        <path class="cls-1" d="m156.57,42.06c0,1.7.42,3.2,1.05,4.23.65,1.05,1.41,1.52,2.1,1.52v-5.75h1.05v8.42h-1.05v-2.1c-2.34,0-4.21-2.5-4.21-6.31h1.05Z"/>
        <path class="cls-1" d="m169.72,46.27h.61c0,2.34-1.56,4.21-4.21,4.21s-4.21-1.87-4.21-4.21,1.56-4.21,4.21-4.21c1.28,0,2.63.51,3.39,1.58l-5.3,5.3c.55.29,1.22.48,1.92.48,2,0,3.6-1.41,3.6-3.16Zm-7.2,0c0,.78.29,1.47.84,2.02l4.67-4.69c-.55-.29-1.22-.48-1.92-.48-2,0-3.6,1.41-3.6,3.16Z"/>
        <path class="cls-1" d="m170.94,46.27c0-2.46,1.7-4.21,4.21-4.21,1.28,0,2.63.51,3.39,1.58l-.63.61c-.69-.76-1.75-1.14-2.76-1.14-1.79,0-3.6,1.24-3.6,3.16s1.81,3.16,3.6,3.16c1.01,0,2.06-.38,2.76-1.14l.63.61c-.76,1.07-2.1,1.58-3.39,1.58-2.5,0-4.21-1.75-4.21-4.21Z"/>
        <path class="cls-1" d="m180.73,50.48h-1.05v-8.42h1.05v5.75c.69,0,1.45-.46,2.1-1.52.63-1.03,1.05-2.53,1.05-4.23h1.05c0,2.93-1.12,5.09-2.69,5.93,1.58.32,2.69,1.14,2.69,2.48h-1.05c0-1.45-2-2.1-3.16-2.1v2.1Z"/>
        <path class="cls-1" d="m193.96,46.27c0,2.34-1.56,4.21-4.21,4.21s-4.21-1.87-4.21-4.21,1.56-4.21,4.21-4.21,4.21,1.87,4.21,4.21Zm-7.81,0c0,1.75,1.6,3.16,3.6,3.16s3.6-1.41,3.6-3.16-1.6-3.16-3.6-3.16-3.6,1.41-3.6,3.16Z"/>
        <path class="cls-1" d="m196.15,42.06v7.37c.55,0,1.35-.48,2.04-1.87.69-1.37,1.12-3.3,1.12-5.49h1.07v8.42h-1.07v-3.56c-.63,2.15-1.75,3.56-3.16,3.56h-1.05v-8.42h1.05Zm.53-3.18h-1.05c0,1.56.95,2.1,2.1,2.1s2.1-.55,2.1-2.1h-1.05c0,.78-.48,1.47-1.05,1.47s-1.05-.69-1.05-1.47Z"/>
        <path class="cls-1" d="m85.07,64.51h-1.05v-8.42h6.31v8.42h-1.05v-7.37h-4.21v7.37Z"/>
        <path class="cls-1" d="m99.89,60.3c0,2.34-1.56,4.21-4.21,4.21s-4.21-1.87-4.21-4.21,1.56-4.21,4.21-4.21,4.21,1.87,4.21,4.21Zm-7.81,0c0,1.75,1.6,3.16,3.6,3.16s3.6-1.41,3.6-3.16-1.6-3.16-3.6-3.16-3.6,1.41-3.6,3.16Z"/>
        <path class="cls-1" d="m107.87,63.46h1.05v3.16h-1.05c0-.74-.13-1.43-.34-2.1h-5.64c-.21.67-.34,1.37-.34,2.1h-1.05v-3.24c.65,0,1.56-.46,2.36-1.85.78-1.37,1.22-3.24,1.22-5.43h3.79v7.37Zm-3.2-6.31c-.15,2.71-.84,5.03-1.98,6.31h4.15v-6.31h-2.17Z"/>
        <path class="cls-1" d="m116.89,63.46h1.05v3.16h-1.05c0-.74-.13-1.43-.34-2.1h-5.64c-.21.67-.34,1.37-.34,2.1h-1.05v-3.24c.65,0,1.56-.46,2.36-1.85.78-1.37,1.22-3.24,1.22-5.43h3.79v7.37Zm-3.2-6.31c-.15,2.71-.84,5.03-1.98,6.31h4.15v-6.31h-2.17Z"/>
        <path class="cls-1" d="m126.36,60.3h.61c0,2.34-1.56,4.21-4.21,4.21s-4.21-1.87-4.21-4.21,1.56-4.21,4.21-4.21c1.28,0,2.63.51,3.39,1.58l-5.3,5.3c.55.29,1.22.48,1.92.48,2,0,3.6-1.41,3.6-3.16Zm-7.2,0c0,.78.29,1.47.84,2.02l4.67-4.69c-.55-.29-1.22-.48-1.92-.48-2,0-3.6,1.41-3.6,3.16Z"/>
        <path class="cls-1" d="m129.16,56.09c2.65,0,4.21,1.41,4.21,3.16s-1.56,3.16-4.21,3.16v2.1h-1.05v-8.42h1.05Zm0,5.26c1.18,0,3.58-.57,3.58-2.1s-2.4-2.1-3.58-2.1v4.21Z"/>
        <path class="cls-1" d="m135.04,56.09c0,1.7.42,3.2,1.05,4.23.65,1.05,1.41,1.52,2.1,1.52v-5.75h1.05v5.75c.69,0,1.45-.46,2.1-1.52.63-1.03,1.05-2.53,1.05-4.23h1.05c0,2.93-1.12,5.09-2.69,5.93,1.58.32,2.69,1.14,2.69,2.48h-1.05c0-1.45-2-2.1-3.16-2.1v2.1h-1.05v-2.1c-1.16,0-3.16.65-3.16,2.1h-1.05c0-1.35,1.12-2.17,2.69-2.48-1.58-.84-2.69-3.01-2.69-5.93h1.05Z"/>
        <path class="cls-1" d="m145.64,64.51h-1.05v-8.42h1.05v5.75c.69,0,1.45-.46,2.1-1.52.63-1.03,1.05-2.53,1.05-4.23h1.05c0,2.93-1.12,5.09-2.69,5.93,1.58.32,2.69,1.14,2.69,2.48h-1.05c0-1.45-2-2.1-3.16-2.1v2.1Z"/>
        <path class="cls-1" d="m150.99,64.51v-8.42h1.05v7.37c.55,0,1.33-.48,2.04-1.87.67-1.35,1.12-3.28,1.12-5.49h1.05v8.42h-1.05v-3.56c-.65,2.15-1.75,3.56-3.16,3.56h-1.05Z"/>
        <path class="cls-1" d="m89.84,77.63h.91v2.74h-.91c0-.64-.11-1.24-.29-1.82h-4.89c-.18.58-.29,1.19-.29,1.82h-.91v-2.81c.57,0,1.35-.4,2.04-1.61.68-1.19,1.06-2.81,1.06-4.71h3.28v6.38Zm-2.77-5.47c-.13,2.35-.73,4.36-1.71,5.47h3.59v-5.47h-1.88Z"/>
        <path class="cls-1" d="m98.05,74.89h.53c0,2.03-1.35,3.65-3.65,3.65s-3.65-1.62-3.65-3.65,1.35-3.65,3.65-3.65c1.11,0,2.28.44,2.94,1.37l-4.6,4.6c.47.26,1.06.42,1.66.42,1.73,0,3.12-1.22,3.12-2.74Zm-6.24,0c0,.68.26,1.28.73,1.75l4.05-4.07c-.47-.26-1.06-.42-1.66-.42-1.73,0-3.12,1.22-3.12,2.74Z"/>
        <path class="cls-1" d="m102.75,71.96v6.59h-.91v-6.55l-2.74.16v-.91h6.38v.55l-2.74.16Z"/>
        <path class="cls-1" d="m112.78,74.89h.53c0,2.03-1.35,3.65-3.65,3.65s-3.65-1.62-3.65-3.65,1.35-3.65,3.65-3.65c1.11,0,2.28.44,2.94,1.37l-4.6,4.6c.47.26,1.06.42,1.66.42,1.73,0,3.12-1.22,3.12-2.74Zm-6.24,0c0,.68.26,1.28.73,1.75l4.05-4.07c-.47-.26-1.06-.42-1.66-.42-1.73,0-3.12,1.22-3.12,2.74Z"/>
        <path class="cls-1" d="m115.21,71.25v6.38c.47,0,1.17-.42,1.77-1.62.6-1.19.97-2.86.97-4.76h.93v7.3h-.93v-3.08c-.55,1.86-1.51,3.08-2.74,3.08h-.91v-7.3h.91Zm.46-2.75h-.91c0,1.35.82,1.82,1.82,1.82s1.82-.47,1.82-1.82h-.91c0,.68-.42,1.28-.91,1.28s-.91-.6-.91-1.28Z"/>
        <path class="cls-1" d="m129.42,78.54v-7.3h.91v6.38c.47,0,1.15-.42,1.77-1.62.58-1.17.97-2.85.97-4.76h.91v7.3h-.91v-3.08c-.57,1.86-1.51,3.08-2.74,3.08h-.91Z"/>
        <path class="cls-1" d="m145.43,78.54h-.91v-7.3h5.47v7.3h-.91v-6.38h-3.65v6.38Z"/>
        <path class="cls-1" d="m158.27,74.89c0,2.03-1.35,3.65-3.65,3.65s-3.65-1.62-3.65-3.65,1.35-3.65,3.65-3.65,3.65,1.62,3.65,3.65Zm-6.77,0c0,1.51,1.39,2.74,3.12,2.74s3.12-1.22,3.12-2.74-1.39-2.74-3.12-2.74-3.12,1.22-3.12,2.74Z"/>
        <path class="cls-1" d="m165.19,77.63h.91v2.74h-.91c0-.64-.11-1.24-.29-1.82h-4.89c-.18.58-.29,1.19-.29,1.82h-.91v-2.81c.57,0,1.35-.4,2.04-1.61.68-1.19,1.06-2.81,1.06-4.71h3.28v6.38Zm-2.77-5.47c-.13,2.35-.73,4.36-1.71,5.47h3.59v-5.47h-1.88Z"/>
        <path class="cls-1" d="m168,71.25c2.3,0,3.65,1.22,3.65,2.74s-1.35,2.74-3.65,2.74v1.82h-.91v-7.3h.91Zm0,4.56c1.02,0,3.1-.49,3.1-1.82s-2.08-1.82-3.1-1.82v3.65Z"/>
        <path class="cls-1" d="m179.47,74.89c0,2.03-1.35,3.65-3.65,3.65s-3.65-1.62-3.65-3.65,1.35-3.65,3.65-3.65,3.65,1.62,3.65,3.65Zm-6.77,0c0,1.51,1.39,2.74,3.12,2.74s3.12-1.22,3.12-2.74-1.39-2.74-3.12-2.74-3.12,1.22-3.12,2.74Z"/>
        <path class="cls-1" d="m180,74.89c0-2.13,1.48-3.65,3.65-3.65,1.11,0,2.28.44,2.94,1.37l-.55.53c-.6-.66-1.51-.99-2.39-.99-1.55,0-3.12,1.08-3.12,2.74s1.57,2.74,3.12,2.74c.88,0,1.79-.33,2.39-.99l.55.53c-.66.93-1.82,1.37-2.94,1.37-2.17,0-3.65-1.51-3.65-3.65Z"/>
        <path class="cls-1" d="m190.76,71.96v6.59h-.91v-6.55l-2.74.16v-.91h6.38v.55l-2.74.16Z"/>
        <path class="cls-1" d="m195.39,78.54h-.91v-7.3h.91v4.98c.6,0,1.26-.4,1.82-1.31.55-.89.91-2.19.91-3.67h.91c0,2.54-.97,4.41-2.34,5.14,1.37.27,2.34.99,2.34,2.15h-.91c0-1.26-1.73-1.82-2.74-1.82v1.82Z"/>
        <path class="cls-1" d="m206.87,74.89c0,2.03-1.35,3.65-3.65,3.65s-3.65-1.62-3.65-3.65,1.35-3.65,3.65-3.65,3.65,1.62,3.65,3.65Zm-6.77,0c0,1.51,1.39,2.74,3.12,2.74s3.12-1.22,3.12-2.74-1.39-2.74-3.12-2.74-3.12,1.22-3.12,2.74Z"/>
        <path class="cls-1" d="m207.85,71.25h.91c1.81,0,2.74.82,2.74,1.82,0,.49-.22.93-.66,1.26,1,.4,1.57,1.13,1.57,1.93,0,1.26-1.35,2.28-3.65,2.28h-.91v-7.3Zm.91,2.74c.71,0,1.33-.16,1.71-.38.4-.22.47-.42.47-.53s-.07-.31-.47-.53c-.38-.22-1-.38-1.71-.38v1.82Zm0,3.65c.99,0,1.84-.22,2.39-.53.58-.33.73-.64.73-.84s-.15-.51-.73-.84c-.55-.31-1.4-.53-2.39-.53v2.74Z"/>
      </g>
      <path class="cls-4" d="m34.88,16.97c-.12-.04-.26-.09-.25-.13.05-.29,11.2-.66,20.22,3.47,16.57,7.58,20.06,27.62,20.34,29.38.84,4.13,1.46,10.17-.16,17.02-3.89,16.4-18.18,26.95-18.47,26.71-.02-.02.03-.13.06-.17,2.48-3.38,5.08-8.05,7.34-13.82,3.19-8.12,5.39-19.17,1.44-31.4,0,0-7.6-24.92-30.5-31.06Z"/>
      <path class="cls-1" d="m21.96,48.59c.13-1.48.43-3.58,1.26-5.94,2.66-7.59,8.72-12.41,8.17-13-.09-.09-.34-.09-1.1.34,0,0,0,0,0,0,.01.03-22.42,10.4-12.23,43.37.03.04.14.33.36.8,5.57,12.32,16.43,18.17,17.67,18.82,8.63,4.54,17.35,4.87,17.42,4.62.01-.06-.39-.21-.74-.34-4.05-1.48-9.3-4.25-14.75-8.65-7.49-6.03-15.21-15.48-16.12-29.15.03-.46.11-.6.18-.61.46-.1,1.7,3.6,1.7,3.6.84,3.56,2.45,8.52,5.77,13.65,8.17,12.61,23.06,20.6,24.89,18.68.12-.12.22-.33.22-.68,0,0,0,0,0,0,.07,0,1.41-17.31-5.04-26.34,4.05-1.18,9.7-3.68,13.67-9.04,5.77-7.8,5.65-18.5,5.31-18.57-.07-.02-.21.36-.33.72-.02.07-.04.16-.07.28-.68,2.65-6.43,23.06-28.82,18.42-.05-.01-.13-.02-.23-.02-.82.04-1.35,1.19-1.59,1.61-1.02,1.77-3.74,2.21-4.94,2.41-2.66.43-4.58-.47-5.1-.96-.07-.07-.46-.43-.4-.51.04-.06.25.09.36.05.61-.22-.23-7.88-5.3-13.36-.09-.1-.17-.18-.2-.21Z"/>
      <path class="cls-2" d="m43.8,28.74l-1.72-.4s-.1,0-.13.03l-1.3,1.19c-.09.08-.24.03-.25-.1l-.15-1.76s-.03-.09-.07-.12l-1.53-.87c-.11-.06-.1-.22.02-.27l1.62-.69s.08-.06.09-.11l.36-1.73c.02-.12.18-.16.26-.07l1.15,1.33s.08.06.13.05l1.75-.2c.12-.01.21.12.14.22l-.91,1.51s-.03.09,0,.14l.73,1.6c.05.11-.05.23-.17.21Z"/>
      <path class="cls-2" d="m51.76,33.39l-1.72-.4s-.1,0-.13.03l-1.3,1.19c-.09.08-.24.03-.25-.1l-.15-1.76s-.03-.09-.07-.12l-1.53-.87c-.11-.06-.1-.22.02-.27l1.62-.69s.08-.06.09-.11l.36-1.73c.02-.12.18-.16.26-.07l1.15,1.33s.08.06.13.05l1.75-.2c.12-.01.21.12.14.22l-.91,1.51s-.03.09,0,.14l.73,1.6c.05.11-.05.23-.17.21Z"/>
      <path class="cls-2" d="m48.51,39.85l-1.4-.33s-.08,0-.11.03l-1.07.97c-.07.07-.19.02-.2-.08l-.12-1.44s-.03-.08-.06-.1l-1.25-.71c-.09-.05-.08-.18.01-.22l1.33-.56s.06-.05.07-.09l.29-1.41c.02-.1.15-.13.21-.06l.94,1.09s.07.05.11.04l1.43-.16c.1-.01.17.1.12.18l-.74,1.23s-.02.08,0,.11l.59,1.31c.04.09-.04.19-.14.17Z"/>
      <path class="cls-2" d="m42.26,36.71l-1.15-.27s-.07,0-.09.02l-.87.8c-.06.06-.16.02-.17-.07l-.1-1.18s-.02-.06-.05-.08l-1.03-.58c-.07-.04-.07-.15.01-.18l1.09-.46s.05-.04.06-.07l.24-1.16c.02-.08.12-.11.17-.05l.77.89s.05.04.09.03l1.17-.13c.08,0,.14.08.1.15l-.61,1.01s-.02.06,0,.09l.49,1.08c.03.08-.03.16-.11.14Z"/>
      <path class="cls-2" d="m37.33,33.32l-1.4-.33s-.08,0-.11.03l-1.07.97c-.07.07-.19.02-.2-.08l-.12-1.44s-.03-.08-.06-.1l-1.25-.71c-.09-.05-.08-.18.01-.22l1.33-.56s.06-.05.07-.09l.29-1.41c.02-.1.15-.13.21-.06l.94,1.09s.07.05.11.04l1.43-.16c.1-.01.17.1.12.18l-.74,1.23s-.02.08,0,.11l.59,1.31c.04.09-.04.19-.14.17Z"/>
    </g>
    <rect class="cls-3" x=".25" y=".25" width="218.43" height="102.51"/>
  </g>
</svg>