<?xml version="1.0" encoding="UTF-8"?>
<svg id="_Слой_2" data-name="Слой 2" xmlns="http://www.w3.org/2000/svg" viewBox="0 0 218.28 102.44">
  <defs>
    <style>
      .cls-1 {
        fill: #275ba7;
      }

      .cls-2 {
        fill: #fccb00;
      }

      .cls-3 {
        fill: #f59e2d;
      }
    </style>
  </defs>
  <g id="_Слой_1-2" data-name="Слой 1">
    <rect width="218.28" height="102.44"/>
    <ellipse class="cls-1" cx="44.61" cy="45.02" rx="6.63" ry="7.03" transform="translate(-13.13 18.88) rotate(-20.91)"/>
    <ellipse class="cls-1" cx="25.36" cy="45.93" rx="9.26" ry="10.48"/>
    <g>
      <path class="cls-1" d="m78.69,29.98v-8.41h1.05v7.36c.55,0,1.32-.48,2.02-1.87.67-1.37,1.14-3.3,1.14-5.49h1.05v7.36h1.83v3.15h-1.05c0-.74-.13-1.45-.34-2.1h-1.49v-3.55c-.67,2.17-1.75,3.55-3.15,3.55h-1.05Z"/>
      <path class="cls-1" d="m94.19,25.77h.61c0,2.33-1.56,4.21-4.21,4.21s-4.21-1.87-4.21-4.21,1.56-4.21,4.21-4.21c1.28,0,2.63.5,3.39,1.58l-5.3,5.3c.55.29,1.22.48,1.91.48,2,0,3.6-1.41,3.6-3.15Zm-7.19,0c0,.78.29,1.47.84,2.02l4.67-4.69c-.55-.29-1.22-.48-1.91-.48-2,0-3.6,1.41-3.6,3.15Z"/>
      <path class="cls-1" d="m96.99,29.98h-1.05v-8.41h1.05v3.15h4.21v-3.15h1.05v8.41h-1.05v-4.63l-4.21.42v4.21Z"/>
      <path class="cls-1" d="m107.59,22.38v7.59h-1.05v-7.55l-3.15.19v-1.05h7.36v.63l-3.15.19Z"/>
      <path class="cls-1" d="m112.93,21.56c2.65,0,4.21,1.41,4.21,3.15s-1.56,3.15-4.21,3.15v2.1h-1.05v-8.41h1.05Zm0,5.26c1.18,0,3.57-.57,3.57-2.1s-2.4-2.1-3.57-2.1v4.21Z"/>
      <path class="cls-1" d="m79.74,44h-1.05v-8.41h6.31v8.41h-1.05v-7.36h-4.21v7.36Z"/>
      <path class="cls-1" d="m86.14,39.79c0-2.46,1.7-4.21,4.21-4.21,1.28,0,2.63.5,3.39,1.58l-.63.61c-.69-.76-1.75-1.14-2.75-1.14-1.79,0-3.6,1.24-3.6,3.15s1.81,3.15,3.6,3.15c1.01,0,2.06-.38,2.75-1.14l.63.61c-.76,1.07-2.1,1.58-3.39,1.58-2.5,0-4.21-1.75-4.21-4.21Z"/>
      <path class="cls-1" d="m94.87,44v-8.41h1.05v7.36c.55,0,1.32-.48,2.04-1.87.67-1.35,1.11-3.28,1.11-5.49h1.05v8.41h-1.05v-3.55c-.65,2.14-1.75,3.55-3.15,3.55h-1.05Z"/>
      <path class="cls-1" d="m101.26,36.64v-1.05c2.12,0,3.6,1.03,4.21,2.52.61-1.49,2.08-2.52,4.21-2.52v1.05c-2.14,0-3.89,1.41-3.89,3.15s1.75,3.15,3.89,3.15v1.05c-2.12,0-3.6-1.03-4.21-2.52-.61,1.49-2.08,2.52-4.21,2.52v-1.05c2.15,0,3.89-1.41,3.89-3.15s-1.75-3.15-3.89-3.15Z"/>
      <path class="cls-1" d="m118.69,39.79c0,2.33-1.56,4.21-4.21,4.21s-4.21-1.87-4.21-4.21,1.56-4.21,4.21-4.21,4.21,1.87,4.21,4.21Zm-7.8,0c0,1.75,1.6,3.15,3.6,3.15s3.6-1.41,3.6-3.15-1.6-3.15-3.6-3.15-3.6,1.41-3.6,3.15Z"/>
      <path class="cls-1" d="m125.61,44v-7.36h-2.12c-.21,4.14-1.72,7.36-4.19,7.36v-1.11c.67,0,1.56-.5,2.33-1.87.76-1.32,1.26-3.26,1.26-5.43h3.76v8.41h-1.05Z"/>
      <path class="cls-1" d="m136.21,39.79c0,2.33-1.56,4.21-4.21,4.21s-4.21-1.87-4.21-4.21,1.56-4.21,4.21-4.21,4.21,1.87,4.21,4.21Zm-7.8,0c0,1.75,1.6,3.15,3.6,3.15s3.6-1.41,3.6-3.15-1.6-3.15-3.6-3.15-3.6,1.41-3.6,3.15Z"/>
      <path class="cls-1" d="m137.35,35.58h5.26v.63l-4.21.42v7.36h-1.05v-8.41Z"/>
      <path class="cls-1" d="m143.74,44v-8.41h1.05v7.36c.55,0,1.32-.48,2.04-1.87.67-1.35,1.11-3.28,1.11-5.49h1.05v8.41h-1.05v-3.55c-.65,2.14-1.75,3.55-3.15,3.55h-1.05Z"/>
      <path class="cls-1" d="m151.19,35.58c0,1.7.42,3.2,1.05,4.23.65,1.05,1.41,1.51,2.1,1.51v-5.74h1.05v8.41h-1.05v-2.1c-2.33,0-4.21-2.5-4.21-6.31h1.05Z"/>
      <path class="cls-1" d="m164.33,39.79h.61c0,2.33-1.56,4.21-4.21,4.21s-4.21-1.87-4.21-4.21,1.56-4.21,4.21-4.21c1.28,0,2.63.5,3.39,1.58l-5.3,5.3c.55.29,1.22.48,1.91.48,2,0,3.6-1.41,3.6-3.15Zm-7.19,0c0,.78.29,1.47.84,2.02l4.67-4.69c-.55-.29-1.22-.48-1.91-.48-2,0-3.6,1.41-3.6,3.15Z"/>
      <path class="cls-1" d="m165.55,39.79c0-2.46,1.7-4.21,4.21-4.21,1.28,0,2.63.5,3.39,1.58l-.63.61c-.69-.76-1.75-1.14-2.75-1.14-1.79,0-3.6,1.24-3.6,3.15s1.81,3.15,3.6,3.15c1.01,0,2.06-.38,2.75-1.14l.63.61c-.76,1.07-2.1,1.58-3.39,1.58-2.5,0-4.21-1.75-4.21-4.21Z"/>
      <path class="cls-1" d="m175.33,44h-1.05v-8.41h1.05v5.74c.69,0,1.45-.46,2.1-1.51.63-1.03,1.05-2.52,1.05-4.23h1.05c0,2.92-1.11,5.09-2.69,5.93,1.58.32,2.69,1.14,2.69,2.48h-1.05c0-1.45-2-2.1-3.15-2.1v2.1Z"/>
      <path class="cls-1" d="m188.56,39.79c0,2.33-1.56,4.21-4.21,4.21s-4.21-1.87-4.21-4.21,1.56-4.21,4.21-4.21,4.21,1.87,4.21,4.21Zm-7.8,0c0,1.75,1.6,3.15,3.6,3.15s3.6-1.41,3.6-3.15-1.6-3.15-3.6-3.15-3.6,1.41-3.6,3.15Z"/>
      <path class="cls-1" d="m190.75,35.58v7.36c.55,0,1.35-.48,2.04-1.87.69-1.37,1.11-3.3,1.11-5.49h1.07v8.41h-1.07v-3.55c-.63,2.14-1.75,3.55-3.15,3.55h-1.05v-8.41h1.05Zm.53-3.18h-1.05c0,1.56.95,2.1,2.1,2.1s2.1-.55,2.1-2.1h-1.05c0,.78-.48,1.47-1.05,1.47s-1.05-.69-1.05-1.47Z"/>
      <path class="cls-1" d="m79.74,58.02h-1.05v-8.41h6.31v8.41h-1.05v-7.36h-4.21v7.36Z"/>
      <path class="cls-1" d="m94.55,53.81c0,2.33-1.56,4.21-4.21,4.21s-4.21-1.87-4.21-4.21,1.56-4.21,4.21-4.21,4.21,1.87,4.21,4.21Zm-7.8,0c0,1.75,1.6,3.15,3.6,3.15s3.6-1.41,3.6-3.15-1.6-3.15-3.6-3.15-3.6,1.41-3.6,3.15Z"/>
      <path class="cls-1" d="m102.52,56.97h1.05v3.15h-1.05c0-.74-.13-1.43-.34-2.1h-5.64c-.21.67-.34,1.37-.34,2.1h-1.05v-3.24c.65,0,1.56-.46,2.36-1.85.78-1.37,1.22-3.24,1.22-5.43h3.79v7.36Zm-3.2-6.31c-.15,2.71-.84,5.03-1.98,6.31h4.14v-6.31h-2.17Z"/>
      <path class="cls-1" d="m111.54,56.97h1.05v3.15h-1.05c0-.74-.13-1.43-.34-2.1h-5.64c-.21.67-.34,1.37-.34,2.1h-1.05v-3.24c.65,0,1.56-.46,2.36-1.85.78-1.37,1.22-3.24,1.22-5.43h3.79v7.36Zm-3.2-6.31c-.15,2.71-.84,5.03-1.98,6.31h4.14v-6.31h-2.17Z"/>
      <path class="cls-1" d="m121.01,53.81h.61c0,2.33-1.56,4.21-4.21,4.21s-4.21-1.87-4.21-4.21,1.56-4.21,4.21-4.21c1.28,0,2.63.5,3.39,1.58l-5.3,5.3c.55.29,1.22.48,1.91.48,2,0,3.6-1.41,3.6-3.15Zm-7.19,0c0,.78.29,1.47.84,2.02l4.67-4.69c-.55-.29-1.22-.48-1.91-.48-2,0-3.6,1.41-3.6,3.15Z"/>
      <path class="cls-1" d="m123.8,49.61c2.65,0,4.21,1.41,4.21,3.15s-1.56,3.15-4.21,3.15v2.1h-1.05v-8.41h1.05Zm0,5.26c1.18,0,3.57-.57,3.57-2.1s-2.4-2.1-3.57-2.1v4.21Z"/>
      <path class="cls-1" d="m129.67,49.61c0,1.7.42,3.2,1.05,4.23.65,1.05,1.41,1.51,2.1,1.51v-5.74h1.05v5.74c.69,0,1.45-.46,2.1-1.51.63-1.03,1.05-2.52,1.05-4.23h1.05c0,2.92-1.11,5.09-2.69,5.93,1.58.32,2.69,1.14,2.69,2.48h-1.05c0-1.45-2-2.1-3.15-2.1v2.1h-1.05v-2.1c-1.16,0-3.15.65-3.15,2.1h-1.05c0-1.35,1.11-2.17,2.69-2.48-1.58-.84-2.69-3.01-2.69-5.93h1.05Z"/>
      <path class="cls-1" d="m140.27,58.02h-1.05v-8.41h1.05v5.74c.69,0,1.45-.46,2.1-1.51.63-1.03,1.05-2.52,1.05-4.23h1.05c0,2.92-1.11,5.09-2.69,5.93,1.58.32,2.69,1.14,2.69,2.48h-1.05c0-1.45-2-2.1-3.15-2.1v2.1Z"/>
      <path class="cls-1" d="m145.61,58.02v-8.41h1.05v7.36c.55,0,1.32-.48,2.04-1.87.67-1.35,1.11-3.28,1.11-5.49h1.05v8.41h-1.05v-3.55c-.65,2.14-1.75,3.55-3.15,3.55h-1.05Z"/>
      <path class="cls-1" d="m84.51,71.13h.91v2.73h-.91c0-.64-.11-1.24-.29-1.82h-4.89c-.18.58-.29,1.18-.29,1.82h-.91v-2.81c.56,0,1.35-.4,2.04-1.6.67-1.19,1.06-2.81,1.06-4.7h3.28v6.38Zm-2.77-5.47c-.13,2.35-.73,4.36-1.71,5.47h3.59v-5.47h-1.88Z"/>
      <path class="cls-1" d="m92.71,68.39h.53c0,2.02-1.35,3.65-3.65,3.65s-3.65-1.62-3.65-3.65,1.35-3.65,3.65-3.65c1.11,0,2.28.44,2.93,1.37l-4.59,4.59c.47.26,1.06.42,1.66.42,1.73,0,3.12-1.22,3.12-2.73Zm-6.24,0c0,.67.26,1.28.73,1.75l4.05-4.07c-.47-.26-1.06-.42-1.66-.42-1.73,0-3.12,1.22-3.12,2.73Z"/>
      <path class="cls-1" d="m97.41,65.46v6.58h-.91v-6.54l-2.73.16v-.91h6.38v.55l-2.73.16Z"/>
      <path class="cls-1" d="m107.44,68.39h.53c0,2.02-1.35,3.65-3.65,3.65s-3.65-1.62-3.65-3.65,1.35-3.65,3.65-3.65c1.11,0,2.28.44,2.93,1.37l-4.59,4.59c.47.26,1.06.42,1.66.42,1.73,0,3.12-1.22,3.12-2.73Zm-6.24,0c0,.67.26,1.28.73,1.75l4.05-4.07c-.47-.26-1.06-.42-1.66-.42-1.73,0-3.12,1.22-3.12,2.73Z"/>
      <path class="cls-1" d="m109.86,64.75v6.38c.47,0,1.17-.42,1.77-1.62.6-1.18.97-2.86.97-4.76h.93v7.29h-.93v-3.08c-.55,1.86-1.51,3.08-2.73,3.08h-.91v-7.29h.91Zm.46-2.75h-.91c0,1.35.82,1.82,1.82,1.82s1.82-.47,1.82-1.82h-.91c0,.67-.42,1.28-.91,1.28s-.91-.6-.91-1.28Z"/>
      <path class="cls-1" d="m124.06,72.04v-7.29h.91v6.38c.47,0,1.15-.42,1.77-1.62.58-1.17.97-2.84.97-4.76h.91v7.29h-.91v-3.08c-.57,1.86-1.51,3.08-2.73,3.08h-.91Z"/>
      <path class="cls-1" d="m140.06,72.04h-.91v-7.29h5.47v7.29h-.91v-6.38h-3.65v6.38Z"/>
      <path class="cls-1" d="m152.9,68.39c0,2.02-1.35,3.65-3.65,3.65s-3.65-1.62-3.65-3.65,1.35-3.65,3.65-3.65,3.65,1.62,3.65,3.65Zm-6.76,0c0,1.51,1.39,2.73,3.12,2.73s3.12-1.22,3.12-2.73-1.39-2.73-3.12-2.73-3.12,1.22-3.12,2.73Z"/>
      <path class="cls-1" d="m159.8,71.13h.91v2.73h-.91c0-.64-.11-1.24-.29-1.82h-4.89c-.18.58-.29,1.18-.29,1.82h-.91v-2.81c.56,0,1.35-.4,2.04-1.6.67-1.19,1.06-2.81,1.06-4.7h3.28v6.38Zm-2.77-5.47c-.13,2.35-.73,4.36-1.71,5.47h3.59v-5.47h-1.88Z"/>
      <path class="cls-1" d="m162.61,64.75c2.3,0,3.65,1.22,3.65,2.73s-1.35,2.73-3.65,2.73v1.82h-.91v-7.29h.91Zm0,4.56c1.02,0,3.1-.49,3.1-1.82s-2.08-1.82-3.1-1.82v3.65Z"/>
      <path class="cls-1" d="m174.08,68.39c0,2.02-1.35,3.65-3.65,3.65s-3.65-1.62-3.65-3.65,1.35-3.65,3.65-3.65,3.65,1.62,3.65,3.65Zm-6.76,0c0,1.51,1.39,2.73,3.12,2.73s3.12-1.22,3.12-2.73-1.39-2.73-3.12-2.73-3.12,1.22-3.12,2.73Z"/>
      <path class="cls-1" d="m174.6,68.39c0-2.13,1.48-3.65,3.65-3.65,1.11,0,2.28.44,2.93,1.37l-.55.53c-.6-.66-1.51-.98-2.39-.98-1.55,0-3.12,1.08-3.12,2.73s1.57,2.73,3.12,2.73c.88,0,1.79-.33,2.39-.98l.55.53c-.66.93-1.82,1.37-2.93,1.37-2.17,0-3.65-1.51-3.65-3.65Z"/>
      <path class="cls-1" d="m185.36,65.46v6.58h-.91v-6.54l-2.73.16v-.91h6.38v.55l-2.73.16Z"/>
      <path class="cls-1" d="m189.99,72.04h-.91v-7.29h.91v4.98c.6,0,1.26-.4,1.82-1.31.55-.89.91-2.19.91-3.66h.91c0,2.53-.97,4.41-2.33,5.14,1.37.27,2.33.98,2.33,2.15h-.91c0-1.26-1.73-1.82-2.73-1.82v1.82Z"/>
      <path class="cls-1" d="m201.45,68.39c0,2.02-1.35,3.65-3.65,3.65s-3.65-1.62-3.65-3.65,1.35-3.65,3.65-3.65,3.65,1.62,3.65,3.65Zm-6.76,0c0,1.51,1.39,2.73,3.12,2.73s3.12-1.22,3.12-2.73-1.39-2.73-3.12-2.73-3.12,1.22-3.12,2.73Z"/>
      <path class="cls-1" d="m202.44,64.75h.91c1.8,0,2.73.82,2.73,1.82,0,.49-.22.93-.66,1.26,1,.4,1.57,1.13,1.57,1.93,0,1.26-1.35,2.28-3.65,2.28h-.91v-7.29Zm.91,2.73c.71,0,1.33-.16,1.71-.38.4-.22.47-.42.47-.53s-.07-.31-.47-.53c-.38-.22-1-.38-1.71-.38v1.82Zm0,3.65c.98,0,1.84-.22,2.39-.53.58-.33.73-.64.73-.84s-.15-.51-.73-.84c-.55-.31-1.4-.53-2.39-.53v2.73Z"/>
    </g>
    <path class="cls-3" d="m29.59,10.51c-.12-.04-.26-.09-.25-.13.05-.29,11.19-.66,20.21,3.47,16.56,7.57,20.04,27.6,20.32,29.36.84,4.13,1.46,10.17-.16,17.01-3.89,16.39-18.17,26.93-18.46,26.69-.02-.02.03-.13.06-.17,2.48-3.38,5.07-8.05,7.33-13.81,3.18-8.11,5.38-19.15,1.44-31.38,0,0-7.59-24.9-30.48-31.04Z"/>
    <path class="cls-1" d="m16.68,42.11c.13-1.48.43-3.57,1.26-5.94,2.65-7.59,8.72-12.4,8.17-12.99-.09-.09-.34-.09-1.1.34,0,0,0,0,0,0,.01.03-22.4,10.4-12.22,43.34.03.04.14.33.36.8,5.57,12.31,16.42,18.16,17.66,18.81,8.62,4.54,17.34,4.87,17.4,4.62.01-.06-.39-.21-.74-.34-4.04-1.48-9.29-4.25-14.74-8.64-7.49-6.03-15.2-15.47-16.11-29.13.03-.46.11-.6.18-.61.46-.1,1.7,3.6,1.7,3.6.84,3.56,2.45,8.52,5.76,13.64,8.16,12.6,23.04,20.58,24.88,18.67.12-.12.22-.33.22-.68,0,0,0,0,0,0,.07,0,1.41-17.3-5.03-26.32,4.05-1.18,9.69-3.67,13.66-9.03,5.77-7.79,5.64-18.48,5.31-18.56-.07-.02-.21.36-.33.72-.02.07-.04.16-.07.28-.68,2.65-6.43,23.04-28.8,18.41-.05-.01-.13-.02-.23-.02-.82.04-1.35,1.19-1.59,1.61-1.02,1.77-3.74,2.21-4.94,2.41-2.66.43-4.58-.47-5.1-.96-.07-.07-.46-.43-.4-.51.04-.06.25.09.36.05.61-.22-.23-7.87-5.3-13.35-.09-.1-.17-.18-.2-.21Z"/>
    <path class="cls-2" d="m38.49,22.27l-1.71-.4s-.1,0-.13.03l-1.3,1.19c-.09.08-.24.03-.25-.1l-.15-1.75s-.03-.09-.07-.12l-1.53-.87c-.11-.06-.1-.22.02-.27l1.62-.68s.08-.06.09-.11l.36-1.72c.02-.12.18-.16.26-.07l1.15,1.33s.08.06.13.05l1.75-.19c.12-.01.21.12.14.22l-.91,1.51s-.03.09,0,.14l.73,1.6c.05.11-.05.23-.17.21Z"/>
    <path class="cls-2" d="m46.45,26.92l-1.71-.4s-.1,0-.13.03l-1.3,1.19c-.09.08-.24.03-.25-.1l-.15-1.75s-.03-.09-.07-.12l-1.53-.87c-.11-.06-.1-.22.02-.27l1.62-.68s.08-.06.09-.11l.36-1.72c.02-.12.18-.16.26-.07l1.15,1.33s.08.06.13.05l1.75-.19c.12-.01.21.12.14.22l-.91,1.51s-.03.09,0,.14l.73,1.6c.05.11-.05.23-.17.21Z"/>
    <path class="cls-2" d="m43.21,33.37l-1.4-.33s-.08,0-.11.03l-1.06.97c-.07.07-.19.02-.2-.08l-.12-1.44s-.03-.08-.06-.1l-1.25-.71c-.09-.05-.08-.18.01-.22l1.33-.56s.06-.05.07-.09l.29-1.41c.02-.1.14-.13.21-.06l.94,1.09s.07.05.11.04l1.43-.16c.1-.01.17.1.12.18l-.74,1.23s-.02.08,0,.11l.59,1.31c.04.09-.04.19-.14.17Z"/>
    <path class="cls-2" d="m36.96,30.23l-1.15-.27s-.07,0-.09.02l-.87.79c-.06.06-.16.02-.17-.07l-.1-1.18s-.02-.06-.05-.08l-1.02-.58c-.07-.04-.07-.15.01-.18l1.09-.46s.05-.04.06-.07l.24-1.16c.02-.08.12-.11.17-.05l.77.89s.05.04.09.03l1.17-.13c.08,0,.14.08.1.15l-.61,1.01s-.02.06,0,.09l.49,1.07c.03.08-.03.16-.11.14Z"/>
    <path class="cls-2" d="m32.04,26.85l-1.4-.33s-.08,0-.11.03l-1.06.97c-.07.07-.19.02-.2-.08l-.12-1.44s-.03-.08-.06-.1l-1.25-.71c-.09-.05-.08-.18.01-.22l1.33-.56s.06-.05.07-.09l.29-1.41c.02-.1.14-.13.21-.06l.94,1.09s.07.05.11.04l1.43-.16c.1-.01.17.1.12.18l-.74,1.23s-.02.08,0,.11l.59,1.31c.04.09-.04.19-.14.17Z"/>
  </g>
</svg>